<svg width="356" height="154" viewBox="0 0 356 154" fill="none" xmlns="http://www.w3.org/2000/svg">
    <path fill-rule="evenodd" clip-rule="evenodd" d="M82.0947 103.782V3.81913H69.5962L52.7041 29.4208L37.5258 52.3492L36.692 51.7972L51.8694 28.8701L69.0579 2.81913H83.0947V102.782H106.186V114.011H83.0947V151.282H70.0424V114.011H0.665894V106.474L17.7878 80.5242L31.145 60.1177L31.9817 60.6653L18.6235 81.0734L1.66589 106.774V113.011H71.0424V150.282H82.0947V113.011H105.186V103.782H82.0947ZM200.829 148.484L200.825 148.486C194.931 151.708 187.924 153.308 179.823 153.308C171.789 153.308 164.783 151.707 158.823 148.488L158.817 148.484C152.944 145.206 148.06 140.8 144.169 135.27L144.166 135.267C140.348 129.744 137.49 123.308 135.586 115.966L135.585 115.961C134.662 112.235 133.968 105.907 133.495 99.5089C133.022 93.1002 132.768 86.5802 132.734 82.4492L133.734 82.441C133.768 86.5475 134.021 93.0455 134.493 99.4353C134.965 105.835 135.655 112.085 136.555 115.719C138.433 122.96 141.246 129.283 144.988 134.697C148.793 140.103 153.563 144.406 159.301 147.609C165.089 150.735 171.924 152.308 179.823 152.308C187.791 152.308 194.625 150.735 200.343 147.61C206.082 144.407 210.818 140.104 214.556 134.698C218.298 129.285 221.078 122.961 222.888 115.719L223.858 115.962C222.023 123.305 219.198 129.742 215.378 135.267C211.554 140.799 206.702 145.206 200.829 148.484ZM136.556 38.5834L136.555 38.5844C135.655 42.1838 134.965 48.4085 134.493 54.7927C134.021 61.1656 133.768 67.6551 133.734 71.7615L132.734 71.7533C132.768 67.6224 133.022 61.1108 133.495 54.7189C133.968 48.3384 134.662 42.0346 135.585 38.3419C137.421 30.9324 140.245 24.4283 144.064 18.8368L144.066 18.8333C147.957 13.235 152.842 8.82738 158.717 5.61614C164.612 2.32669 171.585 0.692261 179.62 0.692261C187.722 0.692261 194.729 2.32615 200.623 5.61537C206.566 8.8264 211.452 13.2345 215.277 18.835C219.097 24.3596 221.921 30.8303 223.757 38.2394C225.658 45.6424 226.608 53.4823 226.608 61.7574V95.4451H225.608V61.7574C225.608 53.5585 224.667 45.802 222.788 38.4863L222.787 38.4821C220.976 31.173 218.197 24.8159 214.454 19.4031L214.453 19.4007C210.717 13.9297 205.949 9.62894 200.145 6.49359L200.139 6.49032C194.421 3.29876 187.588 1.69226 179.62 1.69226C171.722 1.69226 164.922 3.29842 159.203 6.49028L159.199 6.49245C153.463 9.62755 148.693 13.9289 144.888 19.4021C141.145 24.8833 138.366 31.2747 136.556 38.5834ZM331.242 103.782V60.796H332.242V102.782H355.334V114.011H332.242V151.282H319.19V114.011H250.314V113.011H320.19V150.282H331.242V113.011H354.334V103.782H331.242ZM318.206 2.81913H332.242V28.3099H331.742H331.242V3.81913H318.744L250.731 106.9L249.896 106.349L318.206 2.81913ZM331.742 28.3099C332.242 28.3099 332.242 28.3098 332.242 28.3099V45.8052H331.242V28.3099C331.242 28.3098 331.242 28.3099 331.332 28.3099L331.742 28.3099ZM13.8943 104.282L63.9154 28.3203L71.5424 14.8058V104.282H13.8943ZM64.7695 28.8416L15.7501 103.282H70.5424V18.6123L64.7695 28.8416ZM144.859 104.271L144.695 102.249C144.49 99.7211 144.388 97.0607 144.388 94.2682V59.7318C144.388 53.3209 145.002 47.1752 146.232 41.2967C147.468 35.3944 149.463 30.1542 152.23 25.5887C155.011 20.9996 158.636 17.338 163.098 14.6187L163.104 14.6152C167.68 11.8696 173.201 10.5228 179.62 10.5228C184.521 10.5228 188.879 11.3166 192.672 12.9322C196.432 14.5334 199.682 16.7322 202.411 19.5303C205.2 22.3205 207.46 25.6274 209.193 29.4406C210.912 33.2235 212.25 37.3086 213.209 41.6929L213.333 42.2589L144.859 104.271ZM201.699 20.2328C199.066 17.532 195.926 15.4052 192.28 13.8522C188.634 12.2993 184.414 11.5228 179.62 11.5228C173.341 11.5228 168.007 12.8394 163.618 15.4727C159.297 18.1059 155.786 21.6507 153.085 26.107C150.384 30.5633 148.426 35.6948 147.211 41.5015C145.996 47.3082 145.388 53.385 145.388 59.7318V94.2682C145.388 96.5735 145.458 98.7852 145.599 100.903C145.627 101.329 145.658 101.75 145.692 102.168L212.232 41.9066C211.287 37.5854 209.971 33.568 208.283 29.8544C206.595 26.1408 204.4 22.9336 201.699 20.2328ZM214.459 51.0631L214.646 53.0553C214.852 55.2478 214.954 57.4734 214.954 59.7318V94.2682C214.954 100.679 214.34 106.825 213.11 112.703C211.875 118.603 209.881 123.842 207.115 128.406C204.4 133 200.775 136.695 196.248 139.48L196.244 139.483C191.733 142.232 186.242 143.579 179.823 143.579C175.059 143.579 170.806 142.819 167.084 141.274C163.394 139.743 160.18 137.649 157.451 134.99L157.442 134.981C154.726 132.264 152.469 129.067 150.668 125.396C148.878 121.747 147.47 117.795 146.442 113.544L146.302 112.967L214.459 51.0631ZM206.257 127.893C208.958 123.437 210.916 118.305 212.131 112.498C213.347 106.692 213.954 100.615 213.954 94.2682V59.7318C213.954 57.9337 213.888 56.1575 213.756 54.4033C213.725 53.9839 213.689 53.5656 213.65 53.1487L147.414 113.309C148.426 117.495 149.811 121.377 151.566 124.956C153.322 128.534 155.516 131.64 158.149 134.274C160.782 136.839 163.888 138.865 167.467 140.35C171.045 141.836 175.164 142.579 179.823 142.579C186.102 142.579 191.403 141.262 195.724 138.629C200.113 135.928 203.624 132.349 206.257 127.893ZM263.042 104.282L313.063 28.3203L320.69 14.8058V104.282H263.042ZM313.917 28.8416L264.898 103.282H319.69V18.6123L313.917 28.8416Z" fill="url(#paint0_linear)"/>
    <defs>
        <linearGradient id="paint0_linear" x1="157.987" y1="152.808" x2="69.7348" y2="1.19225" gradientUnits="userSpaceOnUse">
            <stop stop-color="#015CFF"/>
            <stop offset="1" stop-color="#0FD4FF"/>
        </linearGradient>
    </defs>
</svg>
