<svg width="21" height="17" viewBox="0 0 21 17" fill="none" xmlns="http://www.w3.org/2000/svg">
<path fill-rule="evenodd" clip-rule="evenodd" d="M5.24951 4.49471C5.24951 3.06798 6.40611 1.91138 7.83285 1.91138C9.25958 1.91138 10.4162 3.06798 10.4162 4.49471C10.4162 5.92145 9.25958 7.07804 7.83285 7.07804C6.40611 7.07804 5.24951 5.92145 5.24951 4.49471ZM7.83285 0.411377C5.57768 0.411377 3.74951 2.23955 3.74951 4.49471C3.74951 6.74987 5.57768 8.57804 7.83285 8.57804C10.088 8.57804 11.9162 6.74987 11.9162 4.49471C11.9162 2.23955 10.088 0.411377 7.83285 0.411377ZM4.49984 10.4114C3.41687 10.4114 2.37826 10.8416 1.61248 11.6074C0.846711 12.3731 0.416504 13.4117 0.416504 14.4947V16.1614C0.416504 16.5756 0.75229 16.9114 1.1665 16.9114C1.58072 16.9114 1.9165 16.5756 1.9165 16.1614V14.4947C1.9165 13.8096 2.18868 13.1525 2.67314 12.668C3.15761 12.1835 3.81469 11.9114 4.49984 11.9114H11.1665C11.8516 11.9114 12.5087 12.1835 12.9932 12.668C13.4777 13.1525 13.7498 13.8096 13.7498 14.4947V16.1614C13.7498 16.5756 14.0856 16.9114 14.4998 16.9114C14.914 16.9114 15.2498 16.5756 15.2498 16.1614V14.4947C15.2498 13.4117 14.8196 12.3731 14.0539 11.6074C13.2881 10.8416 12.2495 10.4114 11.1665 10.4114H4.49984ZM16.2733 11.0823C16.3769 10.6812 16.786 10.44 17.187 10.5436C18.063 10.7698 18.8391 11.2805 19.3934 11.9955C19.9477 12.7106 20.2488 13.5895 20.2495 14.4942V14.4948V16.1614C20.2495 16.5757 19.9137 16.9114 19.4995 16.9114C19.0853 16.9114 18.7495 16.5757 18.7495 16.1614V14.4953V14.4952C18.7491 13.9229 18.5585 13.3669 18.2079 12.9145C17.8572 12.4622 17.3662 12.1391 16.812 11.996C16.411 11.8924 16.1698 11.4833 16.2733 11.0823ZM13.8525 0.543213C13.4513 0.440472 13.0427 0.682476 12.9399 1.08375C12.8372 1.48502 13.0792 1.8936 13.4805 1.99634C14.0362 2.13862 14.5287 2.46179 14.8804 2.91491C15.2321 3.36804 15.423 3.92533 15.423 4.49894C15.423 5.07255 15.2321 5.62985 14.8804 6.08297C14.5287 6.5361 14.0362 6.85927 13.4805 7.00155C13.0792 7.10429 12.8372 7.51287 12.9399 7.91414C13.0427 8.31541 13.4513 8.55741 13.8525 8.45467C14.7309 8.22978 15.5094 7.71896 16.0653 7.00273C16.6213 6.2865 16.923 5.40562 16.923 4.49894C16.923 3.59227 16.6213 2.71138 16.0653 1.99516C15.5094 1.27893 14.7309 0.768104 13.8525 0.543213Z" fill="#6980A6"/>
</svg>
