<svg width="19" height="19" viewBox="0 0 19 19" fill="none" xmlns="http://www.w3.org/2000/svg">
<path fill-rule="evenodd" clip-rule="evenodd" d="M8.9976 0.657305C9.20875 0.551732 9.45727 0.551732 9.66842 0.657305L18.0018 4.82397C18.2558 4.95102 18.4163 5.21071 18.4163 5.49479C18.4163 5.77887 18.2558 6.03857 18.0018 6.16561L9.66842 10.3323C9.45727 10.4379 9.20875 10.4379 8.9976 10.3323L0.664266 6.16561C0.410178 6.03857 0.249676 5.77887 0.249676 5.49479C0.249676 5.21071 0.410178 4.95102 0.664266 4.82397L8.9976 0.657305ZM2.67673 5.49479L9.33301 8.82293L15.9893 5.49479L9.33301 2.16665L2.67673 5.49479ZM0.328856 13.4927C0.514098 13.1222 0.964603 12.9721 1.33509 13.1573L9.33301 17.1563L17.3309 13.1573C17.7014 12.9721 18.1519 13.1222 18.3372 13.4927C18.5224 13.8632 18.3722 14.3137 18.0018 14.4989L9.66842 18.6656C9.45727 18.7712 9.20875 18.7712 8.9976 18.6656L0.664266 14.4989C0.293782 14.3137 0.143614 13.8632 0.328856 13.4927ZM1.33509 8.99068C0.964602 8.80544 0.514098 8.9556 0.328856 9.32609C0.143614 9.69657 0.293782 10.1471 0.664266 10.3323L8.9976 14.499C9.20875 14.6046 9.45727 14.6046 9.66842 14.499L18.0018 10.3323C18.3722 10.1471 18.5224 9.69657 18.3372 9.32609C18.1519 8.9556 17.7014 8.80544 17.3309 8.99068L9.33301 12.9896L1.33509 8.99068Z" fill="#6980A6"/>
</svg>
