<svg width="18" height="17" viewBox="0 0 18 17" fill="none" xmlns="http://www.w3.org/2000/svg">
<path fill-rule="evenodd" clip-rule="evenodd" d="M7.50644 0.998452C8.31455 0.647357 8.54992 0.553208 8.68133 0.529671C8.89905 0.490443 9.0795 0.490443 9.29918 0.52771C9.45806 0.55517 9.62282 0.621858 10.4917 1.00041C16.6016 3.66207 17.8118 4.19361 17.8588 4.22696C17.9648 4.30345 18.0001 4.41525 17.9981 4.69378C17.9981 5.04291 17.9589 5.13314 17.7627 5.22532C17.6666 5.27044 17.6352 5.27436 17.2724 5.27436H16.8879V5.47835C16.8879 5.77256 16.8605 5.87652 16.7565 5.98439C16.7036 6.03931 16.6388 6.08247 16.5878 6.0962C16.529 6.11189 14.391 6.11777 8.99908 6.11777C3.60713 6.11777 1.46917 6.11189 1.41033 6.0962C1.35933 6.08247 1.29461 6.03931 1.24165 5.98439C1.13769 5.87652 1.11219 5.77256 1.11219 5.47835V5.27436H0.725793C0.362929 5.27436 0.331546 5.27044 0.235437 5.22532C0.0392941 5.13314 -0.00189582 5.04291 6.56091e-05 4.69378C6.56091e-05 4.41133 0.029487 4.3113 0.141288 4.22892C0.194247 4.18969 1.42994 3.64834 7.50644 0.998452ZM15.7758 4.51921L12.4532 3.06972C9.21575 1.65635 9.02549 1.56917 8.88095 1.61781C8.86602 1.62283 8.85158 1.62931 8.83432 1.63592C8.7951 1.65161 7.37698 2.26946 5.68428 3.00695C4.5906 3.48417 3.59005 3.92136 2.98999 4.18355C2.66025 4.32763 2.45145 4.41887 2.41458 4.43487L2.22432 4.51725V4.76243V5.00564H8.99908H15.7758V4.76243V4.51921ZM3.37757 12.8945V9.79547V6.83516C3.37757 6.75745 3.44057 6.69446 3.51828 6.69446H3.93266H4.349C4.42671 6.69446 4.4897 6.75745 4.4897 6.83516V9.79547V12.8945H5.62144H6.75515V9.79547V6.83516C6.75515 6.75745 6.81814 6.69446 6.89585 6.69446H7.31023H7.72657C7.80428 6.69446 7.86728 6.75745 7.86728 6.83516V9.79547V12.8945H8.99902H10.1327V9.79547V6.83516C10.1327 6.75745 10.1957 6.69446 10.2734 6.69446H10.6878H11.1041C11.1819 6.69446 11.2449 6.75745 11.2449 6.83516V9.79547V12.8945H12.3766H13.5103V9.79547V6.83516C13.5103 6.75745 13.5733 6.69446 13.651 6.69446H14.0654H14.4817C14.5594 6.69446 14.6224 6.75745 14.6224 6.83516V9.79547V12.8945H15.3795C16.2014 12.8945 16.2838 12.9043 16.4662 13.0102C16.6721 13.1299 16.8271 13.3613 16.8663 13.6046C16.8781 13.6732 16.8859 14.0459 16.8859 14.4342L16.8879 15.1384H17.1625C17.5077 15.1384 17.6293 15.1619 17.7646 15.2522C17.847 15.3071 17.8862 15.3502 17.9353 15.4503C17.9961 15.5719 17.998 15.5895 18 15.8249C18 16.0936 17.9804 16.1564 17.8745 16.2172C17.8215 16.2486 17.1252 16.2505 8.99902 16.2505C0.872834 16.2505 0.176528 16.2486 0.12357 16.2172C0.0176528 16.1564 0 16.0936 0 15.8249C0 15.5895 0.00196143 15.5719 0.0627656 15.4503C0.111801 15.3502 0.15103 15.3071 0.23341 15.2522C0.368748 15.1619 0.490356 15.1384 0.835567 15.1384H1.11213V14.4342C1.11213 14.0459 1.11997 13.6732 1.13174 13.6046C1.17097 13.3613 1.32592 13.1299 1.53187 13.0102C1.71429 12.9043 1.79667 12.8945 2.6185 12.8945H3.37757ZM15.7757 15.1384V14.5735V14.0067H8.99902H2.22426V14.5735V15.1384H8.99902H15.7757Z" fill="#6980A6"/>
</svg>
