<svg width="1920" height="960" viewBox="0 0 1920 960" fill="none" xmlns="http://www.w3.org/2000/svg">
<g clip-path="url(#clip0)">
<rect width="1920" height="960" fill="#03132F"/>
<mask id="mask0" mask-type="alpha" maskUnits="userSpaceOnUse" x="-2" y="0" width="424" height="959">
<path fill-rule="evenodd" clip-rule="evenodd" d="M205.523 0.000671256L205.523 958.997L204.523 958.997L204.523 0.000671387L205.523 0.000671256Z" fill="url(#paint0_linear)"/>
<path fill-rule="evenodd" clip-rule="evenodd" d="M193.378 0.000671225L193.378 958.997L192.378 958.997L192.378 0.000671387L193.378 0.000671225Z" fill="url(#paint1_linear)"/>
<path fill-rule="evenodd" clip-rule="evenodd" d="M181.095 0.000671225L181.095 958.997L180.095 958.997L180.095 0.000671387L181.095 0.000671225Z" fill="url(#paint2_linear)"/>
<path fill-rule="evenodd" clip-rule="evenodd" d="M169.364 0.000671256L169.364 958.997L168.364 958.997L168.364 0.000671387L169.364 0.000671256Z" fill="url(#paint3_linear)"/>
<path fill-rule="evenodd" clip-rule="evenodd" d="M157.219 0.000671225L157.219 958.997L156.219 958.997L156.219 0.000671387L157.219 0.000671225Z" fill="url(#paint4_linear)"/>
<path fill-rule="evenodd" clip-rule="evenodd" d="M144.935 0.000671225L144.936 958.997L143.936 958.997L143.935 0.000671387L144.935 0.000671225Z" fill="url(#paint5_linear)"/>
<path fill-rule="evenodd" clip-rule="evenodd" d="M133.143 0.000671256L133.143 958.997L132.143 958.997L132.143 0.000671387L133.143 0.000671256Z" fill="url(#paint6_linear)"/>
<path fill-rule="evenodd" clip-rule="evenodd" d="M120.997 0.000671225L120.998 958.997L119.998 958.997L119.997 0.000671387L120.997 0.000671225Z" fill="url(#paint7_linear)"/>
<path fill-rule="evenodd" clip-rule="evenodd" d="M108.715 0.000671225L108.715 958.997L107.715 958.997L107.715 0.000671387L108.715 0.000671225Z" fill="url(#paint8_linear)"/>
<path fill-rule="evenodd" clip-rule="evenodd" d="M96.9838 0.000671256L96.9839 958.997L95.9839 958.997L95.9838 0.000671387L96.9838 0.000671256Z" fill="url(#paint9_linear)"/>
<path fill-rule="evenodd" clip-rule="evenodd" d="M84.8383 0.000671225L84.8384 958.997L83.8384 958.997L83.8383 0.000671387L84.8383 0.000671225Z" fill="url(#paint10_linear)"/>
<path fill-rule="evenodd" clip-rule="evenodd" d="M72.5556 0.000671225L72.5557 958.997L71.5557 958.997L71.5556 0.000671387L72.5556 0.000671225Z" fill="url(#paint11_linear)"/>
<path fill-rule="evenodd" clip-rule="evenodd" d="M60.5863 0.000671256L60.5864 958.997L59.5864 958.997L59.5863 0.000671387L60.5863 0.000671256Z" fill="url(#paint12_linear)"/>
<path fill-rule="evenodd" clip-rule="evenodd" d="M48.4408 0.000671225L48.4409 958.997L47.4409 958.997L47.4408 0.000671387L48.4408 0.000671225Z" fill="url(#paint13_linear)"/>
<path fill-rule="evenodd" clip-rule="evenodd" d="M36.1581 0.000671225L36.1582 958.997L35.1582 958.997L35.1581 0.000671387L36.1581 0.000671225Z" fill="url(#paint14_linear)"/>
<path fill-rule="evenodd" clip-rule="evenodd" d="M24.4271 0.000671256L24.4272 958.997L23.4272 958.997L23.4271 0.000671387L24.4271 0.000671256Z" fill="url(#paint15_linear)"/>
<path fill-rule="evenodd" clip-rule="evenodd" d="M12.2821 0.000671225L12.2822 958.997L11.2822 958.997L11.2821 0.000671387L12.2821 0.000671225Z" fill="url(#paint16_linear)"/>
<path fill-rule="evenodd" clip-rule="evenodd" d="M421.666 0.000671256L421.667 958.997L420.667 958.997L420.666 0.000671387L421.666 0.000671256Z" fill="url(#paint17_linear)"/>
<path fill-rule="evenodd" clip-rule="evenodd" d="M409.521 0.000671225L409.521 958.997L408.521 958.997L408.521 0.000671387L409.521 0.000671225Z" fill="url(#paint18_linear)"/>
<path fill-rule="evenodd" clip-rule="evenodd" d="M397.238 0.000671225L397.238 958.997L396.238 958.997L396.238 0.000671387L397.238 0.000671225Z" fill="url(#paint19_linear)"/>
<path fill-rule="evenodd" clip-rule="evenodd" d="M385.508 0.000671256L385.508 958.997L384.508 958.997L384.508 0.000671387L385.508 0.000671256Z" fill="url(#paint20_linear)"/>
<path fill-rule="evenodd" clip-rule="evenodd" d="M373.362 0.000671225L373.362 958.997L372.362 958.997L372.362 0.000671387L373.362 0.000671225Z" fill="url(#paint21_linear)"/>
<path fill-rule="evenodd" clip-rule="evenodd" d="M361.079 0.000671225L361.079 958.997L360.079 958.997L360.079 0.000671387L361.079 0.000671225Z" fill="url(#paint22_linear)"/>
<path fill-rule="evenodd" clip-rule="evenodd" d="M349.286 0.000671256L349.286 958.997L348.286 958.997L348.286 0.000671387L349.286 0.000671256Z" fill="url(#paint23_linear)"/>
<path fill-rule="evenodd" clip-rule="evenodd" d="M337.141 0.000671225L337.141 958.997L336.141 958.997L336.141 0.000671387L337.141 0.000671225Z" fill="url(#paint24_linear)"/>
<path fill-rule="evenodd" clip-rule="evenodd" d="M324.858 0.000671225L324.858 958.997L323.858 958.997L323.858 0.000671387L324.858 0.000671225Z" fill="url(#paint25_linear)"/>
<path fill-rule="evenodd" clip-rule="evenodd" d="M313.128 0.000671256L313.128 958.997L312.128 958.997L312.128 0.000671387L313.128 0.000671256Z" fill="url(#paint26_linear)"/>
<path fill-rule="evenodd" clip-rule="evenodd" d="M300.982 0.000671225L300.982 958.997L299.982 958.997L299.982 0.000671387L300.982 0.000671225Z" fill="url(#paint27_linear)"/>
<path fill-rule="evenodd" clip-rule="evenodd" d="M288.699 0.000671225L288.699 958.997L287.699 958.997L287.699 0.000671387L288.699 0.000671225Z" fill="url(#paint28_linear)"/>
<path fill-rule="evenodd" clip-rule="evenodd" d="M276.729 0.000671256L276.729 958.997L275.729 958.997L275.729 0.000671387L276.729 0.000671256Z" fill="url(#paint29_linear)"/>
<path fill-rule="evenodd" clip-rule="evenodd" d="M264.584 0.000671225L264.584 958.997L263.584 958.997L263.584 0.000671387L264.584 0.000671225Z" fill="url(#paint30_linear)"/>
<path fill-rule="evenodd" clip-rule="evenodd" d="M252.301 0.000671225L252.301 958.997L251.301 958.997L251.301 0.000671387L252.301 0.000671225Z" fill="url(#paint31_linear)"/>
<path fill-rule="evenodd" clip-rule="evenodd" d="M240.57 0.000671256L240.57 958.997L239.57 958.997L239.57 0.000671387L240.57 0.000671256Z" fill="url(#paint32_linear)"/>
<path fill-rule="evenodd" clip-rule="evenodd" d="M228.425 0.000671225L228.425 958.997L227.425 958.997L227.425 0.000671387L228.425 0.000671225Z" fill="url(#paint33_linear)"/>
<path fill-rule="evenodd" clip-rule="evenodd" d="M216.142 0.000671225L216.142 958.997L215.142 958.997L215.142 0.000671387L216.142 0.000671225Z" fill="url(#paint34_linear)"/>
</mask>
<g mask="url(#mask0)">
<path d="M421.667 958.997L-0.0015564 958.997L-0.00164023 0.000891356L421.666 0.000854492L421.667 958.997Z" fill="url(#paint35_linear)"/>
</g>
<mask id="mask1" mask-type="alpha" maskUnits="userSpaceOnUse" x="1497" y="0" width="425" height="959">
<path fill-rule="evenodd" clip-rule="evenodd" d="M1714.15 958.996L1714.15 0.00048815L1715.15 0.000488281L1715.15 958.996L1714.15 958.996Z" fill="url(#paint36_linear)"/>
<path fill-rule="evenodd" clip-rule="evenodd" d="M1726.32 958.996L1726.32 0.000488181L1727.32 0.000488281L1727.32 958.996L1726.32 958.996Z" fill="url(#paint37_linear)"/>
<path fill-rule="evenodd" clip-rule="evenodd" d="M1738.62 958.996L1738.62 0.000488181L1739.62 0.000488281L1739.62 958.996L1738.62 958.996Z" fill="url(#paint38_linear)"/>
<path fill-rule="evenodd" clip-rule="evenodd" d="M1750.37 958.996L1750.37 0.00048815L1751.37 0.000488281L1751.37 958.996L1750.37 958.996Z" fill="url(#paint39_linear)"/>
<path fill-rule="evenodd" clip-rule="evenodd" d="M1762.53 958.996L1762.53 0.000488181L1763.53 0.000488281L1763.53 958.996L1762.53 958.996Z" fill="url(#paint40_linear)"/>
<path fill-rule="evenodd" clip-rule="evenodd" d="M1774.83 958.996L1774.83 0.000488181L1775.83 0.000488281L1775.83 958.996L1774.83 958.996Z" fill="url(#paint41_linear)"/>
<path fill-rule="evenodd" clip-rule="evenodd" d="M1786.65 958.996L1786.65 0.00048815L1787.65 0.000488281L1787.65 958.996L1786.65 958.996Z" fill="url(#paint42_linear)"/>
<path fill-rule="evenodd" clip-rule="evenodd" d="M1798.81 958.996L1798.81 0.000488181L1799.81 0.000488281L1799.81 958.996L1798.81 958.996Z" fill="url(#paint43_linear)"/>
<path fill-rule="evenodd" clip-rule="evenodd" d="M1811.11 958.996L1811.11 0.000488181L1812.11 0.000488281L1812.11 958.996L1811.11 958.996Z" fill="url(#paint44_linear)"/>
<path fill-rule="evenodd" clip-rule="evenodd" d="M1822.86 958.996L1822.86 0.00048815L1823.86 0.000488281L1823.86 958.996L1822.86 958.996Z" fill="url(#paint45_linear)"/>
<path fill-rule="evenodd" clip-rule="evenodd" d="M1835.03 958.996L1835.03 0.000488181L1836.03 0.000488281L1836.03 958.996L1835.03 958.996Z" fill="url(#paint46_linear)"/>
<path fill-rule="evenodd" clip-rule="evenodd" d="M1847.33 958.996L1847.33 0.000488181L1848.33 0.000488281L1848.33 958.996L1847.33 958.996Z" fill="url(#paint47_linear)"/>
<path fill-rule="evenodd" clip-rule="evenodd" d="M1859.32 958.996L1859.32 0.00048815L1860.32 0.000488281L1860.32 958.996L1859.32 958.996Z" fill="url(#paint48_linear)"/>
<path fill-rule="evenodd" clip-rule="evenodd" d="M1871.48 958.996L1871.48 0.000488181L1872.48 0.000488281L1872.48 958.996L1871.48 958.996Z" fill="url(#paint49_linear)"/>
<path fill-rule="evenodd" clip-rule="evenodd" d="M1883.78 958.996L1883.78 0.000488181L1884.78 0.000488281L1884.78 958.996L1883.78 958.996Z" fill="url(#paint50_linear)"/>
<path fill-rule="evenodd" clip-rule="evenodd" d="M1895.53 958.996L1895.53 0.00048815L1896.53 0.000488281L1896.53 958.996L1895.53 958.996Z" fill="url(#paint51_linear)"/>
<path fill-rule="evenodd" clip-rule="evenodd" d="M1907.7 958.996L1907.7 0.000488181L1908.7 0.000488281L1908.7 958.996L1907.7 958.996Z" fill="url(#paint52_linear)"/>
<path fill-rule="evenodd" clip-rule="evenodd" d="M1497.67 958.996L1497.67 0.00048815L1498.67 0.000488281L1498.67 958.996L1497.67 958.996Z" fill="url(#paint53_linear)"/>
<path fill-rule="evenodd" clip-rule="evenodd" d="M1509.83 958.996L1509.83 0.000488181L1510.83 0.000488281L1510.83 958.996L1509.83 958.996Z" fill="url(#paint54_linear)"/>
<path fill-rule="evenodd" clip-rule="evenodd" d="M1522.13 958.996L1522.13 0.000488181L1523.13 0.000488281L1523.13 958.996L1522.13 958.996Z" fill="url(#paint55_linear)"/>
<path fill-rule="evenodd" clip-rule="evenodd" d="M1533.88 958.996L1533.88 0.00048815L1534.88 0.000488281L1534.88 958.996L1533.88 958.996Z" fill="url(#paint56_linear)"/>
<path fill-rule="evenodd" clip-rule="evenodd" d="M1546.05 958.996L1546.05 0.000488181L1547.05 0.000488281L1547.05 958.996L1546.05 958.996Z" fill="url(#paint57_linear)"/>
<path fill-rule="evenodd" clip-rule="evenodd" d="M1558.35 958.996L1558.35 0.000488181L1559.35 0.000488281L1559.35 958.996L1558.35 958.996Z" fill="url(#paint58_linear)"/>
<path fill-rule="evenodd" clip-rule="evenodd" d="M1570.16 958.996L1570.16 0.00048815L1571.16 0.000488281L1571.16 958.996L1570.16 958.996Z" fill="url(#paint59_linear)"/>
<path fill-rule="evenodd" clip-rule="evenodd" d="M1582.33 958.996L1582.33 0.000488181L1583.33 0.000488281L1583.33 958.996L1582.33 958.996Z" fill="url(#paint60_linear)"/>
<path fill-rule="evenodd" clip-rule="evenodd" d="M1594.63 958.996L1594.63 0.000488181L1595.63 0.000488281L1595.63 958.996L1594.63 958.996Z" fill="url(#paint61_linear)"/>
<path fill-rule="evenodd" clip-rule="evenodd" d="M1606.38 958.996L1606.38 0.00048815L1607.38 0.000488281L1607.38 958.996L1606.38 958.996Z" fill="url(#paint62_linear)"/>
<path fill-rule="evenodd" clip-rule="evenodd" d="M1618.54 958.996L1618.54 0.000488181L1619.54 0.000488281L1619.54 958.996L1618.54 958.996Z" fill="url(#paint63_linear)"/>
<path fill-rule="evenodd" clip-rule="evenodd" d="M1630.84 958.996L1630.84 0.000488181L1631.84 0.000488281L1631.84 958.996L1630.84 958.996Z" fill="url(#paint64_linear)"/>
<path fill-rule="evenodd" clip-rule="evenodd" d="M1642.83 958.996L1642.83 0.00048815L1643.83 0.000488281L1643.83 958.996L1642.83 958.996Z" fill="url(#paint65_linear)"/>
<path fill-rule="evenodd" clip-rule="evenodd" d="M1655 958.996L1655 0.000488181L1656 0.000488281L1656 958.996L1655 958.996Z" fill="url(#paint66_linear)"/>
<path fill-rule="evenodd" clip-rule="evenodd" d="M1667.3 958.996L1667.3 0.000488181L1668.3 0.000488281L1668.3 958.996L1667.3 958.996Z" fill="url(#paint67_linear)"/>
<path fill-rule="evenodd" clip-rule="evenodd" d="M1679.05 958.996L1679.05 0.00048815L1680.05 0.000488281L1680.05 958.996L1679.05 958.996Z" fill="url(#paint68_linear)"/>
<path fill-rule="evenodd" clip-rule="evenodd" d="M1691.21 958.996L1691.21 0.000488181L1692.21 0.000488281L1692.21 958.996L1691.21 958.996Z" fill="url(#paint69_linear)"/>
<path fill-rule="evenodd" clip-rule="evenodd" d="M1703.51 958.996L1703.51 0.000488181L1704.51 0.000488281L1704.51 958.996L1703.51 958.996Z" fill="url(#paint70_linear)"/>
</mask>
<g mask="url(#mask1)">
<path d="M1497.67 0.000488281L1920 0.000562124L1920 958.996L1497.67 958.996L1497.67 0.000488281Z" fill="url(#paint71_linear)"/>
</g>
</g>
<defs>
<linearGradient id="paint0_linear" x1="205.523" y1="0.000681062" x2="205.514" y2="958.997" gradientUnits="userSpaceOnUse">
<stop stop-color="#192B4A" stop-opacity="0"/>
<stop offset="0.5" stop-color="#192B4A" stop-opacity="0.25"/>
<stop offset="1" stop-color="#192B4A" stop-opacity="0"/>
</linearGradient>
<linearGradient id="paint1_linear" x1="193.378" y1="0.000681031" x2="193.369" y2="958.997" gradientUnits="userSpaceOnUse">
<stop stop-color="#192B4A" stop-opacity="0"/>
<stop offset="0.5" stop-color="#192B4A" stop-opacity="0.25"/>
<stop offset="1" stop-color="#192B4A" stop-opacity="0"/>
</linearGradient>
<linearGradient id="paint2_linear" x1="181.095" y1="0.000681031" x2="181.085" y2="958.997" gradientUnits="userSpaceOnUse">
<stop stop-color="#192B4A" stop-opacity="0"/>
<stop offset="0.5" stop-color="#192B4A" stop-opacity="0.25"/>
<stop offset="1" stop-color="#192B4A" stop-opacity="0"/>
</linearGradient>
<linearGradient id="paint3_linear" x1="169.364" y1="0.000681062" x2="169.355" y2="958.997" gradientUnits="userSpaceOnUse">
<stop stop-color="#192B4A" stop-opacity="0"/>
<stop offset="0.5" stop-color="#192B4A" stop-opacity="0.25"/>
<stop offset="1" stop-color="#192B4A" stop-opacity="0"/>
</linearGradient>
<linearGradient id="paint4_linear" x1="157.219" y1="0.000681031" x2="157.209" y2="958.997" gradientUnits="userSpaceOnUse">
<stop stop-color="#192B4A" stop-opacity="0"/>
<stop offset="0.5" stop-color="#192B4A" stop-opacity="0.25"/>
<stop offset="1" stop-color="#192B4A" stop-opacity="0"/>
</linearGradient>
<linearGradient id="paint5_linear" x1="144.935" y1="0.000681031" x2="144.926" y2="958.997" gradientUnits="userSpaceOnUse">
<stop stop-color="#192B4A" stop-opacity="0"/>
<stop offset="0.5" stop-color="#192B4A" stop-opacity="0.25"/>
<stop offset="1" stop-color="#192B4A" stop-opacity="0"/>
</linearGradient>
<linearGradient id="paint6_linear" x1="133.143" y1="0.000681062" x2="133.134" y2="958.997" gradientUnits="userSpaceOnUse">
<stop stop-color="#192B4A" stop-opacity="0"/>
<stop offset="0.5" stop-color="#192B4A" stop-opacity="0.25"/>
<stop offset="1" stop-color="#192B4A" stop-opacity="0"/>
</linearGradient>
<linearGradient id="paint7_linear" x1="120.997" y1="0.000681031" x2="120.988" y2="958.997" gradientUnits="userSpaceOnUse">
<stop stop-color="#192B4A" stop-opacity="0"/>
<stop offset="0.5" stop-color="#192B4A" stop-opacity="0.25"/>
<stop offset="1" stop-color="#192B4A" stop-opacity="0"/>
</linearGradient>
<linearGradient id="paint8_linear" x1="108.715" y1="0.000681031" x2="108.705" y2="958.997" gradientUnits="userSpaceOnUse">
<stop stop-color="#192B4A" stop-opacity="0"/>
<stop offset="0.5" stop-color="#192B4A" stop-opacity="0.25"/>
<stop offset="1" stop-color="#192B4A" stop-opacity="0"/>
</linearGradient>
<linearGradient id="paint9_linear" x1="96.9837" y1="0.000681062" x2="96.9744" y2="958.997" gradientUnits="userSpaceOnUse">
<stop stop-color="#192B4A" stop-opacity="0"/>
<stop offset="0.5" stop-color="#192B4A" stop-opacity="0.25"/>
<stop offset="1" stop-color="#192B4A" stop-opacity="0"/>
</linearGradient>
<linearGradient id="paint10_linear" x1="84.8382" y1="0.000681031" x2="84.829" y2="958.997" gradientUnits="userSpaceOnUse">
<stop stop-color="#192B4A" stop-opacity="0"/>
<stop offset="0.5" stop-color="#192B4A" stop-opacity="0.25"/>
<stop offset="1" stop-color="#192B4A" stop-opacity="0"/>
</linearGradient>
<linearGradient id="paint11_linear" x1="72.5555" y1="0.000681031" x2="72.5463" y2="958.997" gradientUnits="userSpaceOnUse">
<stop stop-color="#192B4A" stop-opacity="0"/>
<stop offset="0.5" stop-color="#192B4A" stop-opacity="0.25"/>
<stop offset="1" stop-color="#192B4A" stop-opacity="0"/>
</linearGradient>
<linearGradient id="paint12_linear" x1="60.5863" y1="0.000681062" x2="60.577" y2="958.997" gradientUnits="userSpaceOnUse">
<stop stop-color="#192B4A" stop-opacity="0"/>
<stop offset="0.5" stop-color="#192B4A" stop-opacity="0.25"/>
<stop offset="1" stop-color="#192B4A" stop-opacity="0"/>
</linearGradient>
<linearGradient id="paint13_linear" x1="48.4408" y1="0.000681031" x2="48.4315" y2="958.997" gradientUnits="userSpaceOnUse">
<stop stop-color="#192B4A" stop-opacity="0"/>
<stop offset="0.5" stop-color="#192B4A" stop-opacity="0.25"/>
<stop offset="1" stop-color="#192B4A" stop-opacity="0"/>
</linearGradient>
<linearGradient id="paint14_linear" x1="36.158" y1="0.000681031" x2="36.1488" y2="958.997" gradientUnits="userSpaceOnUse">
<stop stop-color="#192B4A" stop-opacity="0"/>
<stop offset="0.5" stop-color="#192B4A" stop-opacity="0.25"/>
<stop offset="1" stop-color="#192B4A" stop-opacity="0"/>
</linearGradient>
<linearGradient id="paint15_linear" x1="24.4271" y1="0.000681062" x2="24.4178" y2="958.997" gradientUnits="userSpaceOnUse">
<stop stop-color="#192B4A" stop-opacity="0"/>
<stop offset="0.5" stop-color="#192B4A" stop-opacity="0.25"/>
<stop offset="1" stop-color="#192B4A" stop-opacity="0"/>
</linearGradient>
<linearGradient id="paint16_linear" x1="12.2821" y1="0.000681031" x2="12.2728" y2="958.997" gradientUnits="userSpaceOnUse">
<stop stop-color="#192B4A" stop-opacity="0"/>
<stop offset="0.5" stop-color="#192B4A" stop-opacity="0.25"/>
<stop offset="1" stop-color="#192B4A" stop-opacity="0"/>
</linearGradient>
<linearGradient id="paint17_linear" x1="421.666" y1="0.000681062" x2="421.657" y2="958.997" gradientUnits="userSpaceOnUse">
<stop stop-color="#192B4A" stop-opacity="0"/>
<stop offset="0.5" stop-color="#192B4A" stop-opacity="0.25"/>
<stop offset="1" stop-color="#192B4A" stop-opacity="0"/>
</linearGradient>
<linearGradient id="paint18_linear" x1="409.521" y1="0.000681031" x2="409.512" y2="958.997" gradientUnits="userSpaceOnUse">
<stop stop-color="#192B4A" stop-opacity="0"/>
<stop offset="0.5" stop-color="#192B4A" stop-opacity="0.25"/>
<stop offset="1" stop-color="#192B4A" stop-opacity="0"/>
</linearGradient>
<linearGradient id="paint19_linear" x1="397.238" y1="0.000681031" x2="397.228" y2="958.997" gradientUnits="userSpaceOnUse">
<stop stop-color="#192B4A" stop-opacity="0"/>
<stop offset="0.5" stop-color="#192B4A" stop-opacity="0.25"/>
<stop offset="1" stop-color="#192B4A" stop-opacity="0"/>
</linearGradient>
<linearGradient id="paint20_linear" x1="385.508" y1="0.000681062" x2="385.498" y2="958.997" gradientUnits="userSpaceOnUse">
<stop stop-color="#192B4A" stop-opacity="0"/>
<stop offset="0.5" stop-color="#192B4A" stop-opacity="0.25"/>
<stop offset="1" stop-color="#192B4A" stop-opacity="0"/>
</linearGradient>
<linearGradient id="paint21_linear" x1="373.362" y1="0.000681031" x2="373.353" y2="958.997" gradientUnits="userSpaceOnUse">
<stop stop-color="#192B4A" stop-opacity="0"/>
<stop offset="0.5" stop-color="#192B4A" stop-opacity="0.25"/>
<stop offset="1" stop-color="#192B4A" stop-opacity="0"/>
</linearGradient>
<linearGradient id="paint22_linear" x1="361.079" y1="0.000681031" x2="361.07" y2="958.997" gradientUnits="userSpaceOnUse">
<stop stop-color="#192B4A" stop-opacity="0"/>
<stop offset="0.5" stop-color="#192B4A" stop-opacity="0.25"/>
<stop offset="1" stop-color="#192B4A" stop-opacity="0"/>
</linearGradient>
<linearGradient id="paint23_linear" x1="349.286" y1="0.000681062" x2="349.277" y2="958.997" gradientUnits="userSpaceOnUse">
<stop stop-color="#192B4A" stop-opacity="0"/>
<stop offset="0.5" stop-color="#192B4A" stop-opacity="0.25"/>
<stop offset="1" stop-color="#192B4A" stop-opacity="0"/>
</linearGradient>
<linearGradient id="paint24_linear" x1="337.14" y1="0.000681031" x2="337.131" y2="958.997" gradientUnits="userSpaceOnUse">
<stop stop-color="#192B4A" stop-opacity="0"/>
<stop offset="0.5" stop-color="#192B4A" stop-opacity="0.25"/>
<stop offset="1" stop-color="#192B4A" stop-opacity="0"/>
</linearGradient>
<linearGradient id="paint25_linear" x1="324.858" y1="0.000681031" x2="324.849" y2="958.997" gradientUnits="userSpaceOnUse">
<stop stop-color="#192B4A" stop-opacity="0"/>
<stop offset="0.5" stop-color="#192B4A" stop-opacity="0.25"/>
<stop offset="1" stop-color="#192B4A" stop-opacity="0"/>
</linearGradient>
<linearGradient id="paint26_linear" x1="313.128" y1="0.000681062" x2="313.118" y2="958.997" gradientUnits="userSpaceOnUse">
<stop stop-color="#192B4A" stop-opacity="0"/>
<stop offset="0.5" stop-color="#192B4A" stop-opacity="0.25"/>
<stop offset="1" stop-color="#192B4A" stop-opacity="0"/>
</linearGradient>
<linearGradient id="paint27_linear" x1="300.982" y1="0.000681031" x2="300.973" y2="958.997" gradientUnits="userSpaceOnUse">
<stop stop-color="#192B4A" stop-opacity="0"/>
<stop offset="0.5" stop-color="#192B4A" stop-opacity="0.25"/>
<stop offset="1" stop-color="#192B4A" stop-opacity="0"/>
</linearGradient>
<linearGradient id="paint28_linear" x1="288.699" y1="0.000681031" x2="288.69" y2="958.997" gradientUnits="userSpaceOnUse">
<stop stop-color="#192B4A" stop-opacity="0"/>
<stop offset="0.5" stop-color="#192B4A" stop-opacity="0.25"/>
<stop offset="1" stop-color="#192B4A" stop-opacity="0"/>
</linearGradient>
<linearGradient id="paint29_linear" x1="276.729" y1="0.000681062" x2="276.72" y2="958.997" gradientUnits="userSpaceOnUse">
<stop stop-color="#192B4A" stop-opacity="0"/>
<stop offset="0.5" stop-color="#192B4A" stop-opacity="0.25"/>
<stop offset="1" stop-color="#192B4A" stop-opacity="0"/>
</linearGradient>
<linearGradient id="paint30_linear" x1="264.584" y1="0.000681031" x2="264.575" y2="958.997" gradientUnits="userSpaceOnUse">
<stop stop-color="#192B4A" stop-opacity="0"/>
<stop offset="0.5" stop-color="#192B4A" stop-opacity="0.25"/>
<stop offset="1" stop-color="#192B4A" stop-opacity="0"/>
</linearGradient>
<linearGradient id="paint31_linear" x1="252.301" y1="0.000681031" x2="252.292" y2="958.997" gradientUnits="userSpaceOnUse">
<stop stop-color="#192B4A" stop-opacity="0"/>
<stop offset="0.5" stop-color="#192B4A" stop-opacity="0.25"/>
<stop offset="1" stop-color="#192B4A" stop-opacity="0"/>
</linearGradient>
<linearGradient id="paint32_linear" x1="240.57" y1="0.000681062" x2="240.561" y2="958.997" gradientUnits="userSpaceOnUse">
<stop stop-color="#192B4A" stop-opacity="0"/>
<stop offset="0.5" stop-color="#192B4A" stop-opacity="0.25"/>
<stop offset="1" stop-color="#192B4A" stop-opacity="0"/>
</linearGradient>
<linearGradient id="paint33_linear" x1="228.425" y1="0.000681031" x2="228.415" y2="958.997" gradientUnits="userSpaceOnUse">
<stop stop-color="#192B4A" stop-opacity="0"/>
<stop offset="0.5" stop-color="#192B4A" stop-opacity="0.25"/>
<stop offset="1" stop-color="#192B4A" stop-opacity="0"/>
</linearGradient>
<linearGradient id="paint34_linear" x1="216.142" y1="0.000681031" x2="216.133" y2="958.997" gradientUnits="userSpaceOnUse">
<stop stop-color="#192B4A" stop-opacity="0"/>
<stop offset="0.5" stop-color="#192B4A" stop-opacity="0.25"/>
<stop offset="1" stop-color="#192B4A" stop-opacity="0"/>
</linearGradient>
<linearGradient id="paint35_linear" x1="-0.0015996" y1="505.772" x2="421.666" y2="505.772" gradientUnits="userSpaceOnUse">
<stop stop-color="white"/>
<stop offset="1" stop-color="white" stop-opacity="0"/>
</linearGradient>
<linearGradient id="paint36_linear" x1="1714.15" y1="958.996" x2="1714.16" y2="0.000478437" gradientUnits="userSpaceOnUse">
<stop stop-color="#192B4A" stop-opacity="0"/>
<stop offset="0.5" stop-color="#192B4A" stop-opacity="0.25"/>
<stop offset="1" stop-color="#192B4A" stop-opacity="0"/>
</linearGradient>
<linearGradient id="paint37_linear" x1="1726.32" y1="958.996" x2="1726.33" y2="0.000478467" gradientUnits="userSpaceOnUse">
<stop stop-color="#192B4A" stop-opacity="0"/>
<stop offset="0.5" stop-color="#192B4A" stop-opacity="0.25"/>
<stop offset="1" stop-color="#192B4A" stop-opacity="0"/>
</linearGradient>
<linearGradient id="paint38_linear" x1="1738.62" y1="958.996" x2="1738.63" y2="0.000478467" gradientUnits="userSpaceOnUse">
<stop stop-color="#192B4A" stop-opacity="0"/>
<stop offset="0.5" stop-color="#192B4A" stop-opacity="0.25"/>
<stop offset="1" stop-color="#192B4A" stop-opacity="0"/>
</linearGradient>
<linearGradient id="paint39_linear" x1="1750.37" y1="958.996" x2="1750.38" y2="0.000478437" gradientUnits="userSpaceOnUse">
<stop stop-color="#192B4A" stop-opacity="0"/>
<stop offset="0.5" stop-color="#192B4A" stop-opacity="0.25"/>
<stop offset="1" stop-color="#192B4A" stop-opacity="0"/>
</linearGradient>
<linearGradient id="paint40_linear" x1="1762.53" y1="958.996" x2="1762.54" y2="0.000478467" gradientUnits="userSpaceOnUse">
<stop stop-color="#192B4A" stop-opacity="0"/>
<stop offset="0.5" stop-color="#192B4A" stop-opacity="0.25"/>
<stop offset="1" stop-color="#192B4A" stop-opacity="0"/>
</linearGradient>
<linearGradient id="paint41_linear" x1="1774.83" y1="958.996" x2="1774.84" y2="0.000478467" gradientUnits="userSpaceOnUse">
<stop stop-color="#192B4A" stop-opacity="0"/>
<stop offset="0.5" stop-color="#192B4A" stop-opacity="0.25"/>
<stop offset="1" stop-color="#192B4A" stop-opacity="0"/>
</linearGradient>
<linearGradient id="paint42_linear" x1="1786.65" y1="958.996" x2="1786.65" y2="0.000478437" gradientUnits="userSpaceOnUse">
<stop stop-color="#192B4A" stop-opacity="0"/>
<stop offset="0.5" stop-color="#192B4A" stop-opacity="0.25"/>
<stop offset="1" stop-color="#192B4A" stop-opacity="0"/>
</linearGradient>
<linearGradient id="paint43_linear" x1="1798.81" y1="958.996" x2="1798.82" y2="0.000478467" gradientUnits="userSpaceOnUse">
<stop stop-color="#192B4A" stop-opacity="0"/>
<stop offset="0.5" stop-color="#192B4A" stop-opacity="0.25"/>
<stop offset="1" stop-color="#192B4A" stop-opacity="0"/>
</linearGradient>
<linearGradient id="paint44_linear" x1="1811.11" y1="958.996" x2="1811.12" y2="0.000478467" gradientUnits="userSpaceOnUse">
<stop stop-color="#192B4A" stop-opacity="0"/>
<stop offset="0.5" stop-color="#192B4A" stop-opacity="0.25"/>
<stop offset="1" stop-color="#192B4A" stop-opacity="0"/>
</linearGradient>
<linearGradient id="paint45_linear" x1="1822.86" y1="958.996" x2="1822.87" y2="0.000478437" gradientUnits="userSpaceOnUse">
<stop stop-color="#192B4A" stop-opacity="0"/>
<stop offset="0.5" stop-color="#192B4A" stop-opacity="0.25"/>
<stop offset="1" stop-color="#192B4A" stop-opacity="0"/>
</linearGradient>
<linearGradient id="paint46_linear" x1="1835.03" y1="958.996" x2="1835.04" y2="0.000478467" gradientUnits="userSpaceOnUse">
<stop stop-color="#192B4A" stop-opacity="0"/>
<stop offset="0.5" stop-color="#192B4A" stop-opacity="0.25"/>
<stop offset="1" stop-color="#192B4A" stop-opacity="0"/>
</linearGradient>
<linearGradient id="paint47_linear" x1="1847.33" y1="958.996" x2="1847.34" y2="0.000478467" gradientUnits="userSpaceOnUse">
<stop stop-color="#192B4A" stop-opacity="0"/>
<stop offset="0.5" stop-color="#192B4A" stop-opacity="0.25"/>
<stop offset="1" stop-color="#192B4A" stop-opacity="0"/>
</linearGradient>
<linearGradient id="paint48_linear" x1="1859.32" y1="958.996" x2="1859.33" y2="0.000478437" gradientUnits="userSpaceOnUse">
<stop stop-color="#192B4A" stop-opacity="0"/>
<stop offset="0.5" stop-color="#192B4A" stop-opacity="0.25"/>
<stop offset="1" stop-color="#192B4A" stop-opacity="0"/>
</linearGradient>
<linearGradient id="paint49_linear" x1="1871.48" y1="958.996" x2="1871.49" y2="0.000478467" gradientUnits="userSpaceOnUse">
<stop stop-color="#192B4A" stop-opacity="0"/>
<stop offset="0.5" stop-color="#192B4A" stop-opacity="0.25"/>
<stop offset="1" stop-color="#192B4A" stop-opacity="0"/>
</linearGradient>
<linearGradient id="paint50_linear" x1="1883.78" y1="958.996" x2="1883.79" y2="0.000478467" gradientUnits="userSpaceOnUse">
<stop stop-color="#192B4A" stop-opacity="0"/>
<stop offset="0.5" stop-color="#192B4A" stop-opacity="0.25"/>
<stop offset="1" stop-color="#192B4A" stop-opacity="0"/>
</linearGradient>
<linearGradient id="paint51_linear" x1="1895.53" y1="958.996" x2="1895.54" y2="0.000478437" gradientUnits="userSpaceOnUse">
<stop stop-color="#192B4A" stop-opacity="0"/>
<stop offset="0.5" stop-color="#192B4A" stop-opacity="0.25"/>
<stop offset="1" stop-color="#192B4A" stop-opacity="0"/>
</linearGradient>
<linearGradient id="paint52_linear" x1="1907.7" y1="958.996" x2="1907.71" y2="0.000478467" gradientUnits="userSpaceOnUse">
<stop stop-color="#192B4A" stop-opacity="0"/>
<stop offset="0.5" stop-color="#192B4A" stop-opacity="0.25"/>
<stop offset="1" stop-color="#192B4A" stop-opacity="0"/>
</linearGradient>
<linearGradient id="paint53_linear" x1="1497.67" y1="958.996" x2="1497.68" y2="0.000478437" gradientUnits="userSpaceOnUse">
<stop stop-color="#192B4A" stop-opacity="0"/>
<stop offset="0.5" stop-color="#192B4A" stop-opacity="0.25"/>
<stop offset="1" stop-color="#192B4A" stop-opacity="0"/>
</linearGradient>
<linearGradient id="paint54_linear" x1="1509.83" y1="958.996" x2="1509.84" y2="0.000478467" gradientUnits="userSpaceOnUse">
<stop stop-color="#192B4A" stop-opacity="0"/>
<stop offset="0.5" stop-color="#192B4A" stop-opacity="0.25"/>
<stop offset="1" stop-color="#192B4A" stop-opacity="0"/>
</linearGradient>
<linearGradient id="paint55_linear" x1="1522.13" y1="958.996" x2="1522.14" y2="0.000478467" gradientUnits="userSpaceOnUse">
<stop stop-color="#192B4A" stop-opacity="0"/>
<stop offset="0.5" stop-color="#192B4A" stop-opacity="0.25"/>
<stop offset="1" stop-color="#192B4A" stop-opacity="0"/>
</linearGradient>
<linearGradient id="paint56_linear" x1="1533.88" y1="958.996" x2="1533.89" y2="0.000478437" gradientUnits="userSpaceOnUse">
<stop stop-color="#192B4A" stop-opacity="0"/>
<stop offset="0.5" stop-color="#192B4A" stop-opacity="0.25"/>
<stop offset="1" stop-color="#192B4A" stop-opacity="0"/>
</linearGradient>
<linearGradient id="paint57_linear" x1="1546.05" y1="958.996" x2="1546.06" y2="0.000478467" gradientUnits="userSpaceOnUse">
<stop stop-color="#192B4A" stop-opacity="0"/>
<stop offset="0.5" stop-color="#192B4A" stop-opacity="0.25"/>
<stop offset="1" stop-color="#192B4A" stop-opacity="0"/>
</linearGradient>
<linearGradient id="paint58_linear" x1="1558.35" y1="958.996" x2="1558.36" y2="0.000478467" gradientUnits="userSpaceOnUse">
<stop stop-color="#192B4A" stop-opacity="0"/>
<stop offset="0.5" stop-color="#192B4A" stop-opacity="0.25"/>
<stop offset="1" stop-color="#192B4A" stop-opacity="0"/>
</linearGradient>
<linearGradient id="paint59_linear" x1="1570.16" y1="958.996" x2="1570.17" y2="0.000478437" gradientUnits="userSpaceOnUse">
<stop stop-color="#192B4A" stop-opacity="0"/>
<stop offset="0.5" stop-color="#192B4A" stop-opacity="0.25"/>
<stop offset="1" stop-color="#192B4A" stop-opacity="0"/>
</linearGradient>
<linearGradient id="paint60_linear" x1="1582.33" y1="958.996" x2="1582.34" y2="0.000478467" gradientUnits="userSpaceOnUse">
<stop stop-color="#192B4A" stop-opacity="0"/>
<stop offset="0.5" stop-color="#192B4A" stop-opacity="0.25"/>
<stop offset="1" stop-color="#192B4A" stop-opacity="0"/>
</linearGradient>
<linearGradient id="paint61_linear" x1="1594.63" y1="958.996" x2="1594.64" y2="0.000478467" gradientUnits="userSpaceOnUse">
<stop stop-color="#192B4A" stop-opacity="0"/>
<stop offset="0.5" stop-color="#192B4A" stop-opacity="0.25"/>
<stop offset="1" stop-color="#192B4A" stop-opacity="0"/>
</linearGradient>
<linearGradient id="paint62_linear" x1="1606.38" y1="958.996" x2="1606.39" y2="0.000478437" gradientUnits="userSpaceOnUse">
<stop stop-color="#192B4A" stop-opacity="0"/>
<stop offset="0.5" stop-color="#192B4A" stop-opacity="0.25"/>
<stop offset="1" stop-color="#192B4A" stop-opacity="0"/>
</linearGradient>
<linearGradient id="paint63_linear" x1="1618.54" y1="958.996" x2="1618.55" y2="0.000478467" gradientUnits="userSpaceOnUse">
<stop stop-color="#192B4A" stop-opacity="0"/>
<stop offset="0.5" stop-color="#192B4A" stop-opacity="0.25"/>
<stop offset="1" stop-color="#192B4A" stop-opacity="0"/>
</linearGradient>
<linearGradient id="paint64_linear" x1="1630.84" y1="958.996" x2="1630.85" y2="0.000478467" gradientUnits="userSpaceOnUse">
<stop stop-color="#192B4A" stop-opacity="0"/>
<stop offset="0.5" stop-color="#192B4A" stop-opacity="0.25"/>
<stop offset="1" stop-color="#192B4A" stop-opacity="0"/>
</linearGradient>
<linearGradient id="paint65_linear" x1="1642.83" y1="958.996" x2="1642.84" y2="0.000478437" gradientUnits="userSpaceOnUse">
<stop stop-color="#192B4A" stop-opacity="0"/>
<stop offset="0.5" stop-color="#192B4A" stop-opacity="0.25"/>
<stop offset="1" stop-color="#192B4A" stop-opacity="0"/>
</linearGradient>
<linearGradient id="paint66_linear" x1="1655" y1="958.996" x2="1655.01" y2="0.000478467" gradientUnits="userSpaceOnUse">
<stop stop-color="#192B4A" stop-opacity="0"/>
<stop offset="0.5" stop-color="#192B4A" stop-opacity="0.25"/>
<stop offset="1" stop-color="#192B4A" stop-opacity="0"/>
</linearGradient>
<linearGradient id="paint67_linear" x1="1667.3" y1="958.996" x2="1667.31" y2="0.000478467" gradientUnits="userSpaceOnUse">
<stop stop-color="#192B4A" stop-opacity="0"/>
<stop offset="0.5" stop-color="#192B4A" stop-opacity="0.25"/>
<stop offset="1" stop-color="#192B4A" stop-opacity="0"/>
</linearGradient>
<linearGradient id="paint68_linear" x1="1679.05" y1="958.996" x2="1679.06" y2="0.000478437" gradientUnits="userSpaceOnUse">
<stop stop-color="#192B4A" stop-opacity="0"/>
<stop offset="0.5" stop-color="#192B4A" stop-opacity="0.25"/>
<stop offset="1" stop-color="#192B4A" stop-opacity="0"/>
</linearGradient>
<linearGradient id="paint69_linear" x1="1691.21" y1="958.996" x2="1691.22" y2="0.000478467" gradientUnits="userSpaceOnUse">
<stop stop-color="#192B4A" stop-opacity="0"/>
<stop offset="0.5" stop-color="#192B4A" stop-opacity="0.25"/>
<stop offset="1" stop-color="#192B4A" stop-opacity="0"/>
</linearGradient>
<linearGradient id="paint70_linear" x1="1703.51" y1="958.996" x2="1703.52" y2="0.000478467" gradientUnits="userSpaceOnUse">
<stop stop-color="#192B4A" stop-opacity="0"/>
<stop offset="0.5" stop-color="#192B4A" stop-opacity="0.25"/>
<stop offset="1" stop-color="#192B4A" stop-opacity="0"/>
</linearGradient>
<linearGradient id="paint71_linear" x1="1920" y1="453.225" x2="1497.67" y2="453.225" gradientUnits="userSpaceOnUse">
<stop stop-color="white"/>
<stop offset="1" stop-color="white" stop-opacity="0"/>
</linearGradient>
<clipPath id="clip0">
<rect width="1920" height="960" fill="white"/>
</clipPath>
</defs>
</svg>
