<svg width="19" height="19" viewBox="0 0 19 19" fill="none" xmlns="http://www.w3.org/2000/svg">
<path fill-rule="evenodd" clip-rule="evenodd" d="M9.33252 0.078125C9.13361 0.078125 8.94284 0.157143 8.80219 0.297795C8.66154 0.438447 8.58252 0.629213 8.58252 0.828125V9.16146C8.58252 9.57567 8.91831 9.91146 9.33252 9.91146H17.6659C18.0801 9.91146 18.4159 9.57567 18.4159 9.16146C18.4159 7.96862 18.1809 6.78746 17.7244 5.68542C17.2679 4.58338 16.5989 3.58204 15.7554 2.73857C14.9119 1.89511 13.9106 1.22603 12.8086 0.769553C11.7065 0.313072 10.5254 0.078125 9.33252 0.078125ZM10.0825 8.41146V1.6153C10.8211 1.68871 11.5463 1.8703 12.2345 2.15537C13.1546 2.53647 13.9906 3.09505 14.6947 3.79923C15.3989 4.50341 15.9575 5.33939 16.3386 6.25944C16.6237 6.94767 16.8053 7.67287 16.8787 8.41146H10.0825ZM6.29933 2.20717C6.67897 2.04151 6.85243 1.59945 6.68676 1.21981C6.52109 0.840165 6.07903 0.666707 5.69939 0.832376C4.33951 1.42581 3.1457 2.34333 2.22233 3.50472C1.29896 4.66611 0.674157 6.03602 0.402533 7.49467C0.130908 8.95332 0.220737 10.4563 0.664166 11.8722C1.1076 13.2881 1.89112 14.5739 2.94625 15.617C4.00137 16.6602 5.29597 17.4289 6.71686 17.8562C8.13774 18.2834 9.64165 18.3561 11.0971 18.0678C12.5526 17.7795 13.9152 17.1391 15.066 16.2026C16.2168 15.266 17.1206 14.0618 17.6985 12.6952C17.8598 12.3137 17.6813 11.8737 17.2998 11.7123C16.9183 11.551 16.4782 11.7295 16.3169 12.111C15.8345 13.2519 15.0799 14.2573 14.1192 15.0392C13.1584 15.8211 12.0208 16.3557 10.8057 16.5964C9.59057 16.837 8.33502 16.7764 7.14877 16.4197C5.96253 16.063 4.88172 15.4212 4.00084 14.5503C3.11995 13.6794 2.46581 12.606 2.09561 11.4239C1.72541 10.2418 1.65041 8.98705 1.87718 7.76927C2.10395 6.5515 2.62558 5.40782 3.39646 4.43821C4.16735 3.46861 5.16401 2.70261 6.29933 2.20717Z" fill="#6980A6"/>
</svg>
