            <svg
              width="37"
              height="37"
              viewBox="0 0 37 37"
              fill="none"
              xmlns="http://www.w3.org/2000/svg"
            >
              <path
                fill-rule="evenodd"
                clip-rule="evenodd"
                d="M17.2093 19.7907V2.58139C16.6328 2.58139 16.0585 2.61035 15.4884 2.66765C12.6928 2.94861 9.99903 3.911 7.64833 5.48168C4.81828 7.37267 2.61252 10.0604 1.30999 13.205C0.00745652 16.3496 -0.333345 19.8098 0.33068 23.1481C0.994704 26.4863 2.63373 29.5527 5.0405 31.9595C7.44726 34.3663 10.5137 36.0053 13.8519 36.6693C17.1902 37.3333 20.6504 36.9925 23.795 35.69C26.9396 34.3875 29.6273 32.1817 31.5183 29.3517C33.089 27.001 34.0514 24.3072 34.3324 21.5116C34.3897 20.9415 34.4186 20.3672 34.4186 19.7907H17.2093ZM32.6018 21.5116H17.2093C16.7529 21.5116 16.3152 21.3303 15.9924 21.0076C15.6697 20.6848 15.4884 20.2471 15.4884 19.7907V4.39822C13.0339 4.67263 10.6718 5.53122 8.60443 6.91259C6.05738 8.61447 4.0722 11.0334 2.89992 13.8636C1.72764 16.6937 1.42092 19.8079 2.01854 22.8123C2.61616 25.8168 4.09129 28.5765 6.25738 30.7426C8.42346 32.9087 11.1832 34.3838 14.1877 34.9815C17.1921 35.5791 20.3063 35.2724 23.1365 34.1001C25.9666 32.9278 28.3855 30.9426 30.0874 28.3956C31.4688 26.3282 32.3274 23.9661 32.6018 21.5116Z"
                fill="white"
              />
              <path
                fill-rule="evenodd"
                clip-rule="evenodd"
                d="M35.1832 15.4884C35.0218 14.0452 34.658 12.629 34.1001 11.2822C33.3217 9.40302 32.1809 7.6956 30.7426 6.25737C29.3044 4.81914 27.597 3.67827 25.7178 2.89991C24.371 2.34202 22.9548 1.97818 21.5116 1.81683V15.4884H35.1832ZM36.9137 15.4884C36.9711 16.0592 37 16.6335 37 17.2093H19.7907V0C20.3665 0 20.9408 0.028894 21.5116 0.0862617C23.1812 0.254063 24.8204 0.665475 26.3764 1.30998C28.4643 2.17483 30.3615 3.44246 31.9595 5.04049C33.5575 6.63852 34.8252 8.53566 35.69 10.6236C36.3345 12.1796 36.7459 13.8188 36.9137 15.4884Z"
                fill="white"
              />
            </svg>