<svg width="34" height="35" viewBox="0 0 34 35" fill="none" xmlns="http://www.w3.org/2000/svg">
<path d="M14.0002 25.6666C20.4435 25.6666 25.6668 20.4432 25.6668 13.9999C25.6668 7.5566 20.4435 2.33325 14.0002 2.33325C7.55684 2.33325 2.3335 7.5566 2.3335 13.9999C2.3335 20.4432 7.55684 25.6666 14.0002 25.6666Z" stroke="white" stroke-width="2" stroke-linecap="round" stroke-linejoin="round"/>
<path d="M14 7V14L18.6667 16.3333" stroke="white" stroke-width="2" stroke-linecap="round" stroke-linejoin="round"/>
<circle cx="22.7303" cy="23.7303" r="9.99876" fill="#F87584" stroke="#0E1F3B" stroke-width="1.46304"/>
<path d="M23.7342 25.1586L23.996 19.2664H21.9927L22.2677 25.1586H23.7342ZM23.0009 28.1309C23.577 28.1309 24.0615 27.6465 24.0615 27.0834C24.0615 26.5073 23.577 26.0228 23.0009 26.0228C22.4248 26.0228 21.9534 26.5073 21.9534 27.0834C21.9534 27.6465 22.4248 28.1309 23.0009 28.1309Z" fill="#F0F0F0"/>
</svg>
