<svg width="11" height="12" viewBox="0 0 11 12" fill="none" xmlns="http://www.w3.org/2000/svg">
<path fill-rule="evenodd" clip-rule="evenodd" d="M10.6609 2.22168C10.9407 1.94187 10.9407 1.4882 10.6609 1.20839C10.3811 0.928582 9.92745 0.928582 9.64764 1.20839L5.85528 5.00075L2.06292 1.20839C1.78311 0.928582 1.32945 0.928582 1.04964 1.20839C0.76983 1.4882 0.76983 1.94187 1.04964 2.22168L4.842 6.01404L1.04964 9.80639C0.76983 10.0862 0.76983 10.5399 1.04964 10.8197C1.32945 11.0995 1.78311 11.0995 2.06292 10.8197L5.85528 7.02732L9.64764 10.8197C9.92745 11.0995 10.3811 11.0995 10.6609 10.8197C10.9407 10.5399 10.9407 10.0862 10.6609 9.80639L6.86857 6.01404L10.6609 2.22168Z" fill="white"/>
</svg>
