<svg width="19" height="19" viewBox="0 0 19 19" fill="none" xmlns="http://www.w3.org/2000/svg">
  <circle cx="9.5" cy="9.5" r="9.5" fill="#253859"/>
  <path fill-rule="evenodd" clip-rule="evenodd" d="M13.312 6.50817C13.5393 6.28088 13.5393 5.91239 13.312 5.68511C13.0847 5.45783 12.7162 5.45783 12.4889 5.68511L9.4983 8.67574L6.50768 5.68511C6.2804 5.45783 5.9119 5.45783 5.68462 5.68511C5.45734 5.91239 5.45734 6.28088 5.68462 6.50817L8.67525 9.49879L5.68462 12.4894C5.45734 12.7167 5.45734 13.0852 5.68462 13.3125C5.9119 13.5398 6.2804 13.5398 6.50768 13.3125L9.4983 10.3218L12.4889 13.3125C12.7162 13.5398 13.0847 13.5398 13.312 13.3125C13.5393 13.0852 13.5393 12.7167 13.312 12.4894L10.3214 9.49879L13.312 6.50817Z" fill="white"/>
</svg>
