<svg width="33" height="16" viewBox="0 0 33 16" fill="none" xmlns="http://www.w3.org/2000/svg">
  <path fill-rule="evenodd" clip-rule="evenodd" d="M7.49108 1.74085C7.76216 1.42766 7.72802 0.954013 7.41483 0.682932C7.10164 0.41185 6.628 0.445986 6.35692 0.759176L0.514463 7.50918C0.27057 7.79095 0.27057 8.20907 0.514462 8.49085L6.35692 15.2408C6.628 15.554 7.10164 15.5882 7.41483 15.3171C7.72802 15.046 7.76216 14.5724 7.49108 14.2592L2.07347 8.00001L7.49108 1.74085ZM14.236 1.25001C13.8218 1.25001 13.486 1.5858 13.486 2.00001C13.486 2.41423 13.8218 2.75001 14.236 2.75001H32.236C32.6502 2.75001 32.986 2.41423 32.986 2.00001C32.986 1.5858 32.6502 1.25001 32.236 1.25001H14.236ZM14.236 7.25001C13.8218 7.25001 13.486 7.5858 13.486 8.00001C13.486 8.41423 13.8218 8.75001 14.236 8.75001H27.236C27.6502 8.75001 27.986 8.41423 27.986 8.00001C27.986 7.5858 27.6502 7.25001 27.236 7.25001H14.236ZM13.486 14C13.486 13.5858 13.8218 13.25 14.236 13.25H32.236C32.6502 13.25 32.986 13.5858 32.986 14C32.986 14.4142 32.6502 14.75 32.236 14.75H14.236C13.8218 14.75 13.486 14.4142 13.486 14Z" fill="white"/>
</svg>
