<svg width="14" height="14" viewBox="0 0 14 14" fill="none" xmlns="http://www.w3.org/2000/svg">
  <path d="M9.83889 1.83498C9.99068 1.68319 10.1709 1.56278 10.3692 1.48063C10.5675 1.39848 10.7801 1.3562 10.9948 1.3562C11.2094 1.3562 11.422 1.39848 11.6203 1.48063C11.8186 1.56278 11.9988 1.68319 12.1506 1.83498C12.3024 1.98677 12.4228 2.16697 12.505 2.36529C12.5871 2.56361 12.6294 2.77617 12.6294 2.99084C12.6294 3.2055 12.5871 3.41806 12.505 3.61639C12.4228 3.81471 12.3024 3.99491 12.1506 4.1467L4.34854 11.9488L1.16992 12.8157L2.03682 9.63705L9.83889 1.83498Z" stroke="#6980A6" stroke-width="1.35732" stroke-linecap="round" stroke-linejoin="round"/>
</svg>
