<svg width="11" height="3" viewBox="0 0 11 3" fill="none" xmlns="http://www.w3.org/2000/svg">
<path d="M1.8317 2.33236C2.3117 2.33236 2.7117 1.93236 2.7117 1.45236C2.7117 0.972363 2.3117 0.572363 1.8317 0.572363C1.3517 0.572363 0.951699 0.972363 0.951699 1.45236C0.951699 1.93236 1.3517 2.33236 1.8317 2.33236ZM5.5192 2.33236C5.9992 2.33236 6.3992 1.93236 6.3992 1.45236C6.3992 0.972363 5.9992 0.572363 5.5192 0.572363C5.0392 0.572363 4.6392 0.972363 4.6392 1.45236C4.6392 1.93236 5.0392 2.33236 5.5192 2.33236ZM9.2067 2.33236C9.6867 2.33236 10.0867 1.93236 10.0867 1.45236C10.0867 0.972363 9.6867 0.572363 9.2067 0.572363C8.7267 0.572363 8.3267 0.972363 8.3267 1.45236C8.3267 1.93236 8.7267 2.33236 9.2067 2.33236Z" fill="#B2B9CC"/>
</svg>
