<svg width="112" height="112" viewBox="0 0 112 112" fill="none" xmlns="http://www.w3.org/2000/svg">
  <circle cx="56.0003" cy="55.7102" r="55.7102" fill="white" fill-opacity="0.03"/>
  <path fill-rule="evenodd" clip-rule="evenodd" d="M0.290039 16.5615C0.290039 15.1808 1.40933 14.0615 2.79004 14.0615H18.6161C19.8077 14.0615 20.8337 14.9025 21.0675 16.0709L24.6248 33.8442H70.1858C71.5665 33.8442 72.6858 34.9634 72.6858 36.3442C72.6858 37.7249 71.5665 38.8442 70.1858 38.8442H25.6256L31.671 69.0488L31.6717 69.0524C31.9192 70.2984 32.5971 71.4178 33.5867 72.2144C34.5763 73.011 35.8146 73.4342 37.0848 73.4099C37.0957 73.4097 37.1066 73.4095 37.1174 73.4095C37.1225 73.4094 37.1276 73.4094 37.1327 73.4094H75.5901C75.6061 73.4094 75.6221 73.4096 75.638 73.4099C76.9082 73.4342 78.1465 73.011 79.1361 72.2144C80.1257 71.4178 80.8036 70.2985 81.0511 69.0524C81.0548 69.0337 81.0587 69.0151 81.0628 68.9965L81.0705 68.9631L84.3546 55.1004C84.6729 53.7569 86.0201 52.9258 87.3636 53.2441C88.7071 53.5624 89.5383 54.9095 89.22 56.253L85.9457 70.0743C85.4618 72.4522 84.1625 74.587 82.2714 76.1092C80.3744 77.6364 78.0023 78.4501 75.5678 78.4094H37.1551C34.7206 78.4501 32.3485 77.6364 30.4514 76.1092C28.5484 74.5773 27.2446 72.4251 26.768 70.029L26.7675 70.0265L20.1501 36.9639C20.1289 36.8807 20.1118 36.7959 20.0992 36.7097L16.5669 19.0615H2.79004C1.40933 19.0615 0.290039 17.9422 0.290039 16.5615ZM35.9108 87.6939C35.9108 86.7254 36.696 85.9402 37.6645 85.9402C38.633 85.9402 39.4181 86.7254 39.4181 87.6939C39.4181 88.6624 38.633 89.4475 37.6645 89.4475C36.696 89.4475 35.9108 88.6624 35.9108 87.6939ZM37.6645 83.0902C35.122 83.0902 33.0608 85.1513 33.0608 87.6939C33.0608 90.2364 35.122 92.2975 37.6645 92.2975C40.207 92.2975 42.2681 90.2364 42.2681 87.6939C42.2681 85.1513 40.207 83.0902 37.6645 83.0902ZM72.2102 87.6939C72.2102 86.7254 72.9953 85.9402 73.9638 85.9402C74.9323 85.9402 75.7174 86.7254 75.7174 87.6939C75.7174 88.6624 74.9323 89.4475 73.9638 89.4475C72.9953 89.4475 72.2102 88.6624 72.2102 87.6939ZM73.9638 83.0902C71.4213 83.0902 69.3602 85.1513 69.3602 87.6939C69.3602 90.2364 71.4213 92.2975 73.9638 92.2975C76.5063 92.2975 78.5674 90.2364 78.5674 87.6939C78.5674 85.1513 76.5063 83.0902 73.9638 83.0902ZM79.4034 38.2383C79.4034 34.1493 82.7182 30.8346 86.8071 30.8346C90.8961 30.8346 94.2108 34.1493 94.2108 38.2383C94.2108 42.3272 90.8961 45.642 86.8071 45.642C82.7182 45.642 79.4034 42.3272 79.4034 38.2383ZM86.8071 27.9846C81.1442 27.9846 76.5534 32.5753 76.5534 38.2383C76.5534 43.9013 81.1442 48.492 86.8071 48.492C92.4701 48.492 97.0609 43.9013 97.0609 38.2383C97.0609 32.5753 92.4701 27.9846 86.8071 27.9846Z" fill="url(#paint0_linear)"/>
  <path d="M50.7698 49.7754H50.7907" stroke="white" stroke-width="4.87586" stroke-linecap="round" stroke-linejoin="round"/>
  <path d="M63.6577 49.7754H63.6786" stroke="white" stroke-width="4.87586" stroke-linecap="round" stroke-linejoin="round"/>
  <line x1="49.585" y1="61.9219" x2="64.8638" y2="61.9219" stroke="white" stroke-width="3" stroke-linecap="round" stroke-linejoin="round"/>
  <path d="M83.5161 37.9095C83.5161 39.96 84.5294 42.0224 86.8064 42.0224C89.0714 42.0224 90.0967 39.96 90.0967 37.9095C90.0967 35.8591 89.0714 33.8086 86.8064 33.8086C84.5294 33.8086 83.5161 35.8591 83.5161 37.9095ZM88.3681 37.9095C88.3681 39.3758 87.9389 40.5203 86.8064 40.5203C85.6619 40.5203 85.2328 39.3758 85.2328 37.9095C85.2328 36.4432 85.6619 35.3107 86.8064 35.3107C87.9389 35.3107 88.3681 36.4432 88.3681 37.9095Z" fill="white"/>
  <defs>
    <linearGradient id="paint0_linear" x1="49.0374" y1="14.0615" x2="49.0374" y2="91.2957" gradientUnits="userSpaceOnUse">
      <stop stop-color="#015CFF"/>
      <stop offset="1" stop-color="#0FD4FF"/>
    </linearGradient>
  </defs>
</svg>
