<svg width="19" height="31" viewBox="0 0 19 31" fill="none" xmlns="http://www.w3.org/2000/svg">
<path fill-rule="evenodd" clip-rule="evenodd" d="M10.9741 1.86891C10.9741 1.31663 10.5264 0.868912 9.97412 0.868912C9.42184 0.868912 8.97412 1.31663 8.97412 1.86891V5.86891H6.64079C5.14939 5.86891 3.71209 6.43987 2.64682 7.46709C1.58032 8.4955 0.974121 9.89824 0.974121 11.3689C0.974121 12.8396 1.58032 14.2423 2.64682 15.2707C3.71209 16.298 5.14939 16.8689 6.64079 16.8689H8.97412V23.8689H1.97412C1.42184 23.8689 0.974121 24.3166 0.974121 24.8689C0.974121 25.4212 1.42184 25.8689 1.97412 25.8689H8.97412V29.8689C8.97412 30.4212 9.42184 30.8689 9.97412 30.8689C10.5264 30.8689 10.9741 30.4212 10.9741 29.8689V25.8689H13.3075C14.7989 25.8689 16.2362 25.298 17.3014 24.2707C18.3679 23.2423 18.9741 21.8396 18.9741 20.3689C18.9741 18.8982 18.3679 17.4955 17.3014 16.4671C16.2362 15.4399 14.7989 14.8689 13.3075 14.8689H10.9741V7.86891H16.6408C17.1931 7.86891 17.6408 7.4212 17.6408 6.86891C17.6408 6.31663 17.1931 5.86891 16.6408 5.86891H10.9741V1.86891ZM8.97412 7.86891H6.64079C5.65683 7.86891 4.72017 8.24617 4.03509 8.90678C3.35125 9.56619 2.97412 10.4526 2.97412 11.3689C2.97412 12.2852 3.35125 13.1716 4.03509 13.831C4.72017 14.4917 5.65683 14.8689 6.64079 14.8689H8.97412V7.86891ZM10.9741 16.8689V23.8689H13.3075C14.2914 23.8689 15.2281 23.4917 15.9132 22.831C16.597 22.1716 16.9741 21.2852 16.9741 20.3689C16.9741 19.4526 16.597 18.5662 15.9132 17.9068C15.2281 17.2462 14.2914 16.8689 13.3075 16.8689H10.9741Z" fill="#015CFF"/>
</svg>
