<svg width="16" height="17"  viewBox="0 0 16 15" fill="none" xmlns="http://www.w3.org/2000/svg">
<path fill-rule="evenodd" clip-rule="evenodd" d="M7.99998 1.66138C4.73229 1.66138 2.08331 4.31036 2.08331 7.57804C2.08331 10.8457 4.73229 13.4947 7.99998 13.4947C11.2677 13.4947 13.9166 10.8457 13.9166 7.57804C13.9166 4.31036 11.2677 1.66138 7.99998 1.66138ZM0.583313 7.57804C0.583313 3.48193 3.90387 0.161377 7.99998 0.161377C12.0961 0.161377 15.4166 3.48193 15.4166 7.57804C15.4166 11.6742 12.0961 14.9947 7.99998 14.9947C3.90387 14.9947 0.583313 11.6742 0.583313 7.57804ZM7.25 4.91138C7.25 4.49716 7.58579 4.16138 8 4.16138H8.00667C8.42088 4.16138 8.75667 4.49716 8.75667 4.91138C8.75667 5.32559 8.42088 5.66138 8.00667 5.66138H8C7.58579 5.66138 7.25 5.32559 7.25 4.91138ZM8 6.828C8.41421 6.828 8.75 7.16379 8.75 7.578V10.2447C8.75 10.6589 8.41421 10.9947 8 10.9947C7.58579 10.9947 7.25 10.6589 7.25 10.2447V7.578C7.25 7.16379 7.58579 6.828 8 6.828Z" fill="#6980A6"/>
</svg>
