<svg width="19" height="19" viewBox="0 0 19 19" fill="none" xmlns="http://www.w3.org/2000/svg">
<path fill-rule="evenodd" clip-rule="evenodd" d="M9.33285 2.07812C5.14469 2.07812 1.74951 5.4733 1.74951 9.66146C1.74951 13.8496 5.14469 17.2448 9.33285 17.2448C13.521 17.2448 16.9162 13.8496 16.9162 9.66146C16.9162 5.4733 13.521 2.07812 9.33285 2.07812ZM0.249512 9.66146C0.249512 4.64487 4.31626 0.578125 9.33285 0.578125C14.3494 0.578125 18.4162 4.64487 18.4162 9.66146C18.4162 14.678 14.3494 18.7448 9.33285 18.7448C4.31626 18.7448 0.249512 14.678 0.249512 9.66146ZM9.33301 5.4115C6.9858 5.4115 5.08301 7.31429 5.08301 9.6615C5.08301 12.0087 6.9858 13.9115 9.33301 13.9115C11.6802 13.9115 13.583 12.0087 13.583 9.6615C13.583 7.31429 11.6802 5.4115 9.33301 5.4115ZM3.58301 9.6615C3.58301 6.48586 6.15737 3.9115 9.33301 3.9115C12.5086 3.9115 15.083 6.48586 15.083 9.6615C15.083 12.8371 12.5086 15.4115 9.33301 15.4115C6.15737 15.4115 3.58301 12.8371 3.58301 9.6615ZM8.4165 9.66154C8.4165 9.15528 8.82691 8.74487 9.33317 8.74487C9.83943 8.74487 10.2498 9.15528 10.2498 9.66154C10.2498 10.1678 9.83943 10.5782 9.33317 10.5782C8.82691 10.5782 8.4165 10.1678 8.4165 9.66154ZM9.33317 7.24487C7.99848 7.24487 6.9165 8.32685 6.9165 9.66154C6.9165 10.9962 7.99848 12.0782 9.33317 12.0782C10.6679 12.0782 11.7498 10.9962 11.7498 9.66154C11.7498 8.32685 10.6679 7.24487 9.33317 7.24487Z" fill="#6980A6"/>
</svg>
