<svg width="16" height="17" viewBox="0 0 16 17" fill="none" xmlns="http://www.w3.org/2000/svg">
<path fill-rule="evenodd" clip-rule="evenodd" d="M7.66634 0.5C5.41118 0.5 3.58301 2.32817 3.58301 4.58333C3.58301 6.8385 5.41118 8.66667 7.66634 8.66667C9.9215 8.66667 11.7497 6.8385 11.7497 4.58333C11.7497 2.32817 9.9215 0.5 7.66634 0.5ZM5.08301 4.58333C5.08301 3.1566 6.23961 2 7.66634 2C9.09308 2 10.2497 3.1566 10.2497 4.58333C10.2497 6.01007 9.09308 7.16667 7.66634 7.16667C6.23961 7.16667 5.08301 6.01007 5.08301 4.58333Z" fill="#6980A6"/>
<path d="M4.33333 10.5C3.25037 10.5 2.21175 10.9302 1.44598 11.696C0.680207 12.4618 0.25 13.5004 0.25 14.5833V16.25C0.25 16.6642 0.585786 17 1 17C1.41421 17 1.75 16.6642 1.75 16.25V14.5833C1.75 13.8982 2.02217 13.2411 2.50664 12.7566C2.99111 12.2722 3.64819 12 4.33333 12H11C11.6851 12 12.3422 12.2722 12.8267 12.7566C13.3112 13.2411 13.5833 13.8982 13.5833 14.5833V16.25C13.5833 16.6642 13.9191 17 14.3333 17C14.7475 17 15.0833 16.6642 15.0833 16.25V14.5833C15.0833 13.5004 14.6531 12.4618 13.8874 11.696C13.1216 10.9302 12.083 10.5 11 10.5H4.33333Z" fill="#6980A6"/>
</svg>
