<svg width="181" height="97" viewBox="0 0 181 97" fill="none" xmlns="http://www.w3.org/2000/svg">
<path d="M85.2968 49.9391L71.9367 28.7833L84.7172 8.06222C86.2531 5.56989 85.4707 2.32407 83.0073 0.788103C80.544 -0.747866 77.2692 0.0346088 75.7332 2.49796L61.2429 26.0012C60.1706 27.74 60.2576 29.8266 61.2139 31.4495C61.2719 31.5654 61.3009 31.6814 61.3878 31.7683L76.3997 55.5324C77.9647 57.9957 81.2105 58.7202 83.6739 57.1843C86.1372 55.6773 86.8617 52.4025 85.2968 49.9391Z" fill="white"/>
<path d="M118.175 31.7079C118.204 31.6789 118.204 31.621 118.233 31.592C118.378 31.3312 118.494 31.0993 118.61 30.8385C118.639 30.7516 118.668 30.6936 118.697 30.6067C118.784 30.3748 118.842 30.114 118.899 29.8532C118.928 29.7662 118.928 29.6793 118.928 29.5924C118.957 29.3315 118.986 29.0997 118.957 28.8389C118.957 28.7519 118.957 28.665 118.928 28.578C118.928 28.2882 118.899 28.0564 118.842 27.7956C118.813 27.7086 118.784 27.6217 118.755 27.5347C118.697 27.3029 118.61 27.071 118.523 26.8682C118.465 26.7523 118.407 26.6363 118.378 26.5204C118.32 26.3755 118.262 26.2306 118.175 26.0857L103.192 2.46656C101.627 0.00321232 98.3813 -0.721301 95.9179 0.814668C93.4546 2.37962 92.7011 5.65442 94.266 8.11777L107.452 28.9548L94.4979 49.9657C92.9619 52.458 93.7444 55.7038 96.2077 57.2398C98.7001 58.7758 101.946 57.9933 103.482 55.5299L118.001 31.9688C118.03 31.9398 118.059 31.8818 118.059 31.8528L118.175 31.7079Z" fill="#015CFF"/>
<path d="M83.8378 19.8243C86.3012 18.2883 89.576 19.0128 91.1119 21.4761L97.1689 31.0687C98.7338 33.5321 97.9803 36.8069 95.517 38.3428C93.0536 39.9078 89.7788 39.1543 88.2429 36.6909L82.2149 27.1274C80.65 24.664 81.3745 21.3892 83.8378 19.8243Z" fill="#015CFF"/>
<path d="M3.98926 87.3203V92.2744H1.38232V78.7666H6.00244C6.73844 78.7666 7.40332 78.8748 7.99707 79.0913C8.59082 79.3016 9.09489 79.5985 9.50928 79.9819C9.92985 80.3592 10.2515 80.8138 10.4741 81.3457C10.703 81.8776 10.8174 82.4683 10.8174 83.1177C10.8174 83.7238 10.703 84.2835 10.4741 84.7969C10.2515 85.3102 9.92985 85.7555 9.50928 86.1328C9.09489 86.5039 8.59082 86.7946 7.99707 87.0049C7.40332 87.2152 6.73844 87.3203 6.00244 87.3203H3.98926ZM3.98926 85.2051H6.00244C6.37354 85.2051 6.69515 85.1494 6.96729 85.0381C7.23942 84.9268 7.46517 84.7752 7.64453 84.5835C7.83008 84.3918 7.96615 84.1722 8.05273 83.9248C8.14551 83.6712 8.19189 83.4084 8.19189 83.1362C8.19189 82.8208 8.14551 82.527 8.05273 82.2549C7.96615 81.9827 7.83008 81.7446 7.64453 81.5405C7.46517 81.3364 7.23942 81.1756 6.96729 81.0581C6.69515 80.9406 6.37354 80.8818 6.00244 80.8818H3.98926V85.2051ZM21.0095 87.2275H19.0334V92.2744H16.4265V78.7666H20.9538C21.7022 78.7666 22.3794 78.8563 22.9855 79.0356C23.5917 79.2088 24.1081 79.4655 24.5349 79.8057C24.9678 80.1458 25.2987 80.5695 25.5275 81.0767C25.7626 81.5838 25.8801 82.1714 25.8801 82.8394C25.8801 83.3218 25.8213 83.7578 25.7038 84.1475C25.5925 84.5309 25.4286 84.8773 25.2121 85.1865C25.0018 85.4896 24.7451 85.7555 24.4421 85.9844C24.1452 86.2132 23.8112 86.4111 23.4401 86.5781L26.3439 92.1538V92.2744H23.5515L21.0095 87.2275ZM19.0334 85.1123H20.9631C21.6991 85.1123 22.265 84.9268 22.6608 84.5557C23.0629 84.1784 23.2639 83.665 23.2639 83.0156C23.2639 82.3415 23.069 81.8188 22.6794 81.4478C22.2897 81.0705 21.7146 80.8818 20.9538 80.8818H19.0334V85.1123ZM41.0634 86.5132C41.0634 87.3791 40.949 88.1769 40.7201 88.9067C40.4913 89.6366 40.1604 90.2643 39.7274 90.79C39.2945 91.3158 38.7657 91.7271 38.141 92.0239C37.5225 92.3146 36.8236 92.46 36.0443 92.46C35.265 92.46 34.5723 92.3146 33.9662 92.0239C33.3601 91.7271 32.8498 91.3158 32.4354 90.79C32.0211 90.2581 31.7056 89.6304 31.4892 88.9067C31.2727 88.1769 31.1645 87.3791 31.1645 86.5132V84.5464C31.1645 83.6805 31.2727 82.8826 31.4892 82.1528C31.7056 81.423 32.0211 80.7952 32.4354 80.2695C32.8498 79.7376 33.357 79.3232 33.9569 79.0264C34.5631 78.7295 35.2558 78.5811 36.0351 78.5811C36.8205 78.5811 37.5225 78.7295 38.141 79.0264C38.7657 79.3232 39.2945 79.7376 39.7274 80.2695C40.1604 80.7952 40.4913 81.423 40.7201 82.1528C40.949 82.8826 41.0634 83.6805 41.0634 84.5464V86.5132ZM38.4193 84.5278C38.4193 83.9774 38.3729 83.4702 38.2802 83.0063C38.1936 82.5425 38.0544 82.1436 37.8627 81.8096C37.671 81.4756 37.4236 81.2158 37.1205 81.0303C36.8236 80.8385 36.4618 80.7427 36.0351 80.7427C35.6145 80.7427 35.2619 80.8385 34.9774 81.0303C34.6929 81.2158 34.4641 81.4756 34.2909 81.8096C34.1177 82.1436 33.994 82.5425 33.9198 83.0063C33.8456 83.4702 33.8085 83.9774 33.8085 84.5278V86.5132C33.8085 87.0575 33.8456 87.5615 33.9198 88.0254C33.994 88.4893 34.1177 88.8913 34.2909 89.2314C34.4641 89.5716 34.6929 89.8376 34.9774 90.0293C35.2619 90.221 35.6176 90.3169 36.0443 90.3169C36.4649 90.3169 36.8236 90.221 37.1205 90.0293C37.4236 89.8376 37.6679 89.5747 37.8534 89.2407C38.0452 88.9006 38.1874 88.4985 38.2802 88.0347C38.3729 87.5708 38.4193 87.0636 38.4193 86.5132V84.5278ZM56.2281 88.0439C56.1848 88.7243 56.0364 89.3366 55.7828 89.8809C55.5354 90.4251 55.2014 90.889 54.7809 91.2725C54.3603 91.6559 53.8593 91.9528 53.2779 92.1631C52.6966 92.3672 52.0533 92.4692 51.3482 92.4692C50.5504 92.4692 49.8422 92.3239 49.2237 92.0332C48.6052 91.7363 48.0857 91.325 47.6651 90.7993C47.2446 90.2674 46.923 89.6304 46.7003 88.8882C46.4776 88.146 46.3663 87.3296 46.3663 86.439V84.6206C46.3663 83.7238 46.4838 82.9043 46.7188 82.1621C46.9539 81.4199 47.2879 80.7829 47.7208 80.251C48.1537 79.7191 48.6764 79.3078 49.2887 79.0171C49.9072 78.7202 50.5999 78.5718 51.3668 78.5718C52.109 78.5718 52.7677 78.6769 53.3429 78.8872C53.9243 79.0975 54.419 79.3975 54.8272 79.7871C55.2355 80.1768 55.5571 80.653 55.7921 81.2158C56.0271 81.7786 56.1756 82.4126 56.2374 83.1177H53.6397C53.615 82.7157 53.5532 82.3631 53.4542 82.0601C53.3614 81.757 53.2223 81.5065 53.0367 81.3086C52.8574 81.1045 52.6285 80.953 52.3502 80.854C52.0781 80.7489 51.7503 80.6963 51.3668 80.6963C50.9648 80.6963 50.6153 80.7829 50.3185 80.9561C50.0216 81.1292 49.7742 81.3828 49.5763 81.7168C49.3845 82.0508 49.2423 82.4621 49.1495 82.9507C49.0567 83.4331 49.0104 83.9836 49.0104 84.6021V86.439C49.0104 87.7687 49.1959 88.7521 49.567 89.3892C49.9443 90.0262 50.538 90.3447 51.3482 90.3447C52.0286 90.3447 52.5667 90.1654 52.9625 89.8066C53.3583 89.4417 53.5779 88.8542 53.6212 88.0439H56.2281ZM70.3724 86.3555H64.8245V90.1685H71.3094V92.2744H62.2083V78.7666H71.2815V80.8911H64.8245V84.2959H70.3724V86.3555ZM84.2847 88.749C84.2847 88.5078 84.2414 88.2821 84.1548 88.0718C84.0744 87.8615 83.9321 87.6667 83.728 87.4873C83.5301 87.3018 83.2673 87.1348 82.9395 86.9863C82.6178 86.8317 82.2158 86.6895 81.7334 86.5596C81.1458 86.3988 80.583 86.1978 80.0449 85.9565C79.513 85.7153 79.043 85.4246 78.6348 85.0845C78.2266 84.7443 77.8988 84.3485 77.6514 83.897C77.4102 83.4455 77.2896 82.9259 77.2896 82.3384C77.2896 81.7694 77.4102 81.2529 77.6514 80.7891C77.8926 80.3252 78.2266 79.9294 78.6533 79.6016C79.0801 79.2738 79.5841 79.0233 80.1655 78.8501C80.7469 78.6707 81.3778 78.5811 82.0581 78.5811C82.7632 78.5811 83.4064 78.6831 83.9878 78.8872C84.5754 79.0913 85.0794 79.3789 85.5 79.75C85.9206 80.1149 86.2484 80.5509 86.4834 81.0581C86.7184 81.5653 86.8359 82.1219 86.8359 82.728H84.2939C84.2816 82.425 84.2259 82.1466 84.127 81.8931C84.0342 81.6395 83.8919 81.423 83.7002 81.2437C83.5146 81.0581 83.2796 80.9159 82.9951 80.8169C82.7168 80.7118 82.389 80.6592 82.0117 80.6592C81.6654 80.6592 81.3561 80.7025 81.084 80.7891C80.818 80.8695 80.5923 80.987 80.4067 81.1416C80.2212 81.29 80.0789 81.4694 79.98 81.6797C79.8872 81.8838 79.8408 82.1064 79.8408 82.3477C79.8408 82.6012 79.9027 82.8301 80.0264 83.0342C80.1562 83.2383 80.3418 83.4238 80.583 83.5908C80.8242 83.7516 81.1149 83.9001 81.4551 84.0361C81.8014 84.1722 82.1911 84.299 82.624 84.4165C83.2425 84.5959 83.8115 84.8154 84.3311 85.0752C84.8506 85.335 85.2959 85.6442 85.667 86.0029C86.0443 86.3555 86.335 86.7606 86.5391 87.2183C86.7493 87.6698 86.8545 88.1738 86.8545 88.7305C86.8545 89.3242 86.7339 89.853 86.4927 90.3169C86.2576 90.7746 85.9299 91.1642 85.5093 91.4858C85.0887 91.8013 84.5877 92.0425 84.0063 92.2095C83.425 92.3703 82.791 92.4507 82.1045 92.4507C81.6777 92.4507 81.251 92.4105 80.8242 92.3301C80.4036 92.2559 79.9985 92.1383 79.6089 91.9775C79.2254 91.8167 78.8667 91.6157 78.5327 91.3745C78.1987 91.1333 77.908 90.8519 77.6606 90.5303C77.4194 90.2087 77.2277 89.8438 77.0854 89.4355C76.9494 89.0273 76.8813 88.5758 76.8813 88.0811H79.4419C79.4543 88.4893 79.5254 88.8387 79.6553 89.1294C79.7852 89.4201 79.9645 89.6582 80.1934 89.8438C80.4284 90.0293 80.7067 90.1654 81.0283 90.252C81.3561 90.3385 81.7148 90.3818 82.1045 90.3818C82.4508 90.3818 82.757 90.3416 83.0229 90.2612C83.2951 90.1808 83.5239 90.0695 83.7095 89.9272C83.895 89.785 84.0373 89.6149 84.1362 89.417C84.2352 89.2129 84.2847 88.9902 84.2847 88.749ZM99.4958 88.749C99.4958 88.5078 99.4525 88.2821 99.3659 88.0718C99.2855 87.8615 99.1433 87.6667 98.9392 87.4873C98.7412 87.3018 98.4784 87.1348 98.1506 86.9863C97.829 86.8317 97.427 86.6895 96.9445 86.5596C96.357 86.3988 95.7941 86.1978 95.2561 85.9565C94.7242 85.7153 94.2541 85.4246 93.8459 85.0845C93.4377 84.7443 93.1099 84.3485 92.8625 83.897C92.6213 83.4455 92.5007 82.9259 92.5007 82.3384C92.5007 81.7694 92.6213 81.2529 92.8625 80.7891C93.1037 80.3252 93.4377 79.9294 93.8645 79.6016C94.2912 79.2738 94.7953 79.0233 95.3767 78.8501C95.958 78.6707 96.5889 78.5811 97.2692 78.5811C97.9743 78.5811 98.6175 78.6831 99.1989 78.8872C99.7865 79.0913 100.291 79.3789 100.711 79.75C101.132 80.1149 101.46 80.5509 101.695 81.0581C101.93 81.5653 102.047 82.1219 102.047 82.728H99.5051C99.4927 82.425 99.437 82.1466 99.3381 81.8931C99.2453 81.6395 99.1031 81.423 98.9113 81.2437C98.7258 81.0581 98.4908 80.9159 98.2063 80.8169C97.9279 80.7118 97.6001 80.6592 97.2229 80.6592C96.8765 80.6592 96.5673 80.7025 96.2951 80.7891C96.0292 80.8695 95.8034 80.987 95.6179 81.1416C95.4323 81.29 95.2901 81.4694 95.1911 81.6797C95.0983 81.8838 95.052 82.1064 95.052 82.3477C95.052 82.6012 95.1138 82.8301 95.2375 83.0342C95.3674 83.2383 95.5529 83.4238 95.7941 83.5908C96.0354 83.7516 96.326 83.9001 96.6662 84.0361C97.0126 84.1722 97.4022 84.299 97.8352 84.4165C98.4536 84.5959 99.0227 84.8154 99.5422 85.0752C100.062 85.335 100.507 85.6442 100.878 86.0029C101.255 86.3555 101.546 86.7606 101.75 87.2183C101.96 87.6698 102.066 88.1738 102.066 88.7305C102.066 89.3242 101.945 89.853 101.704 90.3169C101.469 90.7746 101.141 91.1642 100.72 91.4858C100.3 91.8013 99.7989 92.0425 99.2175 92.2095C98.6361 92.3703 98.0022 92.4507 97.3156 92.4507C96.8889 92.4507 96.4621 92.4105 96.0354 92.3301C95.6148 92.2559 95.2097 92.1383 94.82 91.9775C94.4366 91.8167 94.0778 91.6157 93.7439 91.3745C93.4099 91.1333 93.1192 90.8519 92.8718 90.5303C92.6306 90.2087 92.4388 89.8438 92.2966 89.4355C92.1605 89.0273 92.0925 88.5758 92.0925 88.0811H94.653C94.6654 88.4893 94.7365 88.8387 94.8664 89.1294C94.9963 89.4201 95.1757 89.6582 95.4045 89.8438C95.6395 90.0293 95.9178 90.1654 96.2395 90.252C96.5673 90.3385 96.926 90.3818 97.3156 90.3818C97.662 90.3818 97.9681 90.3416 98.2341 90.2612C98.5062 90.1808 98.7351 90.0695 98.9206 89.9272C99.1062 89.785 99.2484 89.6149 99.3474 89.417C99.4463 89.2129 99.4958 88.9902 99.4958 88.749ZM108.268 78.7666H116.08V80.8726H113.445V90.1777H116.08V92.2744H108.268V90.1777H110.838V80.8726H108.268V78.7666ZM131.811 92.2744H129.213L125.456 83.563V92.2744H122.83V78.7666H125.456L129.185 87.4409L129.194 78.7666H131.811V92.2744ZM147.402 90.6973C147.235 90.9014 147.006 91.1086 146.716 91.3188C146.425 91.5291 146.079 91.7209 145.677 91.894C145.281 92.061 144.835 92.1971 144.341 92.3022C143.846 92.4074 143.314 92.46 142.745 92.46C141.978 92.46 141.285 92.3239 140.667 92.0518C140.048 91.7796 139.519 91.3869 139.08 90.8735C138.641 90.3602 138.301 89.7324 138.06 88.9902C137.825 88.2419 137.707 87.3945 137.707 86.4482V84.6113C137.707 83.665 137.831 82.8208 138.078 82.0786C138.332 81.3302 138.678 80.6963 139.117 80.1768C139.563 79.6572 140.082 79.2614 140.676 78.9893C141.276 78.7171 141.925 78.5811 142.624 78.5811C143.385 78.5811 144.047 78.6769 144.61 78.8687C145.179 79.0604 145.658 79.3387 146.048 79.7036C146.437 80.0623 146.74 80.5015 146.957 81.021C147.179 81.5405 147.325 82.125 147.393 82.7744H144.851C144.764 82.0817 144.554 81.5622 144.22 81.2158C143.892 80.8633 143.382 80.687 142.689 80.687C142.355 80.687 142.046 80.7736 141.762 80.9468C141.477 81.1138 141.23 81.3612 141.019 81.689C140.809 82.0168 140.642 82.425 140.518 82.9136C140.395 83.396 140.333 83.9557 140.333 84.5928V86.4482C140.339 87.71 140.549 88.6779 140.964 89.3521C141.378 90.02 142.012 90.3571 142.866 90.3633C143.07 90.3633 143.271 90.3478 143.469 90.3169C143.666 90.286 143.852 90.2427 144.025 90.187C144.198 90.1313 144.35 90.0695 144.48 90.0015C144.616 89.9272 144.718 89.8499 144.786 89.7695L144.795 87.3203H142.559V85.3721H147.393L147.402 90.6973ZM156.026 90.7808C156.026 90.5396 156.067 90.3169 156.147 90.1128C156.227 89.9025 156.345 89.7231 156.5 89.5747C156.654 89.4201 156.843 89.2995 157.065 89.2129C157.288 89.1201 157.539 89.0737 157.817 89.0737C158.095 89.0737 158.346 89.1201 158.568 89.2129C158.791 89.2995 158.977 89.4201 159.125 89.5747C159.28 89.7231 159.397 89.9025 159.478 90.1128C159.564 90.3169 159.607 90.5396 159.607 90.7808C159.607 91.0158 159.564 91.2354 159.478 91.4395C159.397 91.6436 159.28 91.8229 159.125 91.9775C158.977 92.126 158.791 92.2435 158.568 92.3301C158.346 92.4167 158.095 92.46 157.817 92.46C157.539 92.46 157.288 92.4167 157.065 92.3301C156.843 92.2435 156.654 92.126 156.5 91.9775C156.345 91.8229 156.227 91.6436 156.147 91.4395C156.067 91.2354 156.026 91.0158 156.026 90.7808Z" fill="#015CFF"/>
</svg>
