<svg width="181" height="97" viewBox="0 0 181 97" fill="none" xmlns="http://www.w3.org/2000/svg">
<path d="M85.2968 49.9391L71.9367 28.7833L84.7172 8.06222C86.2531 5.56989 85.4707 2.32407 83.0073 0.788103C80.544 -0.747866 77.2692 0.0346088 75.7332 2.49796L61.2429 26.0012C60.1706 27.74 60.2576 29.8266 61.2139 31.4495C61.2719 31.5654 61.3009 31.6814 61.3878 31.7683L76.3997 55.5324C77.9647 57.9957 81.2105 58.7202 83.6739 57.1843C86.1372 55.6773 86.8617 52.4025 85.2968 49.9391Z" fill="white"/>
<path d="M118.175 31.7079C118.204 31.6789 118.204 31.621 118.233 31.592C118.378 31.3312 118.494 31.0993 118.61 30.8385C118.639 30.7516 118.668 30.6936 118.697 30.6067C118.784 30.3748 118.842 30.114 118.899 29.8532C118.928 29.7662 118.928 29.6793 118.928 29.5924C118.957 29.3315 118.986 29.0997 118.957 28.8389C118.957 28.7519 118.957 28.665 118.928 28.578C118.928 28.2882 118.899 28.0564 118.842 27.7956C118.813 27.7086 118.784 27.6217 118.755 27.5347C118.697 27.3029 118.61 27.071 118.523 26.8682C118.465 26.7523 118.407 26.6363 118.378 26.5204C118.32 26.3755 118.262 26.2306 118.175 26.0857L103.192 2.46656C101.627 0.00321232 98.3813 -0.721301 95.9179 0.814668C93.4546 2.37962 92.7011 5.65442 94.266 8.11777L107.452 28.9548L94.4979 49.9657C92.9619 52.458 93.7444 55.7038 96.2077 57.2398C98.7001 58.7758 101.946 57.9933 103.482 55.5299L118.001 31.9688C118.03 31.9398 118.059 31.8818 118.059 31.8528L118.175 31.7079Z" fill="#015CFF"/>
<path d="M83.8378 19.8243C86.3012 18.2883 89.576 19.0128 91.1119 21.4761L97.1689 31.0687C98.7338 33.5321 97.9803 36.8069 95.517 38.3428C93.0536 39.9078 89.7788 39.1543 88.2429 36.6909L82.2149 27.1274C80.65 24.664 81.3745 21.3892 83.8378 19.8243Z" fill="white"/>
<path d="M4.96559 87.3204V92.2745H2.35866V78.7667H6.97878C7.71478 78.7667 8.37965 78.8749 8.9734 79.0914C9.56715 79.3017 10.0712 79.5986 10.4856 79.982C10.9062 80.3593 11.2278 80.8139 11.4505 81.3458C11.6793 81.8777 11.7937 82.4684 11.7937 83.1178C11.7937 83.7239 11.6793 84.2836 11.4505 84.797C11.2278 85.3103 10.9062 85.7556 10.4856 86.1329C10.0712 86.504 9.56715 86.7947 8.9734 87.005C8.37965 87.2153 7.71478 87.3204 6.97878 87.3204H4.96559ZM4.96559 85.2052H6.97878C7.34987 85.2052 7.67148 85.1495 7.94362 85.0382C8.21575 84.9269 8.4415 84.7753 8.62086 84.5836C8.80641 84.3919 8.94248 84.1723 9.02907 83.9249C9.12184 83.6713 9.16823 83.4085 9.16823 83.1363C9.16823 82.8209 9.12184 82.5271 9.02907 82.255C8.94248 81.9829 8.80641 81.7447 8.62086 81.5406C8.4415 81.3365 8.21575 81.1757 7.94362 81.0582C7.67148 80.9407 7.34987 80.8819 6.97878 80.8819H4.96559V85.2052ZM21.9858 87.2276H20.0097V92.2745H17.4028V78.7667H21.9301C22.6785 78.7667 23.3558 78.8564 23.9619 79.0358C24.568 79.2089 25.0844 79.4656 25.5112 79.8058C25.9441 80.1459 26.275 80.5696 26.5039 81.0768C26.7389 81.5839 26.8564 82.1715 26.8564 82.8395C26.8564 83.3219 26.7977 83.7579 26.6801 84.1476C26.5688 84.531 26.4049 84.8774 26.1884 85.1866C25.9782 85.4897 25.7215 85.7556 25.4184 85.9845C25.1215 86.2133 24.7876 86.4112 24.4165 86.5782L27.3203 92.1539V92.2745H24.5278L21.9858 87.2276ZM20.0097 85.1124H21.9394C22.6754 85.1124 23.2413 84.9269 23.6372 84.5558C24.0392 84.1785 24.2402 83.6651 24.2402 83.0157C24.2402 82.3416 24.0454 81.819 23.6557 81.4479C23.2661 81.0706 22.6909 80.8819 21.9301 80.8819H20.0097V85.1124ZM42.0397 86.5133C42.0397 87.3792 41.9253 88.177 41.6965 88.9068C41.4676 89.6367 41.1367 90.2644 40.7038 90.7901C40.2708 91.3159 39.742 91.7272 39.1173 92.024C38.4989 92.3147 37.8 92.4601 37.0207 92.4601C36.2414 92.4601 35.5487 92.3147 34.9425 92.024C34.3364 91.7272 33.8262 91.3159 33.4118 90.7901C32.9974 90.2582 32.682 89.6305 32.4655 88.9068C32.249 88.177 32.1408 87.3792 32.1408 86.5133V84.5465C32.1408 83.6806 32.249 82.8828 32.4655 82.1529C32.682 81.4231 32.9974 80.7954 33.4118 80.2696C33.8262 79.7377 34.3333 79.3233 34.9333 79.0265C35.5394 78.7296 36.2321 78.5812 37.0114 78.5812C37.7969 78.5812 38.4989 78.7296 39.1173 79.0265C39.742 79.3233 40.2708 79.7377 40.7038 80.2696C41.1367 80.7954 41.4676 81.4231 41.6965 82.1529C41.9253 82.8828 42.0397 83.6806 42.0397 84.5465V86.5133ZM39.3957 84.5279C39.3957 83.9775 39.3493 83.4703 39.2565 83.0065C39.1699 82.5426 39.0308 82.1437 38.839 81.8097C38.6473 81.4757 38.3999 81.2159 38.0968 81.0304C37.8 80.8386 37.4382 80.7428 37.0114 80.7428C36.5908 80.7428 36.2383 80.8386 35.9538 81.0304C35.6693 81.2159 35.4404 81.4757 35.2673 81.8097C35.0941 82.1437 34.9704 82.5426 34.8962 83.0065C34.8219 83.4703 34.7848 83.9775 34.7848 84.5279V86.5133C34.7848 87.0576 34.8219 87.5616 34.8962 88.0255C34.9704 88.4894 35.0941 88.8914 35.2673 89.2316C35.4404 89.5717 35.6693 89.8377 35.9538 90.0294C36.2383 90.2211 36.5939 90.317 37.0207 90.317C37.4412 90.317 37.8 90.2211 38.0968 90.0294C38.3999 89.8377 38.6442 89.5748 38.8298 89.2408C39.0215 88.9007 39.1637 88.4986 39.2565 88.0348C39.3493 87.5709 39.3957 87.0637 39.3957 86.5133V84.5279ZM57.2045 88.0441C57.1612 88.7244 57.0127 89.3367 56.7591 89.881C56.5118 90.4252 56.1778 90.8891 55.7572 91.2726C55.3366 91.656 54.8356 91.9529 54.2543 92.1632C53.6729 92.3673 53.0297 92.4693 52.3246 92.4693C51.5267 92.4693 50.8186 92.324 50.2001 92.0333C49.5816 91.7364 49.062 91.3251 48.6415 90.7994C48.2209 90.2675 47.8993 89.6305 47.6766 88.8883C47.454 88.1461 47.3426 87.3297 47.3426 86.4391V84.6207C47.3426 83.7239 47.4602 82.9044 47.6952 82.1622C47.9302 81.42 48.2642 80.783 48.6971 80.2511C49.1301 79.7192 49.6527 79.3079 50.265 79.0172C50.8835 78.7203 51.5762 78.5719 52.3431 78.5719C53.0853 78.5719 53.744 78.677 54.3192 78.8873C54.9006 79.0976 55.3954 79.3976 55.8036 79.7872C56.2118 80.1769 56.5334 80.6531 56.7684 81.2159C57.0035 81.7788 57.1519 82.4127 57.2137 83.1178H54.6161C54.5913 82.7158 54.5295 82.3632 54.4305 82.0602C54.3378 81.7571 54.1986 81.5066 54.0131 81.3087C53.8337 81.1046 53.6049 80.9531 53.3265 80.8541C53.0544 80.749 52.7266 80.6964 52.3431 80.6964C51.9411 80.6964 51.5917 80.783 51.2948 80.9562C50.9979 81.1293 50.7505 81.3829 50.5526 81.7169C50.3609 82.0509 50.2186 82.4622 50.1258 82.9508C50.0331 83.4332 49.9867 83.9837 49.9867 84.6022V86.4391C49.9867 87.7688 50.1722 88.7522 50.5433 89.3893C50.9206 90.0263 51.5144 90.3448 52.3246 90.3448C53.0049 90.3448 53.543 90.1655 53.9388 89.8067C54.3347 89.4418 54.5542 88.8543 54.5975 88.0441H57.2045ZM71.3487 86.3556H65.8008V90.1686H72.2857V92.2745H63.1846V78.7667H72.2579V80.8912H65.8008V84.296H71.3487V86.3556ZM85.261 88.7491C85.261 88.5079 85.2177 88.2822 85.1311 88.0719C85.0507 87.8616 84.9085 87.6668 84.7044 87.4874C84.5064 87.3019 84.2436 87.1349 83.9158 86.9864C83.5942 86.8318 83.1922 86.6896 82.7097 86.5597C82.1222 86.3989 81.5593 86.1979 81.0213 85.9566C80.4894 85.7154 80.0193 85.4247 79.6111 85.0846C79.2029 84.7444 78.8751 84.3486 78.6277 83.8971C78.3865 83.4456 78.2659 82.9261 78.2659 82.3385C78.2659 81.7695 78.3865 81.253 78.6277 80.7892C78.8689 80.3253 79.2029 79.9295 79.6297 79.6017C80.0564 79.2739 80.5605 79.0234 81.1419 78.8502C81.7232 78.6708 82.3541 78.5812 83.0344 78.5812C83.7395 78.5812 84.3827 78.6832 84.9641 78.8873C85.5517 79.0914 86.0558 79.379 86.4763 79.7501C86.8969 80.115 87.2247 80.5511 87.4597 81.0582C87.6948 81.5654 87.8123 82.122 87.8123 82.7281H85.2703C85.2579 82.4251 85.2022 82.1468 85.1033 81.8932C85.0105 81.6396 84.8683 81.4231 84.6765 81.2438C84.491 81.0582 84.256 80.916 83.9715 80.817C83.6931 80.7119 83.3653 80.6593 82.9881 80.6593C82.6417 80.6593 82.3325 80.7026 82.0603 80.7892C81.7944 80.8696 81.5686 80.9871 81.3831 81.1417C81.1975 81.2901 81.0553 81.4695 80.9563 81.6798C80.8635 81.8839 80.8172 82.1066 80.8172 82.3478C80.8172 82.6013 80.879 82.8302 81.0027 83.0343C81.1326 83.2384 81.3181 83.4239 81.5593 83.5909C81.8006 83.7517 82.0912 83.9002 82.4314 84.0362C82.7778 84.1723 83.1674 84.2991 83.6004 84.4166C84.2188 84.596 84.7879 84.8155 85.3074 85.0753C85.8269 85.3351 86.2722 85.6443 86.6433 86.003C87.0206 86.3556 87.3113 86.7607 87.5154 87.2184C87.7257 87.6699 87.8308 88.1739 87.8308 88.7306C87.8308 89.3243 87.7102 89.8531 87.469 90.317C87.234 90.7747 86.9062 91.1643 86.4856 91.4859C86.065 91.8014 85.5641 92.0426 84.9827 92.2096C84.4013 92.3704 83.7673 92.4508 83.0808 92.4508C82.6541 92.4508 82.2273 92.4106 81.8006 92.3302C81.38 92.256 80.9749 92.1385 80.5852 91.9776C80.2018 91.8168 79.843 91.6158 79.509 91.3746C79.1751 91.1334 78.8844 90.852 78.637 90.5304C78.3958 90.2088 78.204 89.8439 78.0618 89.4357C77.9257 89.0275 77.8577 88.576 77.8577 88.0812H80.4182C80.4306 88.4894 80.5017 88.8388 80.6316 89.1295C80.7615 89.4202 80.9409 89.6583 81.1697 89.8439C81.4047 90.0294 81.683 90.1655 82.0047 90.2521C82.3325 90.3386 82.6912 90.3819 83.0808 90.3819C83.4272 90.3819 83.7333 90.3417 83.9993 90.2613C84.2714 90.1809 84.5003 90.0696 84.6858 89.9274C84.8714 89.7851 85.0136 89.615 85.1126 89.4171C85.2115 89.213 85.261 88.9903 85.261 88.7491ZM100.472 88.7491C100.472 88.5079 100.429 88.2822 100.342 88.0719C100.262 87.8616 100.12 87.6668 99.9155 87.4874C99.7176 87.3019 99.4547 87.1349 99.1269 86.9864C98.8053 86.8318 98.4033 86.6896 97.9209 86.5597C97.3333 86.3989 96.7705 86.1979 96.2324 85.9566C95.7005 85.7154 95.2304 85.4247 94.8222 85.0846C94.414 84.7444 94.0862 84.3486 93.8388 83.8971C93.5976 83.4456 93.477 82.9261 93.477 82.3385C93.477 81.7695 93.5976 81.253 93.8388 80.7892C94.08 80.3253 94.414 79.9295 94.8408 79.6017C95.2675 79.2739 95.7716 79.0234 96.353 78.8502C96.9344 78.6708 97.5652 78.5812 98.2456 78.5812C98.9507 78.5812 99.5939 78.6832 100.175 78.8873C100.763 79.0914 101.267 79.379 101.687 79.7501C102.108 80.115 102.436 80.5511 102.671 81.0582C102.906 81.5654 103.023 82.122 103.023 82.7281H100.481C100.469 82.4251 100.413 82.1468 100.314 81.8932C100.222 81.6396 100.079 81.4231 99.8877 81.2438C99.7021 81.0582 99.4671 80.916 99.1826 80.817C98.9043 80.7119 98.5765 80.6593 98.1992 80.6593C97.8528 80.6593 97.5436 80.7026 97.2715 80.7892C97.0055 80.8696 96.7798 80.9871 96.5942 81.1417C96.4087 81.2901 96.2664 81.4695 96.1674 81.6798C96.0747 81.8839 96.0283 82.1066 96.0283 82.3478C96.0283 82.6013 96.0901 82.8302 96.2138 83.0343C96.3437 83.2384 96.5293 83.4239 96.7705 83.5909C97.0117 83.7517 97.3024 83.9002 97.6425 84.0362C97.9889 84.1723 98.3786 84.2991 98.8115 84.4166C99.43 84.596 99.999 84.8155 100.519 85.0753C101.038 85.3351 101.483 85.6443 101.854 86.003C102.232 86.3556 102.522 86.7607 102.727 87.2184C102.937 87.6699 103.042 88.1739 103.042 88.7306C103.042 89.3243 102.921 89.8531 102.68 90.317C102.445 90.7747 102.117 91.1643 101.697 91.4859C101.276 91.8014 100.775 92.0426 100.194 92.2096C99.6124 92.3704 98.9785 92.4508 98.292 92.4508C97.8652 92.4508 97.4384 92.4106 97.0117 92.3302C96.5911 92.256 96.186 92.1385 95.7964 91.9776C95.4129 91.8168 95.0542 91.6158 94.7202 91.3746C94.3862 91.1334 94.0955 90.852 93.8481 90.5304C93.6069 90.2088 93.4152 89.8439 93.2729 89.4357C93.1369 89.0275 93.0688 88.576 93.0688 88.0812H95.6294C95.6417 88.4894 95.7129 88.8388 95.8427 89.1295C95.9726 89.4202 96.152 89.6583 96.3808 89.8439C96.6159 90.0294 96.8942 90.1655 97.2158 90.2521C97.5436 90.3386 97.9023 90.3819 98.292 90.3819C98.6383 90.3819 98.9445 90.3417 99.2104 90.2613C99.4826 90.1809 99.7114 90.0696 99.8969 89.9274C100.082 89.7851 100.225 89.615 100.324 89.4171C100.423 89.213 100.472 88.9903 100.472 88.7491ZM109.245 78.7667H117.056V80.8727H114.422V90.1778H117.056V92.2745H109.245V90.1778H111.815V80.8727H109.245V78.7667ZM132.787 92.2745H130.189L126.432 83.5631V92.2745H123.807V78.7667H126.432L130.161 87.441L130.171 78.7667H132.787V92.2745ZM148.378 90.6974C148.211 90.9015 147.983 91.1087 147.692 91.319C147.401 91.5292 147.055 91.721 146.653 91.8941C146.257 92.0611 145.812 92.1972 145.317 92.3024C144.822 92.4075 144.29 92.4601 143.721 92.4601C142.954 92.4601 142.262 92.324 141.643 92.0519C141.025 91.7797 140.496 91.387 140.057 90.8736C139.618 90.3603 139.277 89.7325 139.036 88.9903C138.801 88.242 138.684 87.3946 138.684 86.4483V84.6114C138.684 83.6651 138.807 82.8209 139.055 82.0787C139.308 81.3303 139.655 80.6964 140.094 80.1769C140.539 79.6573 141.059 79.2615 141.652 78.9894C142.252 78.7172 142.902 78.5812 143.601 78.5812C144.361 78.5812 145.023 78.677 145.586 78.8688C146.155 79.0605 146.634 79.3388 147.024 79.7037C147.414 80.0624 147.717 80.5016 147.933 81.0211C148.156 81.5406 148.301 82.1251 148.369 82.7745H145.827C145.741 82.0818 145.53 81.5623 145.196 81.2159C144.869 80.8634 144.358 80.6871 143.666 80.6871C143.332 80.6871 143.022 80.7737 142.738 80.9469C142.453 81.1139 142.206 81.3613 141.996 81.6891C141.785 82.0169 141.618 82.4251 141.495 82.9137C141.371 83.3961 141.309 83.9558 141.309 84.5929V86.4483C141.315 87.7101 141.526 88.678 141.94 89.3522C142.354 90.0201 142.988 90.3572 143.842 90.3634C144.046 90.3634 144.247 90.3479 144.445 90.317C144.643 90.2861 144.828 90.2428 145.002 90.1871C145.175 90.1315 145.326 90.0696 145.456 90.0016C145.592 89.9274 145.694 89.85 145.762 89.7696L145.772 87.3204H143.536V85.3722H148.369L148.378 90.6974ZM157.003 90.7809C157.003 90.5397 157.043 90.317 157.123 90.1129C157.204 89.9026 157.321 89.7233 157.476 89.5748C157.63 89.4202 157.819 89.2996 158.042 89.213C158.264 89.1202 158.515 89.0738 158.793 89.0738C159.072 89.0738 159.322 89.1202 159.545 89.213C159.767 89.2996 159.953 89.4202 160.101 89.5748C160.256 89.7233 160.373 89.9026 160.454 90.1129C160.54 90.317 160.584 90.5397 160.584 90.7809C160.584 91.0159 160.54 91.2355 160.454 91.4396C160.373 91.6437 160.256 91.823 160.101 91.9776C159.953 92.1261 159.767 92.2436 159.545 92.3302C159.322 92.4168 159.072 92.4601 158.793 92.4601C158.515 92.4601 158.264 92.4168 158.042 92.3302C157.819 92.2436 157.63 92.1261 157.476 91.9776C157.321 91.823 157.204 91.6437 157.123 91.4396C157.043 91.2355 157.003 91.0159 157.003 90.7809ZM172.214 90.7809C172.214 90.5397 172.254 90.317 172.334 90.1129C172.415 89.9026 172.532 89.7233 172.687 89.5748C172.842 89.4202 173.03 89.2996 173.253 89.213C173.476 89.1202 173.726 89.0738 174.004 89.0738C174.283 89.0738 174.533 89.1202 174.756 89.213C174.978 89.2996 175.164 89.4202 175.312 89.5748C175.467 89.7233 175.585 89.9026 175.665 90.1129C175.752 90.317 175.795 90.5397 175.795 90.7809C175.795 91.0159 175.752 91.2355 175.665 91.4396C175.585 91.6437 175.467 91.823 175.312 91.9776C175.164 92.1261 174.978 92.2436 174.756 92.3302C174.533 92.4168 174.283 92.4601 174.004 92.4601C173.726 92.4601 173.476 92.4168 173.253 92.3302C173.03 92.2436 172.842 92.1261 172.687 91.9776C172.532 91.823 172.415 91.6437 172.334 91.4396C172.254 91.2355 172.214 91.0159 172.214 90.7809Z" fill="#015CFF"/>
</svg>
