<svg width="181" height="97" viewBox="0 0 181 97" fill="none" xmlns="http://www.w3.org/2000/svg">
<path d="M119.829 49.9391L106.469 28.7833L119.25 8.06222C120.786 5.56989 120.003 2.32407 117.54 0.788103C115.076 -0.747866 111.802 0.0346088 110.266 2.49796L95.7754 26.0012C94.7031 27.74 94.79 29.8266 95.7464 31.4495C95.8044 31.5654 95.8333 31.6814 95.9203 31.7683L110.932 55.5324C112.497 57.9957 115.743 58.7202 118.206 57.1843C120.67 55.6773 121.394 52.4025 119.829 49.9391Z" fill="white"/>
<path d="M83.7263 31.708C83.7553 31.6791 83.7553 31.6211 83.7843 31.5921C83.9292 31.3313 84.0451 31.0994 84.161 30.8386C84.19 30.7517 84.219 30.6937 84.248 30.6068C84.3349 30.3749 84.3929 30.1141 84.4508 29.8533C84.4798 29.7663 84.4798 29.6794 84.4798 29.5925C84.5088 29.3316 84.5378 29.0998 84.5088 28.839C84.5088 28.752 84.5088 28.6651 84.4798 28.5781C84.4798 28.2883 84.4508 28.0565 84.3929 27.7957C84.3639 27.7087 84.3349 27.6218 84.3059 27.5348C84.248 27.303 84.161 27.0711 84.0741 26.8683C84.0161 26.7524 83.9582 26.6364 83.9292 26.5205C83.8712 26.3756 83.8133 26.2307 83.7263 26.0858L68.7434 2.46666C67.1784 0.00331532 63.9326 -0.721198 61.4693 0.814771C59.0059 2.37972 58.2524 5.65452 59.8174 8.11787L73.0035 28.9549L60.0492 49.9658C58.5132 52.4581 59.2957 55.7039 61.7591 57.2399C64.2514 58.7759 67.4972 57.9934 69.0332 55.53L83.5524 31.9689C83.5814 31.9399 83.6104 31.8819 83.6104 31.8529L83.7263 31.708Z" fill="#015CFF"/>
<path d="M39.6276 88.7491C39.6276 88.5079 39.5843 88.2822 39.4977 88.0719C39.4173 87.8616 39.2751 87.6668 39.071 87.4874C38.873 87.3019 38.6102 87.1349 38.2824 86.9864C37.9608 86.8318 37.5588 86.6896 37.0763 86.5597C36.4888 86.3989 35.9259 86.1979 35.3879 85.9566C34.856 85.7154 34.3859 85.4247 33.9777 85.0846C33.5695 84.7444 33.2417 84.3486 32.9943 83.8971C32.7531 83.4456 32.6325 82.9261 32.6325 82.3385C32.6325 81.7695 32.7531 81.253 32.9943 80.7892C33.2355 80.3253 33.5695 79.9295 33.9963 79.6017C34.423 79.2739 34.9271 79.0234 35.5085 78.8502C36.0898 78.6708 36.7207 78.5812 37.401 78.5812C38.1061 78.5812 38.7494 78.6832 39.3307 78.8873C39.9183 79.0914 40.4224 79.379 40.8429 79.7501C41.2635 80.115 41.5913 80.5511 41.8263 81.0582C42.0614 81.5654 42.1789 82.122 42.1789 82.7281H39.6369C39.6245 82.4251 39.5688 82.1468 39.4699 81.8932C39.3771 81.6396 39.2349 81.4231 39.0431 81.2438C38.8576 81.0582 38.6226 80.916 38.3381 80.817C38.0597 80.7119 37.7319 80.6593 37.3547 80.6593C37.0083 80.6593 36.6991 80.7026 36.4269 80.7892C36.161 80.8696 35.9352 80.9871 35.7497 81.1417C35.5641 81.2901 35.4219 81.4695 35.3229 81.6798C35.2301 81.8839 35.1838 82.1066 35.1838 82.3478C35.1838 82.6013 35.2456 82.8302 35.3693 83.0343C35.4992 83.2384 35.6847 83.4239 35.9259 83.5909C36.1672 83.7517 36.4578 83.9002 36.798 84.0362C37.1444 84.1723 37.534 84.2991 37.967 84.4166C38.5855 84.596 39.1545 84.8155 39.674 85.0753C40.1935 85.3351 40.6388 85.6443 41.0099 86.003C41.3872 86.3556 41.6779 86.7607 41.882 87.2184C42.0923 87.6699 42.1974 88.1739 42.1974 88.7306C42.1974 89.3243 42.0768 89.8531 41.8356 90.317C41.6006 90.7747 41.2728 91.1643 40.8522 91.4859C40.4316 91.8014 39.9307 92.0426 39.3493 92.2096C38.7679 92.3704 38.134 92.4508 37.4474 92.4508C37.0207 92.4508 36.5939 92.4106 36.1672 92.3302C35.7466 92.256 35.3415 92.1385 34.9518 91.9776C34.5684 91.8168 34.2096 91.6158 33.8757 91.3746C33.5417 91.1334 33.251 90.852 33.0036 90.5304C32.7624 90.2088 32.5706 89.8439 32.4284 89.4357C32.2923 89.0275 32.2243 88.576 32.2243 88.0812H34.7848C34.7972 88.4894 34.8683 88.8388 34.9982 89.1295C35.1281 89.4202 35.3075 89.6583 35.5363 89.8439C35.7713 90.0294 36.0496 90.1655 36.3713 90.2521C36.6991 90.3386 37.0578 90.3819 37.4474 90.3819C37.7938 90.3819 38.0999 90.3417 38.3659 90.2613C38.638 90.1809 38.8669 90.0696 39.0524 89.9274C39.238 89.7851 39.3802 89.615 39.4792 89.4171C39.5781 89.213 39.6276 88.9903 39.6276 88.7491ZM56.8241 78.7667L56.8334 87.7193C56.8334 88.4739 56.7282 89.145 56.5179 89.7325C56.3138 90.3201 56.0139 90.818 55.618 91.2262C55.2284 91.6282 54.7491 91.9344 54.18 92.1446C53.6172 92.3549 52.974 92.4601 52.2504 92.4601C51.57 92.4601 50.9546 92.3549 50.4042 92.1446C49.8599 91.9344 49.3929 91.6282 49.0033 91.2262C48.6136 90.8242 48.3106 90.3294 48.0941 89.7418C47.8838 89.1481 47.7787 88.4739 47.7787 87.7193L47.788 78.7667H50.3949L50.4042 87.7193C50.4104 88.5914 50.5681 89.2501 50.8773 89.6954C51.1927 90.1407 51.6504 90.3634 52.2504 90.3634C52.8874 90.3634 53.3729 90.1407 53.7069 89.6954C54.0471 89.2501 54.2202 88.5914 54.2264 87.7193L54.2357 78.7667H56.8241ZM72.4156 88.0441C72.3723 88.7244 72.2239 89.3367 71.9703 89.881C71.7229 90.4252 71.3889 90.8891 70.9683 91.2726C70.5478 91.656 70.0468 91.9529 69.4654 92.1632C68.884 92.3673 68.2408 92.4693 67.5357 92.4693C66.7379 92.4693 66.0297 92.324 65.4112 92.0333C64.7927 91.7364 64.2732 91.3251 63.8526 90.7994C63.432 90.2675 63.1104 89.6305 62.8878 88.8883C62.6651 88.1461 62.5538 87.3297 62.5538 86.4391V84.6207C62.5538 83.7239 62.6713 82.9044 62.9063 82.1622C63.1413 81.42 63.4753 80.783 63.9083 80.2511C64.3412 79.7192 64.8638 79.3079 65.4761 79.0172C66.0946 78.7203 66.7873 78.5719 67.5543 78.5719C68.2965 78.5719 68.9551 78.677 69.5303 78.8873C70.1117 79.0976 70.6065 79.3976 71.0147 79.7872C71.4229 80.1769 71.7445 80.6531 71.9796 81.2159C72.2146 81.7788 72.363 82.4127 72.4249 83.1178H69.8272C69.8025 82.7158 69.7406 82.3632 69.6417 82.0602C69.5489 81.7571 69.4097 81.5066 69.2242 81.3087C69.0448 81.1046 68.816 80.9531 68.5377 80.8541C68.2655 80.749 67.9377 80.6964 67.5543 80.6964C67.1522 80.6964 66.8028 80.783 66.5059 80.9562C66.2091 81.1293 65.9617 81.3829 65.7637 81.7169C65.572 82.0509 65.4298 82.4622 65.337 82.9508C65.2442 83.4332 65.1978 83.9837 65.1978 84.6022V86.4391C65.1978 87.7688 65.3834 88.7522 65.7545 89.3893C66.1317 90.0263 66.7255 90.3448 67.5357 90.3448C68.2161 90.3448 68.7541 90.1655 69.15 89.8067C69.5458 89.4418 69.7654 88.8543 69.8087 88.0441H72.4156ZM87.6267 88.0441C87.5834 88.7244 87.435 89.3367 87.1814 89.881C86.934 90.4252 86.6 90.8891 86.1795 91.2726C85.7589 91.656 85.2579 91.9529 84.6765 92.1632C84.0951 92.3673 83.4519 92.4693 82.7468 92.4693C81.949 92.4693 81.2408 92.324 80.6223 92.0333C80.0038 91.7364 79.4843 91.3251 79.0637 90.7994C78.6432 90.2675 78.3215 89.6305 78.0989 88.8883C77.8762 88.1461 77.7649 87.3297 77.7649 86.4391V84.6207C77.7649 83.7239 77.8824 82.9044 78.1174 82.1622C78.3525 81.42 78.6865 80.783 79.1194 80.2511C79.5523 79.7192 80.075 79.3079 80.6873 79.0172C81.3058 78.7203 81.9985 78.5719 82.7654 78.5719C83.5076 78.5719 84.1663 78.677 84.7415 78.8873C85.3229 79.0976 85.8176 79.3976 86.2258 79.7872C86.634 80.1769 86.9557 80.6531 87.1907 81.2159C87.4257 81.7788 87.5742 82.4127 87.636 83.1178H85.0383C85.0136 82.7158 84.9518 82.3632 84.8528 82.0602C84.76 81.7571 84.6209 81.5066 84.4353 81.3087C84.256 81.1046 84.0271 80.9531 83.7488 80.8541C83.4767 80.749 83.1489 80.6964 82.7654 80.6964C82.3634 80.6964 82.0139 80.783 81.7171 80.9562C81.4202 81.1293 81.1728 81.3829 80.9749 81.7169C80.7831 82.0509 80.6409 82.4622 80.5481 82.9508C80.4553 83.4332 80.409 83.9837 80.409 84.6022V86.4391C80.409 87.7688 80.5945 88.7522 80.9656 89.3893C81.3429 90.0263 81.9366 90.3448 82.7468 90.3448C83.4272 90.3448 83.9653 90.1655 84.3611 89.8067C84.7569 89.4418 84.9765 88.8543 85.0198 88.0441H87.6267ZM101.771 86.3556H96.2231V90.1686H102.708V92.2745H93.6069V78.7667H102.68V80.8912H96.2231V84.296H101.771V86.3556ZM115.683 88.7491C115.683 88.5079 115.64 88.2822 115.553 88.0719C115.473 87.8616 115.331 87.6668 115.127 87.4874C114.929 87.3019 114.666 87.1349 114.338 86.9864C114.016 86.8318 113.614 86.6896 113.132 86.5597C112.544 86.3989 111.982 86.1979 111.444 85.9566C110.912 85.7154 110.442 85.4247 110.033 85.0846C109.625 84.7444 109.297 84.3486 109.05 83.8971C108.809 83.4456 108.688 82.9261 108.688 82.3385C108.688 81.7695 108.809 81.253 109.05 80.7892C109.291 80.3253 109.625 79.9295 110.052 79.6017C110.479 79.2739 110.983 79.0234 111.564 78.8502C112.146 78.6708 112.776 78.5812 113.457 78.5812C114.162 78.5812 114.805 78.6832 115.386 78.8873C115.974 79.0914 116.478 79.379 116.899 79.7501C117.319 80.115 117.647 80.5511 117.882 81.0582C118.117 81.5654 118.235 82.122 118.235 82.7281H115.693C115.68 82.4251 115.625 82.1468 115.526 81.8932C115.433 81.6396 115.291 81.4231 115.099 81.2438C114.913 81.0582 114.678 80.916 114.394 80.817C114.115 80.7119 113.788 80.6593 113.41 80.6593C113.064 80.6593 112.755 80.7026 112.483 80.7892C112.217 80.8696 111.991 80.9871 111.805 81.1417C111.62 81.2901 111.478 81.4695 111.379 81.6798C111.286 81.8839 111.239 82.1066 111.239 82.3478C111.239 82.6013 111.301 82.8302 111.425 83.0343C111.555 83.2384 111.74 83.4239 111.982 83.5909C112.223 83.7517 112.514 83.9002 112.854 84.0362C113.2 84.1723 113.59 84.2991 114.023 84.4166C114.641 84.596 115.21 84.8155 115.73 85.0753C116.249 85.3351 116.695 85.6443 117.066 86.003C117.443 86.3556 117.734 86.7607 117.938 87.2184C118.148 87.6699 118.253 88.1739 118.253 88.7306C118.253 89.3243 118.132 89.8531 117.891 90.317C117.656 90.7747 117.328 91.1643 116.908 91.4859C116.487 91.8014 115.986 92.0426 115.405 92.2096C114.824 92.3704 114.19 92.4508 113.503 92.4508C113.076 92.4508 112.65 92.4106 112.223 92.3302C111.802 92.256 111.397 92.1385 111.007 91.9776C110.624 91.8168 110.265 91.6158 109.931 91.3746C109.597 91.1334 109.307 90.852 109.059 90.5304C108.818 90.2088 108.626 89.8439 108.484 89.4357C108.348 89.0275 108.28 88.576 108.28 88.0812H110.84C110.853 88.4894 110.924 88.8388 111.054 89.1295C111.184 89.4202 111.363 89.6583 111.592 89.8439C111.827 90.0294 112.105 90.1655 112.427 90.2521C112.755 90.3386 113.113 90.3819 113.503 90.3819C113.849 90.3819 114.156 90.3417 114.422 90.2613C114.694 90.1809 114.923 90.0696 115.108 89.9274C115.294 89.7851 115.436 89.615 115.535 89.4171C115.634 89.213 115.683 88.9903 115.683 88.7491ZM130.894 88.7491C130.894 88.5079 130.851 88.2822 130.765 88.0719C130.684 87.8616 130.542 87.6668 130.338 87.4874C130.14 87.3019 129.877 87.1349 129.549 86.9864C129.228 86.8318 128.826 86.6896 128.343 86.5597C127.756 86.3989 127.193 86.1979 126.655 85.9566C126.123 85.7154 125.653 85.4247 125.245 85.0846C124.836 84.7444 124.509 84.3486 124.261 83.8971C124.02 83.4456 123.899 82.9261 123.899 82.3385C123.899 81.7695 124.02 81.253 124.261 80.7892C124.502 80.3253 124.836 79.9295 125.263 79.6017C125.69 79.2739 126.194 79.0234 126.775 78.8502C127.357 78.6708 127.988 78.5812 128.668 78.5812C129.373 78.5812 130.016 78.6832 130.598 78.8873C131.185 79.0914 131.689 79.379 132.11 79.7501C132.53 80.115 132.858 80.5511 133.093 81.0582C133.328 81.5654 133.446 82.122 133.446 82.7281H130.904C130.891 82.4251 130.836 82.1468 130.737 81.8932C130.644 81.6396 130.502 81.4231 130.31 81.2438C130.124 81.0582 129.889 80.916 129.605 80.817C129.327 80.7119 128.999 80.6593 128.621 80.6593C128.275 80.6593 127.966 80.7026 127.694 80.7892C127.428 80.8696 127.202 80.9871 127.016 81.1417C126.831 81.2901 126.689 81.4695 126.59 81.6798C126.497 81.8839 126.451 82.1066 126.451 82.3478C126.451 82.6013 126.512 82.8302 126.636 83.0343C126.766 83.2384 126.952 83.4239 127.193 83.5909C127.434 83.7517 127.725 83.9002 128.065 84.0362C128.411 84.1723 128.801 84.2991 129.234 84.4166C129.852 84.596 130.421 84.8155 130.941 85.0753C131.46 85.3351 131.906 85.6443 132.277 86.003C132.654 86.3556 132.945 86.7607 133.149 87.2184C133.359 87.6699 133.464 88.1739 133.464 88.7306C133.464 89.3243 133.344 89.8531 133.102 90.317C132.867 90.7747 132.54 91.1643 132.119 91.4859C131.698 91.8014 131.197 92.0426 130.616 92.2096C130.035 92.3704 129.401 92.4508 128.714 92.4508C128.287 92.4508 127.861 92.4106 127.434 92.3302C127.013 92.256 126.608 92.1385 126.219 91.9776C125.835 91.8168 125.476 91.6158 125.142 91.3746C124.808 91.1334 124.518 90.852 124.27 90.5304C124.029 90.2088 123.837 89.8439 123.695 89.4357C123.559 89.0275 123.491 88.576 123.491 88.0812H126.052C126.064 88.4894 126.135 88.8388 126.265 89.1295C126.395 89.4202 126.574 89.6583 126.803 89.8439C127.038 90.0294 127.316 90.1655 127.638 90.2521C127.966 90.3386 128.325 90.3819 128.714 90.3819C129.061 90.3819 129.367 90.3417 129.633 90.2613C129.905 90.1809 130.134 90.0696 130.319 89.9274C130.505 89.7851 130.647 89.615 130.746 89.4171C130.845 89.213 130.894 88.9903 130.894 88.7491ZM144.695 87.5524H142.348L142.2 78.7667H144.844L144.695 87.5524ZM142.014 91.0128C142.014 90.8087 142.048 90.6201 142.116 90.4469C142.184 90.2737 142.283 90.1222 142.413 89.9923C142.543 89.8624 142.701 89.7635 142.886 89.6954C143.072 89.6212 143.282 89.5841 143.517 89.5841C143.746 89.5841 143.953 89.6212 144.139 89.6954C144.324 89.7635 144.482 89.8624 144.612 89.9923C144.742 90.1222 144.841 90.2737 144.909 90.4469C144.983 90.6201 145.02 90.8087 145.02 91.0128C145.02 91.2107 144.983 91.3963 144.909 91.5694C144.841 91.7426 144.742 91.8911 144.612 92.0148C144.482 92.1385 144.324 92.2343 144.139 92.3024C143.953 92.3766 143.746 92.4137 143.517 92.4137C143.282 92.4137 143.072 92.3766 142.886 92.3024C142.701 92.2343 142.543 92.1385 142.413 92.0148C142.283 91.8911 142.184 91.7426 142.116 91.5694C142.048 91.3963 142.014 91.2107 142.014 91.0128Z" fill="#015CFF"/>
</svg>
