<svg width="181" height="97" viewBox="0 0 181 97" fill="none" xmlns="http://www.w3.org/2000/svg">
<path d="M85.2968 49.9391L71.9367 28.7833L84.7172 8.06222C86.2531 5.56989 85.4707 2.32407 83.0073 0.788103C80.544 -0.747866 77.2692 0.0346088 75.7332 2.49796L61.2429 26.0012C60.1706 27.74 60.2576 29.8266 61.2139 31.4495C61.2719 31.5654 61.3009 31.6814 61.3878 31.7683L76.3997 55.5324C77.9647 57.9957 81.2105 58.7202 83.6739 57.1843C86.1372 55.6773 86.8617 52.4025 85.2968 49.9391Z" fill="white"/>
<path d="M118.175 31.7079C118.204 31.6789 118.204 31.621 118.233 31.592C118.378 31.3312 118.494 31.0993 118.61 30.8385C118.639 30.7516 118.668 30.6936 118.697 30.6067C118.784 30.3748 118.842 30.114 118.9 29.8532C118.929 29.7662 118.929 29.6793 118.929 29.5924C118.958 29.3315 118.987 29.0997 118.958 28.8389C118.958 28.7519 118.958 28.665 118.929 28.578C118.929 28.2882 118.9 28.0564 118.842 27.7956C118.813 27.7086 118.784 27.6217 118.755 27.5347C118.697 27.3029 118.61 27.071 118.523 26.8682C118.465 26.7523 118.407 26.6363 118.378 26.5204C118.32 26.3755 118.262 26.2306 118.175 26.0857L103.192 2.46656C101.627 0.00321232 98.3813 -0.721301 95.918 0.814668C93.4546 2.37962 92.7011 5.65442 94.2661 8.11777L107.452 28.9548L94.4979 49.9657C92.962 52.458 93.7444 55.7038 96.2078 57.2398C98.7001 58.7758 101.946 57.9933 103.482 55.5299L118.001 31.9688C118.03 31.9398 118.059 31.8818 118.059 31.8528L118.175 31.7079Z" fill="#015CFF"/>
<path d="M3.98926 87.3204V92.2745H1.38232V78.7667H6.00244C6.73844 78.7667 7.40332 78.8749 7.99707 79.0914C8.59082 79.3017 9.09489 79.5986 9.50928 79.982C9.92985 80.3593 10.2515 80.8139 10.4741 81.3458C10.703 81.8777 10.8174 82.4684 10.8174 83.1178C10.8174 83.7239 10.703 84.2836 10.4741 84.797C10.2515 85.3103 9.92985 85.7556 9.50928 86.1329C9.09489 86.504 8.59082 86.7947 7.99707 87.005C7.40332 87.2153 6.73844 87.3204 6.00244 87.3204H3.98926ZM3.98926 85.2052H6.00244C6.37354 85.2052 6.69515 85.1495 6.96729 85.0382C7.23942 84.9269 7.46517 84.7753 7.64453 84.5836C7.83008 84.3919 7.96615 84.1723 8.05273 83.9249C8.14551 83.6713 8.19189 83.4085 8.19189 83.1363C8.19189 82.8209 8.14551 82.5271 8.05273 82.255C7.96615 81.9829 7.83008 81.7447 7.64453 81.5406C7.46517 81.3365 7.23942 81.1757 6.96729 81.0582C6.69515 80.9407 6.37354 80.8819 6.00244 80.8819H3.98926V85.2052ZM21.0095 87.2276H19.0334V92.2745H16.4265V78.7667H20.9538C21.7022 78.7667 22.3794 78.8564 22.9855 79.0358C23.5917 79.2089 24.1081 79.4656 24.5349 79.8058C24.9678 80.1459 25.2987 80.5696 25.5275 81.0768C25.7626 81.5839 25.8801 82.1715 25.8801 82.8395C25.8801 83.3219 25.8213 83.7579 25.7038 84.1476C25.5925 84.531 25.4286 84.8774 25.2121 85.1866C25.0018 85.4897 24.7451 85.7556 24.4421 85.9845C24.1452 86.2133 23.8112 86.4112 23.4401 86.5782L26.3439 92.1539V92.2745H23.5515L21.0095 87.2276ZM19.0334 85.1124H20.9631C21.6991 85.1124 22.265 84.9269 22.6608 84.5558C23.0629 84.1785 23.2639 83.6651 23.2639 83.0157C23.2639 82.3416 23.069 81.819 22.6794 81.4479C22.2897 81.0706 21.7146 80.8819 20.9538 80.8819H19.0334V85.1124ZM41.0634 86.5133C41.0634 87.3792 40.949 88.177 40.7201 88.9068C40.4913 89.6367 40.1604 90.2644 39.7274 90.7901C39.2945 91.3159 38.7657 91.7272 38.141 92.024C37.5225 92.3147 36.8236 92.4601 36.0443 92.4601C35.265 92.4601 34.5723 92.3147 33.9662 92.024C33.3601 91.7272 32.8498 91.3159 32.4354 90.7901C32.0211 90.2582 31.7056 89.6305 31.4892 88.9068C31.2727 88.177 31.1645 87.3792 31.1645 86.5133V84.5465C31.1645 83.6806 31.2727 82.8828 31.4892 82.1529C31.7056 81.4231 32.0211 80.7954 32.4354 80.2696C32.8498 79.7377 33.357 79.3233 33.9569 79.0265C34.5631 78.7296 35.2558 78.5812 36.0351 78.5812C36.8205 78.5812 37.5225 78.7296 38.141 79.0265C38.7657 79.3233 39.2945 79.7377 39.7274 80.2696C40.1604 80.7954 40.4913 81.4231 40.7201 82.1529C40.949 82.8828 41.0634 83.6806 41.0634 84.5465V86.5133ZM38.4193 84.5279C38.4193 83.9775 38.3729 83.4703 38.2802 83.0065C38.1936 82.5426 38.0544 82.1437 37.8627 81.8097C37.671 81.4757 37.4236 81.2159 37.1205 81.0304C36.8236 80.8386 36.4618 80.7428 36.0351 80.7428C35.6145 80.7428 35.2619 80.8386 34.9774 81.0304C34.6929 81.2159 34.4641 81.4757 34.2909 81.8097C34.1177 82.1437 33.994 82.5426 33.9198 83.0065C33.8456 83.4703 33.8085 83.9775 33.8085 84.5279V86.5133C33.8085 87.0576 33.8456 87.5616 33.9198 88.0255C33.994 88.4894 34.1177 88.8914 34.2909 89.2316C34.4641 89.5717 34.6929 89.8377 34.9774 90.0294C35.2619 90.2211 35.6176 90.317 36.0443 90.317C36.4649 90.317 36.8236 90.2211 37.1205 90.0294C37.4236 89.8377 37.6679 89.5748 37.8534 89.2408C38.0452 88.9007 38.1874 88.4986 38.2802 88.0348C38.3729 87.5709 38.4193 87.0637 38.4193 86.5133V84.5279ZM56.2281 88.0441C56.1848 88.7244 56.0364 89.3367 55.7828 89.881C55.5354 90.4252 55.2014 90.8891 54.7809 91.2726C54.3603 91.656 53.8593 91.9529 53.2779 92.1632C52.6966 92.3673 52.0533 92.4693 51.3482 92.4693C50.5504 92.4693 49.8422 92.324 49.2237 92.0333C48.6052 91.7364 48.0857 91.3251 47.6651 90.7994C47.2446 90.2675 46.923 89.6305 46.7003 88.8883C46.4776 88.1461 46.3663 87.3297 46.3663 86.4391V84.6207C46.3663 83.7239 46.4838 82.9044 46.7188 82.1622C46.9539 81.42 47.2879 80.783 47.7208 80.2511C48.1537 79.7192 48.6764 79.3079 49.2887 79.0172C49.9072 78.7203 50.5999 78.5719 51.3668 78.5719C52.109 78.5719 52.7677 78.677 53.3429 78.8873C53.9243 79.0976 54.419 79.3976 54.8272 79.7872C55.2355 80.1769 55.5571 80.6531 55.7921 81.2159C56.0271 81.7788 56.1756 82.4127 56.2374 83.1178H53.6397C53.615 82.7158 53.5532 82.3632 53.4542 82.0602C53.3614 81.7571 53.2223 81.5066 53.0367 81.3087C52.8574 81.1046 52.6285 80.9531 52.3502 80.8541C52.0781 80.749 51.7503 80.6964 51.3668 80.6964C50.9648 80.6964 50.6153 80.783 50.3185 80.9562C50.0216 81.1293 49.7742 81.3829 49.5763 81.7169C49.3845 82.0509 49.2423 82.4622 49.1495 82.9508C49.0567 83.4332 49.0104 83.9837 49.0104 84.6022V86.4391C49.0104 87.7688 49.1959 88.7522 49.567 89.3893C49.9443 90.0263 50.538 90.3448 51.3482 90.3448C52.0286 90.3448 52.5667 90.1655 52.9625 89.8067C53.3583 89.4418 53.5779 88.8543 53.6212 88.0441H56.2281ZM70.3724 86.3556H64.8245V90.1686H71.3094V92.2745H62.2083V78.7667H71.2815V80.8912H64.8245V84.296H70.3724V86.3556ZM84.2847 88.7491C84.2847 88.5079 84.2414 88.2822 84.1548 88.0719C84.0744 87.8616 83.9321 87.6668 83.728 87.4874C83.5301 87.3019 83.2673 87.1349 82.9395 86.9864C82.6178 86.8318 82.2158 86.6896 81.7334 86.5597C81.1458 86.3989 80.583 86.1979 80.0449 85.9566C79.513 85.7154 79.043 85.4247 78.6348 85.0846C78.2266 84.7444 77.8988 84.3486 77.6514 83.8971C77.4102 83.4456 77.2896 82.9261 77.2896 82.3385C77.2896 81.7695 77.4102 81.253 77.6514 80.7892C77.8926 80.3253 78.2266 79.9295 78.6533 79.6017C79.0801 79.2739 79.5841 79.0234 80.1655 78.8502C80.7469 78.6708 81.3778 78.5812 82.0581 78.5812C82.7632 78.5812 83.4064 78.6832 83.9878 78.8873C84.5754 79.0914 85.0794 79.379 85.5 79.7501C85.9206 80.115 86.2484 80.5511 86.4834 81.0582C86.7184 81.5654 86.8359 82.122 86.8359 82.7281H84.2939C84.2816 82.4251 84.2259 82.1468 84.127 81.8932C84.0342 81.6396 83.8919 81.4231 83.7002 81.2438C83.5146 81.0582 83.2796 80.916 82.9951 80.817C82.7168 80.7119 82.389 80.6593 82.0117 80.6593C81.6654 80.6593 81.3561 80.7026 81.084 80.7892C80.818 80.8696 80.5923 80.9871 80.4067 81.1417C80.2212 81.2901 80.0789 81.4695 79.98 81.6798C79.8872 81.8839 79.8408 82.1066 79.8408 82.3478C79.8408 82.6013 79.9027 82.8302 80.0264 83.0343C80.1562 83.2384 80.3418 83.4239 80.583 83.5909C80.8242 83.7517 81.1149 83.9002 81.4551 84.0362C81.8014 84.1723 82.1911 84.2991 82.624 84.4166C83.2425 84.596 83.8115 84.8155 84.3311 85.0753C84.8506 85.3351 85.2959 85.6443 85.667 86.003C86.0443 86.3556 86.335 86.7607 86.5391 87.2184C86.7493 87.6699 86.8545 88.1739 86.8545 88.7306C86.8545 89.3243 86.7339 89.8531 86.4927 90.317C86.2576 90.7747 85.9299 91.1643 85.5093 91.4859C85.0887 91.8014 84.5877 92.0426 84.0063 92.2096C83.425 92.3704 82.791 92.4508 82.1045 92.4508C81.6777 92.4508 81.251 92.4106 80.8242 92.3302C80.4036 92.256 79.9985 92.1385 79.6089 91.9776C79.2254 91.8168 78.8667 91.6158 78.5327 91.3746C78.1987 91.1334 77.908 90.852 77.6606 90.5304C77.4194 90.2088 77.2277 89.8439 77.0854 89.4357C76.9494 89.0275 76.8813 88.576 76.8813 88.0812H79.4419C79.4543 88.4894 79.5254 88.8388 79.6553 89.1295C79.7852 89.4202 79.9645 89.6583 80.1934 89.8439C80.4284 90.0294 80.7067 90.1655 81.0283 90.2521C81.3561 90.3386 81.7148 90.3819 82.1045 90.3819C82.4508 90.3819 82.757 90.3417 83.0229 90.2613C83.2951 90.1809 83.5239 90.0696 83.7095 89.9274C83.895 89.7851 84.0373 89.615 84.1362 89.4171C84.2352 89.213 84.2847 88.9903 84.2847 88.7491ZM99.4958 88.7491C99.4958 88.5079 99.4525 88.2822 99.3659 88.0719C99.2855 87.8616 99.1433 87.6668 98.9392 87.4874C98.7412 87.3019 98.4784 87.1349 98.1506 86.9864C97.829 86.8318 97.427 86.6896 96.9445 86.5597C96.357 86.3989 95.7941 86.1979 95.2561 85.9566C94.7242 85.7154 94.2541 85.4247 93.8459 85.0846C93.4377 84.7444 93.1099 84.3486 92.8625 83.8971C92.6213 83.4456 92.5007 82.9261 92.5007 82.3385C92.5007 81.7695 92.6213 81.253 92.8625 80.7892C93.1037 80.3253 93.4377 79.9295 93.8645 79.6017C94.2912 79.2739 94.7953 79.0234 95.3767 78.8502C95.958 78.6708 96.5889 78.5812 97.2692 78.5812C97.9743 78.5812 98.6175 78.6832 99.1989 78.8873C99.7865 79.0914 100.291 79.379 100.711 79.7501C101.132 80.115 101.46 80.5511 101.695 81.0582C101.93 81.5654 102.047 82.122 102.047 82.7281H99.5051C99.4927 82.4251 99.437 82.1468 99.3381 81.8932C99.2453 81.6396 99.1031 81.4231 98.9113 81.2438C98.7258 81.0582 98.4908 80.916 98.2063 80.817C97.9279 80.7119 97.6001 80.6593 97.2229 80.6593C96.8765 80.6593 96.5673 80.7026 96.2951 80.7892C96.0292 80.8696 95.8034 80.9871 95.6179 81.1417C95.4323 81.2901 95.2901 81.4695 95.1911 81.6798C95.0983 81.8839 95.052 82.1066 95.052 82.3478C95.052 82.6013 95.1138 82.8302 95.2375 83.0343C95.3674 83.2384 95.5529 83.4239 95.7941 83.5909C96.0354 83.7517 96.326 83.9002 96.6662 84.0362C97.0126 84.1723 97.4022 84.2991 97.8352 84.4166C98.4536 84.596 99.0227 84.8155 99.5422 85.0753C100.062 85.3351 100.507 85.6443 100.878 86.003C101.255 86.3556 101.546 86.7607 101.75 87.2184C101.96 87.6699 102.066 88.1739 102.066 88.7306C102.066 89.3243 101.945 89.8531 101.704 90.317C101.469 90.7747 101.141 91.1643 100.72 91.4859C100.3 91.8014 99.7989 92.0426 99.2175 92.2096C98.6361 92.3704 98.0022 92.4508 97.3156 92.4508C96.8889 92.4508 96.4621 92.4106 96.0354 92.3302C95.6148 92.256 95.2097 92.1385 94.82 91.9776C94.4366 91.8168 94.0778 91.6158 93.7439 91.3746C93.4099 91.1334 93.1192 90.852 92.8718 90.5304C92.6306 90.2088 92.4388 89.8439 92.2966 89.4357C92.1605 89.0275 92.0925 88.576 92.0925 88.0812H94.653C94.6654 88.4894 94.7365 88.8388 94.8664 89.1295C94.9963 89.4202 95.1757 89.6583 95.4045 89.8439C95.6395 90.0294 95.9178 90.1655 96.2395 90.2521C96.5673 90.3386 96.926 90.3819 97.3156 90.3819C97.662 90.3819 97.9681 90.3417 98.2341 90.2613C98.5062 90.1809 98.7351 90.0696 98.9206 89.9274C99.1062 89.7851 99.2484 89.615 99.3474 89.4171C99.4463 89.213 99.4958 88.9903 99.4958 88.7491ZM108.268 78.7667H116.08V80.8727H113.445V90.1778H116.08V92.2745H108.268V90.1778H110.838V80.8727H108.268V78.7667ZM131.811 92.2745H129.213L125.456 83.5631V92.2745H122.83V78.7667H125.456L129.185 87.441L129.194 78.7667H131.811V92.2745ZM147.402 90.6974C147.235 90.9015 147.006 91.1087 146.716 91.319C146.425 91.5292 146.079 91.721 145.677 91.8941C145.281 92.0611 144.835 92.1972 144.341 92.3024C143.846 92.4075 143.314 92.4601 142.745 92.4601C141.978 92.4601 141.285 92.324 140.667 92.0519C140.048 91.7797 139.519 91.387 139.08 90.8736C138.641 90.3603 138.301 89.7325 138.06 88.9903C137.825 88.242 137.707 87.3946 137.707 86.4483V84.6114C137.707 83.6651 137.831 82.8209 138.078 82.0787C138.332 81.3303 138.678 80.6964 139.117 80.1769C139.563 79.6573 140.082 79.2615 140.676 78.9894C141.276 78.7172 141.925 78.5812 142.624 78.5812C143.385 78.5812 144.047 78.677 144.61 78.8688C145.179 79.0605 145.658 79.3388 146.048 79.7037C146.437 80.0624 146.74 80.5016 146.957 81.0211C147.179 81.5406 147.325 82.1251 147.393 82.7745H144.851C144.764 82.0818 144.554 81.5623 144.22 81.2159C143.892 80.8634 143.382 80.6871 142.689 80.6871C142.355 80.6871 142.046 80.7737 141.762 80.9469C141.477 81.1139 141.23 81.3613 141.019 81.6891C140.809 82.0169 140.642 82.4251 140.518 82.9137C140.395 83.3961 140.333 83.9558 140.333 84.5929V86.4483C140.339 87.7101 140.549 88.678 140.964 89.3522C141.378 90.0201 142.012 90.3572 142.866 90.3634C143.07 90.3634 143.271 90.3479 143.469 90.317C143.666 90.2861 143.852 90.2428 144.025 90.1871C144.198 90.1315 144.35 90.0696 144.48 90.0016C144.616 89.9274 144.718 89.85 144.786 89.7696L144.795 87.3204H142.559V85.3722H147.393L147.402 90.6974ZM156.026 90.7809C156.026 90.5397 156.067 90.317 156.147 90.1129C156.227 89.9026 156.345 89.7233 156.5 89.5748C156.654 89.4202 156.843 89.2996 157.065 89.213C157.288 89.1202 157.539 89.0738 157.817 89.0738C158.095 89.0738 158.346 89.1202 158.568 89.213C158.791 89.2996 158.977 89.4202 159.125 89.5748C159.28 89.7233 159.397 89.9026 159.478 90.1129C159.564 90.317 159.607 90.5397 159.607 90.7809C159.607 91.0159 159.564 91.2355 159.478 91.4396C159.397 91.6437 159.28 91.823 159.125 91.9776C158.977 92.1261 158.791 92.2436 158.568 92.3302C158.346 92.4168 158.095 92.4601 157.817 92.4601C157.539 92.4601 157.288 92.4168 157.065 92.3302C156.843 92.2436 156.654 92.1261 156.5 91.9776C156.345 91.823 156.227 91.6437 156.147 91.4396C156.067 91.2355 156.026 91.0159 156.026 90.7809ZM171.238 90.7809C171.238 90.5397 171.278 90.317 171.358 90.1129C171.439 89.9026 171.556 89.7233 171.711 89.5748C171.865 89.4202 172.054 89.2996 172.277 89.213C172.499 89.1202 172.75 89.0738 173.028 89.0738C173.306 89.0738 173.557 89.1202 173.779 89.213C174.002 89.2996 174.188 89.4202 174.336 89.5748C174.491 89.7233 174.608 89.9026 174.689 90.1129C174.775 90.317 174.819 90.5397 174.819 90.7809C174.819 91.0159 174.775 91.2355 174.689 91.4396C174.608 91.6437 174.491 91.823 174.336 91.9776C174.188 92.1261 174.002 92.2436 173.779 92.3302C173.557 92.4168 173.306 92.4601 173.028 92.4601C172.75 92.4601 172.499 92.4168 172.277 92.3302C172.054 92.2436 171.865 92.1261 171.711 91.9776C171.556 91.823 171.439 91.6437 171.358 91.4396C171.278 91.2355 171.238 91.0159 171.238 90.7809Z" fill="#015CFF"/>
</svg>
