<svg width="13" height="14" viewBox="0 0 13 14" fill="none" xmlns="http://www.w3.org/2000/svg">
<path d="M10.9986 6.80847H2.00138C1.29152 6.80847 0.716064 7.29891 0.716064 7.9039V11.7379C0.716064 12.3429 1.29152 12.8333 2.00138 12.8333H10.9986C11.7084 12.8333 12.2839 12.3429 12.2839 11.7379V7.9039C12.2839 7.29891 11.7084 6.80847 10.9986 6.80847Z" fill="white"/>
<path fill-rule="evenodd" clip-rule="evenodd" d="M2.0014 7.47512C1.62617 7.47512 1.43218 7.7213 1.43218 7.90388V11.7379C1.43218 11.9205 1.62617 12.1666 2.0014 12.1666H10.9986C11.3738 12.1666 11.5678 11.9205 11.5678 11.7379V7.90388C11.5678 7.7213 11.3738 7.47512 10.9986 7.47512H2.0014ZM0 7.90388C0 6.87649 0.956919 6.14178 2.0014 6.14178H10.9986C12.0431 6.14178 13 6.87649 13 7.90388V11.7379C13 12.7653 12.0431 13.5 10.9986 13.5H2.0014C0.956919 13.5 0 12.7653 0 11.7379V7.90388Z" fill="white"/>
<path fill-rule="evenodd" clip-rule="evenodd" d="M6.49981 1.83334C5.81031 1.83334 5.16447 2.05878 4.70108 2.4389C4.24062 2.81661 4.00262 3.30946 4.00262 3.80254V6.55107L3.28653 6.55138L2.57043 6.55136V3.80254C2.57043 2.89746 3.00951 2.04942 3.75427 1.4385C4.4961 0.829969 5.48488 0.5 6.49981 0.5C7.51474 0.5 8.50352 0.829969 9.24535 1.4385C9.58944 1.72075 9.80058 2.0891 9.92579 2.42488C10.052 2.76338 10.108 3.11381 10.108 3.4103V6.55138C10.108 6.91957 9.78741 7.21805 9.39192 7.21805C8.99643 7.21805 8.67583 6.91957 8.67583 6.55138V3.4103C8.67583 3.25805 8.645 3.05574 8.57281 2.86215C8.49961 2.66585 8.40077 2.52276 8.29853 2.4389C7.83515 2.05878 7.18931 1.83334 6.49981 1.83334ZM3.28653 7.21805C2.89104 7.21805 2.57043 6.91955 2.57043 6.55136L3.28653 6.55138L4.00262 6.55107C4.00262 6.91926 3.68201 7.21805 3.28653 7.21805Z" fill="white"/>
</svg>
