<svg width="129" height="21" viewBox="0 0 129 21" fill="none" xmlns="http://www.w3.org/2000/svg">
  <path d="M20.372 17.7288L15.762 10.4288L20.172 3.27877C20.702 2.41877 20.432 1.29877 19.582 0.768768C18.732 0.238768 17.602 0.508768 17.072 1.35877L12.072 9.46877C11.702 10.0688 11.732 10.7888 12.062 11.3488C12.082 11.3888 12.092 11.4288 12.122 11.4588L17.302 19.6588C17.842 20.5088 18.962 20.7588 19.812 20.2288C20.662 19.7088 20.912 18.5788 20.372 17.7288Z" fill="white"/>
  <path d="M8.53204 11.4388C8.54204 11.4288 8.54204 11.4088 8.55204 11.3988C8.60204 11.3088 8.64204 11.2288 8.68204 11.1388C8.69204 11.1088 8.70204 11.0888 8.71204 11.0588C8.74204 10.9788 8.76204 10.8888 8.78204 10.7988C8.79204 10.7688 8.79204 10.7388 8.79204 10.7088C8.80204 10.6188 8.81204 10.5388 8.80204 10.4488C8.80204 10.4188 8.80204 10.3888 8.79204 10.3588C8.79204 10.2588 8.78204 10.1788 8.76204 10.0888C8.75204 10.0588 8.74204 10.0288 8.73204 9.99883C8.71204 9.91883 8.68204 9.83883 8.65204 9.76883C8.63204 9.72883 8.61204 9.68883 8.60204 9.64883C8.58204 9.59883 8.56204 9.54883 8.53204 9.49883L3.36204 1.34883C2.82204 0.498826 1.70204 0.248827 0.852038 0.778827C0.00203758 1.31883 -0.257962 2.44883 0.282038 3.29883L4.83204 10.4888L0.362038 17.7388C-0.167962 18.5988 0.102038 19.7188 0.952038 20.2488C1.81204 20.7788 2.93204 20.5088 3.46204 19.6588L8.47204 11.5288C8.48204 11.5188 8.49204 11.4988 8.49204 11.4888L8.53204 11.4388Z" fill="#015CFF"/>
  <path d="M7.25204 0.778827C8.10204 0.248827 9.23204 0.498826 9.76204 1.34883L11.852 4.65883C12.392 5.50883 12.132 6.63883 11.282 7.16883C10.432 7.70883 9.30204 7.44883 8.77204 6.59883L6.69204 3.29883C6.15204 2.44883 6.40204 1.31883 7.25204 0.778827Z" fill="#015CFF"/>
  <path d="M9.31202 13.8287C10.162 13.2887 11.292 13.5487 11.822 14.3987L13.932 17.7387C14.472 18.5887 14.212 19.7187 13.362 20.2487C12.512 20.7887 11.382 20.5287 10.852 19.6787L8.74202 16.3387C8.21202 15.4887 8.46202 14.3687 9.31202 13.8287Z" fill="white"/>
  <path d="M39.792 8.53875L34.972 0.46875H30.212L37.762 11.8488V20.4988H41.652V11.8488L49.202 0.46875H44.672L39.792 8.53875Z" fill="white"/>
  <path d="M54.652 0.46875H50.762V20.4988H54.652V0.46875Z" fill="white"/>
  <path d="M62.972 11.8488H71.982V8.50875H62.972V3.91875H72.482V0.46875H59.082V20.4988H72.982V16.9888H62.972V11.8488Z" fill="white"/>
  <path d="M80.3821 0.46875H76.4921V20.4988H88.7321V16.9888H80.3821V0.46875Z" fill="white"/>
  <path d="M105.782 2.65875C104.732 1.87875 103.532 1.31875 102.222 0.97875C100.912 0.63875 99.602 0.46875 98.312 0.46875H91.152V20.4988H98.312C99.602 20.4988 100.912 20.3088 102.222 19.9188C103.532 19.5388 104.732 18.9287 105.782 18.1287C106.832 17.3188 107.702 16.2688 108.362 15.0087C109.022 13.7487 109.352 12.2188 109.352 10.4788C109.352 8.60875 109.022 7.00875 108.362 5.73875C107.702 4.47875 106.832 3.43875 105.782 2.65875ZM105.212 10.4788C105.212 11.7688 104.982 12.8488 104.542 13.6888C104.102 14.5288 103.512 15.1988 102.812 15.6888C102.102 16.1788 101.302 16.5387 100.422 16.7388C99.542 16.9487 98.642 17.0487 97.752 17.0487H95.042V3.85875H97.752C98.642 3.85875 99.542 3.94875 100.432 4.12875C101.302 4.30875 102.102 4.63875 102.812 5.11875C103.512 5.59875 104.092 6.26875 104.532 7.12875C104.982 7.98875 105.212 9.11875 105.212 10.4788Z" fill="white"/>
  <path d="M121.512 9.89875L127.622 0.46875H123.122L119.242 6.98875L115.312 0.46875H110.612L116.842 9.81875L109.922 20.4988H114.622L119.112 12.9788L123.792 20.4988H128.692L121.512 9.89875Z" fill="white"/>
</svg>
