<svg width="16" height="5" viewBox="0 0 16 5" fill="none" xmlns="http://www.w3.org/2000/svg">
<path fill-rule="evenodd" clip-rule="evenodd" d="M13.7313 0.991699C14.6332 0.991699 15.3643 1.72279 15.3643 2.62463C15.3643 3.52647 14.6332 4.25756 13.7313 4.25756C12.8295 4.25756 12.0984 3.52647 12.0984 2.62463C12.0984 1.72279 12.8295 0.991699 13.7313 0.991699ZM8.01607 0.991699C8.91791 0.991699 9.649 1.72279 9.649 2.62463C9.649 3.52647 8.91791 4.25756 8.01606 4.25756C7.11422 4.25756 6.38313 3.52647 6.38313 2.62463C6.38313 1.72279 7.11422 0.991699 8.01607 0.991699ZM3.93374 2.62463C3.93374 1.72279 3.20265 0.991699 2.3008 0.991699C1.39896 0.991699 0.667871 1.72279 0.667871 2.62463C0.667871 3.52647 1.39896 4.25756 2.3008 4.25756C3.20265 4.25756 3.93374 3.52647 3.93374 2.62463Z" fill="#6980A6"/>
</svg>
