<svg width="74" height="73" viewBox="0 0 74 73" fill="none" xmlns="http://www.w3.org/2000/svg">
<path d="M73.1562 36.3965C73.1562 56.4977 56.861 72.7929 36.7598 72.7929C16.6585 72.7929 0.363281 56.4977 0.363281 36.3965C0.363281 16.2953 16.6585 0 36.7598 0C56.861 0 73.1562 16.2953 73.1562 36.3965Z" fill="white" fill-opacity="0.03"/>
<path fill-rule="evenodd" clip-rule="evenodd" d="M32.932 18.1907C34.8625 17.352 35.4248 17.1271 35.7387 17.0709C36.2588 16.9772 36.6899 16.9772 37.2147 17.0662C37.5942 17.1318 37.9878 17.2911 40.0636 18.1954C54.6593 24.5538 57.5503 25.8236 57.6628 25.9033C57.9158 26.086 58.0001 26.3531 57.9955 27.0185C57.9955 27.8525 57.9017 28.068 57.4332 28.2883C57.2036 28.396 57.1286 28.4054 56.2618 28.4054H55.3434V28.8927C55.3434 29.5956 55.2778 29.8439 55.0295 30.1016C54.9029 30.2328 54.7483 30.3359 54.6265 30.3687C54.4859 30.4062 49.3786 30.4202 36.4978 30.4202C23.617 30.4202 18.5097 30.4062 18.3691 30.3687C18.2473 30.3359 18.0927 30.2328 17.9662 30.1016C17.7178 29.8439 17.6569 29.5956 17.6569 28.8927V28.4054H16.7338C15.867 28.4054 15.792 28.396 15.5624 28.2883C15.0939 28.068 14.9955 27.8525 15.0002 27.0185C15.0002 26.3437 15.0704 26.1048 15.3375 25.908C15.464 25.8143 18.416 24.521 32.932 18.1907ZM52.6866 26.6014L44.7492 23.1388C37.0154 19.7624 36.5609 19.5541 36.2156 19.6703C36.1799 19.6823 36.1454 19.6978 36.1042 19.7136C36.0105 19.7511 32.6228 21.227 28.5791 22.9888C25.9669 24.1286 23.5772 25.1728 22.1436 25.7992C21.3554 26.1436 20.8563 26.3617 20.7682 26.4L20.3137 26.5968V27.1825V27.7635H36.4978H52.6866V27.1825V26.6014ZM23.0687 46.6091V39.2059V32.134C23.0687 31.9484 23.2191 31.7979 23.4048 31.7979H24.3947H25.3893C25.5749 31.7979 25.7254 31.9484 25.7254 32.134V39.2059V46.6091H28.429H31.1373V39.2059V32.134C31.1373 31.9484 31.2878 31.7979 31.4734 31.7979H32.4633H33.4579C33.6436 31.7979 33.7941 31.9484 33.7941 32.134V39.2059V46.6091H36.4977H39.2059V39.2059V32.134C39.2059 31.9484 39.3564 31.7979 39.5421 31.7979H40.532H41.5266C41.7122 31.7979 41.8627 31.9484 41.8627 32.134V39.2059V46.6091H44.5663H47.2746V39.2059V32.134C47.2746 31.9484 47.4251 31.7979 47.6107 31.7979H48.6006H49.5952C49.7809 31.7979 49.9314 31.9484 49.9314 32.134V39.2059V46.6091H51.74C53.7033 46.6091 53.9001 46.6326 54.3358 46.8856C54.8278 47.1714 55.198 47.7243 55.2917 48.3053C55.3198 48.4693 55.3386 49.3596 55.3386 50.2874L55.3433 51.9695H55.9992C56.8239 51.9695 57.1144 52.0257 57.4377 52.2413C57.6345 52.3725 57.7282 52.4755 57.8454 52.7145C57.9906 53.005 57.9953 53.0472 58 53.6095C58 54.2514 57.9531 54.4013 57.7001 54.5466C57.5736 54.6216 55.9102 54.6262 36.4977 54.6262C17.0851 54.6262 15.4217 54.6216 15.2952 54.5466C15.0422 54.4013 15 54.2514 15 53.6095C15 53.0472 15.0047 53.005 15.1499 52.7145C15.2671 52.4755 15.3608 52.3725 15.5576 52.2413C15.8809 52.0257 16.1714 51.9695 16.9961 51.9695H17.6568V50.2874C17.6568 49.3596 17.6755 48.4693 17.7036 48.3053C17.7973 47.7243 18.1675 47.1714 18.6595 46.8856C19.0952 46.6326 19.292 46.6091 21.2553 46.6091H23.0687ZM52.6865 51.9695V50.62V49.2659H36.4977H20.3135V50.62V51.9695H36.4977H52.6865Z" fill="url(#paint0_linear)"/>
<path d="M64 24C64 28.4183 60.4183 32 56 32C51.5817 32 48 28.4183 48 24C48 19.5817 51.5817 16 56 16C60.4183 16 64 19.5817 64 24Z" fill="#0B1A35"/>
<path fill-rule="evenodd" clip-rule="evenodd" d="M56.1349 19.7946C53.7869 19.7946 51.8835 21.698 51.8835 24.046C51.8835 26.394 53.7869 28.2975 56.1349 28.2975C58.4829 28.2975 60.3863 26.394 60.3863 24.046C60.3863 21.698 58.4829 19.7946 56.1349 19.7946ZM50.0889 24.046C50.0889 20.7069 52.7958 18 56.1349 18C59.474 18 62.1809 20.7069 62.1809 24.046C62.1809 27.3852 59.474 30.0921 56.1349 30.0921C52.7958 30.0921 50.0889 27.3852 50.0889 24.046Z" fill="url(#paint1_linear)"/>
<path d="M54.0767 24.042C54.0767 25.3332 54.7147 26.6318 56.1485 26.6318C57.5747 26.6318 58.2203 25.3332 58.2203 24.042C58.2203 22.7509 57.5747 21.4598 56.1485 21.4598C54.7147 21.4598 54.0767 22.7509 54.0767 24.042ZM57.1319 24.042C57.1319 24.9654 56.8616 25.686 56.1485 25.686C55.4279 25.686 55.1576 24.9654 55.1576 24.042C55.1576 23.1187 55.4279 22.4056 56.1485 22.4056C56.8616 22.4056 57.1319 23.1187 57.1319 24.042Z" fill="white"/>
<defs>
<linearGradient id="paint0_linear" x1="36.5373" y1="17" x2="36.5373" y2="54.6262" gradientUnits="userSpaceOnUse">
<stop stop-color="#015CFF"/>
<stop offset="1" stop-color="#0FD4FF"/>
</linearGradient>
<linearGradient id="paint1_linear" x1="59.874" y1="18" x2="59.874" y2="29.9372" gradientUnits="userSpaceOnUse">
<stop stop-color="#015CFF"/>
<stop offset="1" stop-color="#0FD4FF"/>
</linearGradient>
</defs>
</svg>
