<svg width="76" height="74" viewBox="0 0 76 74" fill="none" xmlns="http://www.w3.org/2000/svg">
<path d="M75.156 36.9186C75.156 57.0198 58.8607 73.315 38.7595 73.315C18.6583 73.315 2.36304 57.0198 2.36304 36.9186C2.36304 16.8174 18.6583 0.522095 38.7595 0.522095C58.8607 0.522095 75.156 16.8174 75.156 36.9186Z" fill="white" fill-opacity="0.03"/>
<path fill-rule="evenodd" clip-rule="evenodd" d="M14.0239 24.6717C14.0239 20.3949 17.4909 16.9279 21.7677 16.9279C26.0446 16.9279 29.5116 20.3949 29.5116 24.6717C29.5116 28.9486 26.0446 32.4156 21.7677 32.4156C17.4909 32.4156 14.0239 28.9486 14.0239 24.6717ZM21.7677 13.3038C15.4894 13.3038 10.3998 18.3934 10.3998 24.6717C10.3998 30.9501 15.4894 36.0396 21.7677 36.0396C28.0461 36.0396 33.1356 30.9501 33.1356 24.6717C33.1356 18.3934 28.0461 13.3038 21.7677 13.3038ZM12.2119 41.9715C9.19694 41.9715 6.30547 43.1692 4.17358 45.3011C2.04168 47.433 0.843994 50.3244 0.843994 53.3394V58.1173C0.843994 59.1181 1.65526 59.9293 2.65601 59.9293C3.65676 59.9293 4.46803 59.1181 4.46803 58.1173V53.3394C4.46803 51.2856 5.2839 49.3159 6.73615 47.8636C8.18841 46.4114 10.1581 45.5955 12.2119 45.5955H31.3237C33.3775 45.5955 35.3472 46.4114 36.7994 47.8636C38.2517 49.3159 39.0675 51.2856 39.0675 53.3394V58.1173C39.0675 59.1181 39.8788 59.9293 40.8796 59.9293C41.8803 59.9293 42.6916 59.1181 42.6916 58.1173V53.3394C42.6916 50.3244 41.4939 47.433 39.362 45.3011C37.2301 43.1692 34.3386 41.9715 31.3237 41.9715H12.2119ZM46.292 43.6411C46.5421 42.6721 47.5305 42.0894 48.4994 42.3396C50.9382 42.9693 53.0988 44.3911 54.642 46.3818C56.1852 48.3725 57.0235 50.8193 57.0254 53.3381V53.3394V58.1173C57.0254 59.1181 56.2141 59.9294 55.2134 59.9294C54.2126 59.9294 53.4013 59.1181 53.4013 58.1173V53.3408V53.3401C53.3999 51.6246 52.8289 49.958 51.7778 48.6021C50.7266 47.2461 49.2547 46.2775 47.5934 45.8486C46.6245 45.5984 46.0418 44.61 46.292 43.6411ZM38.94 13.671C37.9705 13.4228 36.9834 14.0075 36.7352 14.977C36.4869 15.9464 37.0716 16.9336 38.0411 17.1818C39.7068 17.6083 41.1832 18.5771 42.2376 19.9354C43.2919 21.2937 43.8642 22.9642 43.8642 24.6837C43.8642 26.4032 43.2919 28.0737 42.2376 29.432C41.1832 30.7903 39.7068 31.7591 38.0411 32.1856C37.0716 32.4338 36.4869 33.4209 36.7352 34.3904C36.9834 35.3599 37.9705 35.9446 38.94 35.6963C41.3853 35.0702 43.5526 33.6481 45.1004 31.6542C46.6481 29.6602 47.4882 27.2078 47.4882 24.6837C47.4882 22.1595 46.6481 19.7072 45.1004 17.7132C43.5526 15.7192 41.3853 14.2971 38.94 13.671Z" fill="url(#paint0_linear)"/>
<path fill-rule="evenodd" clip-rule="evenodd" d="M56.0463 31.3943C55.6429 30.991 54.9889 30.991 54.5856 31.3943C54.1822 31.7977 54.1822 32.4516 54.5856 32.855L57.0638 35.3332L54.5856 37.8114C54.1822 38.2147 54.1822 38.8687 54.5856 39.272C54.9889 39.6754 55.6429 39.6754 56.0463 39.272L58.5245 36.7938L61.0027 39.272C61.406 39.6754 62.06 39.6754 62.4633 39.272C62.8667 38.8687 62.8667 38.2147 62.4633 37.8114L59.9851 35.3332L62.4633 32.855C62.8667 32.4516 62.8667 31.7977 62.4633 31.3943C62.06 30.991 61.406 30.991 61.0027 31.3943L58.5245 33.8725L56.0463 31.3943Z" fill="white"/>
<defs>
<linearGradient id="paint0_linear" x1="29.1448" y1="13.3038" x2="29.1448" y2="59.3323" gradientUnits="userSpaceOnUse">
<stop stop-color="#015CFF"/>
<stop offset="1" stop-color="#0FD4FF"/>
</linearGradient>
</defs>
</svg>
