<svg width="74" height="73" viewBox="0 0 74 73" fill="none" xmlns="http://www.w3.org/2000/svg">
<path d="M73.1562 36.3965C73.1562 56.4977 56.861 72.7929 36.7598 72.7929C16.6585 72.7929 0.363281 56.4977 0.363281 36.3965C0.363281 16.2953 16.6585 0 36.7598 0C56.861 0 73.1562 16.2953 73.1562 36.3965Z" fill="white" fill-opacity="0.03"/>
<path fill-rule="evenodd" clip-rule="evenodd" d="M28.7126 17.772C29.734 16.7506 31.1193 16.1768 32.5638 16.1768H40.3084C41.7529 16.1768 43.1382 16.7506 44.1596 17.772C45.181 18.7934 45.7549 20.1787 45.7549 21.6233V23.9223H46.8062C47.6756 23.9223 48.3804 24.6271 48.3804 25.4965C48.3804 26.3659 47.6756 27.0707 46.8062 27.0707H45.7549V51.0283H51.9253C53.1945 51.0283 54.2233 49.9994 54.2233 48.7302V35.8725C54.2233 35.0031 54.9281 34.2983 55.7976 34.2983C56.667 34.2983 57.3718 35.0031 57.3718 35.8725V48.7302C57.3718 51.7382 54.9333 54.1767 51.9253 54.1767H20.947C17.939 54.1767 15.5005 51.7382 15.5005 48.7302V29.3688C15.5005 26.3608 17.939 23.9223 20.947 23.9223H27.1173V21.6233C27.1173 20.1787 27.6911 18.7934 28.7126 17.772ZM42.6065 21.6233V23.9223H30.2657V21.6233C30.2657 21.0138 30.5078 20.4292 30.9388 19.9983C31.3698 19.5673 31.9543 19.3252 32.5638 19.3252H40.3084C40.9179 19.3252 41.5024 19.5673 41.9334 19.9983C42.3643 20.4292 42.6065 21.0138 42.6065 21.6233ZM20.947 27.0707H27.1173V51.0283H20.947C19.6778 51.0283 18.6489 49.9994 18.6489 48.7302V29.3688C18.6489 28.0996 19.6778 27.0707 20.947 27.0707ZM30.2657 27.0707V51.0283H42.6065V27.0707H30.2657ZM51.8834 26.21C51.8834 23.862 53.7868 21.9586 56.1348 21.9586C58.4828 21.9586 60.3863 23.862 60.3863 26.21C60.3863 28.558 58.4828 30.4615 56.1348 30.4615C53.7868 30.4615 51.8834 28.558 51.8834 26.21ZM56.1348 20.164C52.7957 20.164 50.0888 22.8709 50.0888 26.21C50.0888 29.5492 52.7957 32.2561 56.1348 32.2561C59.474 32.2561 62.1809 29.5492 62.1809 26.21C62.1809 22.8709 59.474 20.164 56.1348 20.164Z" fill="url(#paint0_linear)"/>
<path d="M54.0767 26.2061C54.0767 27.4972 54.7147 28.7958 56.1485 28.7958C57.5747 28.7958 58.2203 27.4972 58.2203 26.2061C58.2203 24.9149 57.5747 23.6238 56.1485 23.6238C54.7147 23.6238 54.0767 24.9149 54.0767 26.2061ZM57.1319 26.2061C57.1319 27.1294 56.8616 27.85 56.1485 27.85C55.4279 27.85 55.1576 27.1294 55.1576 26.2061C55.1576 25.2827 55.4279 24.5696 56.1485 24.5696C56.8616 24.5696 57.1319 25.2827 57.1319 26.2061Z" fill="white"/>
<defs>
<linearGradient id="paint0_linear" x1="37.0447" y1="16.1768" x2="37.0447" y2="53.6902" gradientUnits="userSpaceOnUse">
<stop stop-color="#015CFF"/>
<stop offset="1" stop-color="#0FD4FF"/>
</linearGradient>
</defs>
</svg>
