<svg width="74" height="73" viewBox="0 0 74 73" fill="none" xmlns="http://www.w3.org/2000/svg">
<path d="M73.1562 36.3965C73.1562 56.4977 56.861 72.7929 36.7598 72.7929C16.6585 72.7929 0.363281 56.4977 0.363281 36.3965C0.363281 16.2953 16.6585 0 36.7598 0C56.861 0 73.1562 16.2953 73.1562 36.3965Z" fill="white" fill-opacity="0.03"/>
<path fill-rule="evenodd" clip-rule="evenodd" d="M33.7632 37.3025C33.3598 36.8992 32.7059 36.8992 32.3025 37.3025C31.8992 37.7059 31.8992 38.3598 32.3025 38.7632L34.7807 41.2414L32.3025 43.7196C31.8992 44.1229 31.8992 44.7769 32.3025 45.1802C32.7059 45.5836 33.3598 45.5836 33.7632 45.1802L36.2414 42.7021L38.7196 45.1802C39.1229 45.5836 39.7769 45.5836 40.1803 45.1802C40.5836 44.7769 40.5836 44.1229 40.1803 43.7196L37.7021 41.2414L40.1803 38.7632C40.5836 38.3598 40.5836 37.7059 40.1803 37.3025C39.7769 36.8992 39.1229 36.8992 38.7196 37.3025L36.2414 39.7807L33.7632 37.3025Z" fill="white"/>
<path fill-rule="evenodd" clip-rule="evenodd" d="M39.1602 17.5401C38.8513 17.2078 38.4103 17 37.9208 17C37.9054 17 37.8899 17.0002 37.8746 17.0006H26.076C24.7298 17.0006 23.4387 17.5354 22.4867 18.4873C21.5348 19.4393 21 20.7304 21 22.0766V49.1483C21 50.4945 21.5348 51.7857 22.4867 52.7376C23.4387 53.6895 24.7298 54.2243 26.076 54.2243H46.3798C47.726 54.2243 49.0171 53.6895 49.969 52.7376C50.921 51.7857 51.4558 50.4945 51.4558 49.1483V30.5937C51.4564 30.5745 51.4567 30.5553 51.4567 30.5359C51.4567 30.0464 51.2489 29.6054 50.9166 29.2965L39.1602 17.5401ZM36.2288 20.3847H26.076C25.6273 20.3847 25.1969 20.563 24.8797 20.8803C24.5624 21.1976 24.3841 21.6279 24.3841 22.0766V49.1483C24.3841 49.597 24.5624 50.0274 24.8797 50.3447C25.1969 50.662 25.6273 50.8402 26.076 50.8402H46.3798C46.8285 50.8402 47.2588 50.662 47.5761 50.3447C47.8934 50.0274 48.0717 49.597 48.0717 49.1483V32.228H37.9208C36.9863 32.228 36.2288 31.4704 36.2288 30.5359V20.3847ZM45.6781 28.8439H39.6129V22.7786L45.6781 28.8439Z" fill="url(#paint0_linear)"/>
<defs>
<linearGradient id="paint0_linear" x1="36.2548" y1="17" x2="36.2548" y2="54.2243" gradientUnits="userSpaceOnUse">
<stop stop-color="#015CFF"/>
<stop offset="1" stop-color="#0FD4FF"/>
</linearGradient>
</defs>
</svg>
