<svg width="74" height="74" viewBox="0 0 74 74" fill="none" xmlns="http://www.w3.org/2000/svg">
<path d="M73.6556 37.2197C73.6556 57.3209 57.3604 73.6162 37.2591 73.6162C17.1579 73.6162 0.862671 57.3209 0.862671 37.2197C0.862671 17.1185 17.1579 0.823242 37.2591 0.823242C57.3604 0.823242 73.6556 17.1185 73.6556 37.2197Z" fill="white" fill-opacity="0.03"/>
<path fill-rule="evenodd" clip-rule="evenodd" d="M29.6875 24.625C29.6875 20.4829 33.0454 17.125 37.1875 17.125C41.3296 17.125 44.6875 20.4829 44.6875 24.625C44.6875 28.7671 41.3296 32.125 37.1875 32.125C33.0454 32.125 29.6875 28.7671 29.6875 24.625ZM37.1875 13.125C30.8362 13.125 25.6875 18.2737 25.6875 24.625C25.6875 30.9763 30.8362 36.125 37.1875 36.125C43.5388 36.125 48.6875 30.9763 48.6875 24.625C48.6875 18.2737 43.5388 13.125 37.1875 13.125ZM28.875 41.625C25.825 41.625 22.8999 42.8366 20.7433 44.9933C18.5866 47.1499 17.375 50.075 17.375 53.125V57.875C17.375 58.9796 18.2704 59.875 19.375 59.875C20.4796 59.875 21.375 58.9796 21.375 57.875V53.125C21.375 51.1359 22.1652 49.2282 23.5717 47.8217C24.9782 46.4152 26.8859 45.625 28.875 45.625H45.5C47.4891 45.625 49.3968 46.4152 50.8033 47.8217C52.2098 49.2282 53 51.1359 53 53.125V57.875C53 58.9796 53.8954 59.875 55 59.875C56.1046 59.875 57 58.9796 57 57.875V53.125C57 50.075 55.7884 47.1499 53.6317 44.9933C51.4751 42.8366 48.55 41.625 45.5 41.625H28.875Z" fill="url(#paint0_linear)"/>
<path fill-rule="evenodd" clip-rule="evenodd" d="M56.0485 31.111C56.4359 30.7236 57.0641 30.7236 57.4515 31.111L63.7015 37.361C64.0889 37.7484 64.0889 38.3766 63.7015 38.764C63.3141 39.1514 62.6859 39.1514 62.2985 38.764L56.0485 32.514C55.6611 32.1266 55.6611 31.4984 56.0485 31.111Z" fill="white"/>
<path fill-rule="evenodd" clip-rule="evenodd" d="M63.7015 31.111C64.0889 31.4984 64.0889 32.1266 63.7015 32.514L57.4515 38.764C57.0641 39.1514 56.4359 39.1514 56.0485 38.764C55.6611 38.3766 55.6611 37.7484 56.0485 37.361L62.2985 31.111C62.6859 30.7236 63.3141 30.7236 63.7015 31.111Z" fill="white"/>
<defs>
<linearGradient id="paint0_linear" x1="37.2219" y1="13.125" x2="37.2219" y2="59.875" gradientUnits="userSpaceOnUse">
<stop stop-color="#015CFF"/>
<stop offset="1" stop-color="#0FD4FF"/>
</linearGradient>
</defs>
</svg>
