<svg width="21" height="23" viewBox="0 0 21 23" fill="none" xmlns="http://www.w3.org/2000/svg">
  <path fill-rule="evenodd" clip-rule="evenodd" d="M4.33671 0.839585C3.40048 0.839585 2.64152 1.59855 2.64152 2.53477V21.7148H0.567685C0.25561 21.7148 0.0026226 21.9678 0.0026226 22.2799C0.0026226 22.592 0.25561 22.8449 0.567685 22.8449H20.4324C20.7444 22.8449 20.9974 22.592 20.9974 22.2799C20.9974 21.9678 20.7444 21.7148 20.4324 21.7148H18.4117V2.53477C18.4117 1.59855 17.6528 0.839585 16.7165 0.839585H4.33671ZM17.2816 21.7148V2.53477C17.2816 2.2227 17.0286 1.96971 16.7165 1.96971H4.33671C4.02463 1.96971 3.77165 2.2227 3.77165 2.53477V21.7148H17.2816ZM6.40256 4.06102C6.09049 4.06102 5.8375 4.31401 5.8375 4.62608V7.22537C5.8375 7.53745 6.09049 7.79043 6.40256 7.79043H9.00185C9.31393 7.79043 9.56691 7.53744 9.56691 7.22537V4.62608C9.56691 4.314 9.31393 4.06102 9.00185 4.06102H6.40256ZM6.7416 6.88633V4.96512H8.66281V6.88633H6.7416ZM11.4883 4.62608C11.4883 4.31401 11.7413 4.06102 12.0533 4.06102H14.6526C14.9647 4.06102 15.2177 4.314 15.2177 4.62608V7.22537C15.2177 7.53744 14.9647 7.79043 14.6526 7.79043H12.0533C11.7413 7.79043 11.4883 7.53745 11.4883 7.22537V4.62608ZM12.3924 4.96512V6.88633H14.3136V4.96512H12.3924ZM6.40256 9.70205C6.09049 9.70205 5.8375 9.95504 5.8375 10.2671V12.8664C5.8375 13.1785 6.09049 13.4315 6.40256 13.4315H9.00185C9.31393 13.4315 9.56691 13.1785 9.56691 12.8664V10.2671C9.56691 9.95504 9.31393 9.70205 9.00185 9.70205H6.40256ZM6.7416 12.5274V10.6062H8.66281V12.5274H6.7416ZM11.4883 10.2671C11.4883 9.95504 11.7413 9.70205 12.0533 9.70205H14.6526C14.9647 9.70205 15.2177 9.95504 15.2177 10.2671V12.8664C15.2177 13.1785 14.9647 13.4315 14.6526 13.4315H12.0533C11.7413 13.4315 11.4883 13.1785 11.4883 12.8664V10.2671ZM12.3924 10.6062V12.5274H14.3136V10.6062H12.3924ZM6.40256 15.3587C6.09049 15.3587 5.8375 15.6117 5.8375 15.9238V18.5231C5.8375 18.8352 6.09049 19.0881 6.40256 19.0881H9.00185C9.31393 19.0881 9.56691 18.8351 9.56691 18.5231V15.9238C9.56691 15.6117 9.31393 15.3587 9.00185 15.3587H6.40256ZM6.7416 18.184V16.2628H8.66281V18.184H6.7416ZM11.4883 15.9238C11.4883 15.6117 11.7413 15.3587 12.0533 15.3587H14.6526C14.9647 15.3587 15.2177 15.6117 15.2177 15.9238V18.5231C15.2177 18.8351 14.9647 19.0881 14.6526 19.0881H12.0533C11.7413 19.0881 11.4883 18.8352 11.4883 18.5231V15.9238ZM12.3924 16.2628V18.184H14.3136V16.2628H12.3924Z" fill="white"/>
</svg>
