<svg width="35" height="40" viewBox="0 0 35 40" fill="none" xmlns="http://www.w3.org/2000/svg">
<path d="M21.2402 1.31934H8.7074C7.75771 1.31934 6.84693 1.66363 6.1754 2.27648C5.50387 2.88932 5.12661 3.72052 5.12661 4.58722V17.8127M21.2402 1.31934L33.7729 12.7569M21.2402 1.31934L21.2401 12.7569L33.7729 12.7569M33.7729 12.7569V35.3462C33.7729 36.2129 33.3957 37.0441 32.7242 37.6569C32.0526 38.2698 31.1418 38.6141 30.1922 38.6141H8.7074C7.75771 38.6141 6.84693 38.2698 6.1754 37.6569C5.50387 37.0441 5.12661 36.2129 5.12661 35.3462V33.1073M5.12661 33.1073H28.8209V21.1318V18.3881H1.39954V21.1318V33.1073H5.12661Z" stroke="white" stroke-width="1.15399" stroke-linecap="round" stroke-linejoin="round"/>
<path d="M8.13828 30.8856V27.9936C8.61828 28.5696 9.20628 28.8216 9.85428 28.8216C11.3063 28.8216 12.3983 27.7416 12.3983 25.7736C12.3983 23.8176 11.3063 22.7376 9.85428 22.7376C9.19428 22.7376 8.59428 23.0016 8.13828 23.5536V22.8816H6.29028V30.8856H8.13828ZM10.5143 25.7736C10.5143 26.6496 9.96228 27.1896 9.24228 27.1896C8.84628 27.1896 8.36628 26.9616 8.13828 26.6616V24.8976C8.36628 24.5856 8.84628 24.3696 9.24228 24.3696C9.96228 24.3696 10.5143 24.9096 10.5143 25.7736Z" fill="white"/>
<path d="M17.2684 28.6776H19.1044V20.6736H17.2684V23.5656C16.8004 22.9896 16.1884 22.7376 15.5524 22.7376C14.1004 22.7376 12.9844 23.8776 12.9844 25.7736C12.9844 27.7416 14.1244 28.8216 15.5524 28.8216C16.2004 28.8216 16.7884 28.5576 17.2684 28.0056V28.6776ZM17.2684 26.6616C17.0284 26.9736 16.5484 27.1896 16.1524 27.1896C15.4204 27.1896 14.8804 26.6376 14.8804 25.7736C14.8804 24.9096 15.4204 24.3696 16.1524 24.3696C16.5484 24.3696 17.0284 24.5736 17.2684 24.8856V26.6616Z" fill="white"/>
<path d="M20.8543 28.6776H22.7023V24.4896H23.8783V22.8816H22.7023V22.6416C22.7023 22.1976 22.9543 21.9576 23.3383 21.9576C23.5063 21.9576 23.6743 21.9936 23.8183 22.0776L24.1543 20.8176C23.8663 20.6616 23.4343 20.5536 22.9303 20.5536C21.7303 20.5536 20.8543 21.3576 20.8543 22.5936V22.8816H19.8943V24.4896H20.8543V28.6776Z" fill="white"/>
</svg>
