<svg width="18" height="19" viewBox="0 0 18 19" fill="none" xmlns="http://www.w3.org/2000/svg">
<path fill-rule="evenodd" clip-rule="evenodd" d="M3.64912 2.46748C2.83415 2.46748 2.17348 3.12815 2.17348 3.94312C2.17348 4.7581 2.83415 5.41876 3.64912 5.41876C4.4641 5.41876 5.12476 4.7581 5.12476 3.94312C5.12476 3.12815 4.4641 2.46748 3.64912 2.46748ZM0.205965 3.94312C0.205965 2.04152 1.74752 0.499966 3.64912 0.499966C5.55073 0.499966 7.09228 2.04152 7.09228 3.94312C7.09228 5.84473 5.55073 7.38628 3.64912 7.38628C1.74752 7.38628 0.205965 5.84473 0.205965 3.94312ZM16.6417 1.7719C17.0259 2.15608 17.0259 2.77896 16.6417 3.16315L2.86911 16.9358C2.48493 17.32 1.86205 17.32 1.47786 16.9358C1.09368 16.5516 1.09368 15.9287 1.47786 15.5445L15.2505 1.7719C15.6347 1.38772 16.2576 1.38772 16.6417 1.7719ZM12.9948 14.7645C12.9948 13.9496 13.6555 13.2889 14.4705 13.2889C15.2855 13.2889 15.9461 13.9496 15.9461 14.7645C15.9461 15.5795 15.2855 16.2402 14.4705 16.2402C13.6555 16.2402 12.9948 15.5795 12.9948 14.7645ZM14.4705 11.3214C12.5689 11.3214 11.0273 12.8629 11.0273 14.7645C11.0273 16.6661 12.5689 18.2077 14.4705 18.2077C16.3721 18.2077 17.9136 16.6661 17.9136 14.7645C17.9136 12.8629 16.3721 11.3214 14.4705 11.3214Z" fill="#404A63"/>
</svg>
