<svg width="14" height="13" viewBox="0 0 14 13" fill="none" xmlns="http://www.w3.org/2000/svg">
  <path fill-rule="evenodd" clip-rule="evenodd" d="M7.0001 0.384887C7.33146 0.384887 7.60007 0.653502 7.60007 0.984856V12.0151C7.60007 12.3465 7.33146 12.6151 7.0001 12.6151C6.66875 12.6151 6.40013 12.3465 6.40013 12.0151V0.984856C6.40013 0.653502 6.66875 0.384888 7.0001 0.384887Z" fill="#669DFF"/>
  <path fill-rule="evenodd" clip-rule="evenodd" d="M0.88499 6.5C0.88499 6.16865 1.1536 5.90003 1.48496 5.90003L12.5152 5.90003C12.8466 5.90003 13.1152 6.16865 13.1152 6.5C13.1152 6.83135 12.8466 7.09997 12.5152 7.09997L1.48496 7.09997C1.1536 7.09997 0.88499 6.83135 0.88499 6.5Z" fill="#669DFF"/>
</svg>
