<svg width="19" height="17" viewBox="0 0 19 17" fill="none" xmlns="http://www.w3.org/2000/svg">
<path fill-rule="evenodd" clip-rule="evenodd" d="M7.41667 0.5C6.77573 0.5 6.16104 0.754612 5.70783 1.20783C5.25461 1.66104 5 2.27573 5 2.91667V3.83337H2.41667C1.08198 3.83337 0 4.91535 0 6.25004V14.5834C0 15.9181 1.08198 17 2.41667 17H15.75C17.0847 17 18.1667 15.9181 18.1667 14.5834V6.25004C18.1667 4.91535 17.0847 3.83337 15.75 3.83337H13.1667V2.91667C13.1667 2.27573 12.9121 1.66104 12.4588 1.20783C12.0056 0.754612 11.3909 0.5 10.75 0.5H7.41667ZM11.6667 3.83337V2.91667C11.6667 2.67355 11.5701 2.44039 11.3982 2.26849C11.2263 2.09658 10.9931 2 10.75 2H7.41667C7.17355 2 6.94039 2.09658 6.76849 2.26849C6.59658 2.44039 6.5 2.67355 6.5 2.91667V3.83337H11.6667ZM6.5 5.33337H11.6667V15.5H6.5V5.33337ZM5 5.33337H2.41667C1.91041 5.33337 1.5 5.74378 1.5 6.25004V14.5834C1.5 15.0896 1.91041 15.5 2.41667 15.5H5V5.33337ZM13.1667 15.5V5.33337H15.75C16.2563 5.33337 16.6667 5.74378 16.6667 6.25004V14.5834C16.6667 15.0896 16.2563 15.5 15.75 15.5H13.1667Z" fill="#6980A6"/>
</svg>
