<svg width="20" height="18" viewBox="0 0 20 18" fill="none" xmlns="http://www.w3.org/2000/svg">
    <path fill-rule="evenodd" clip-rule="evenodd" d="M0.361196 14.6374L8.38102 1.24898C8.54981 0.970703 8.78748 0.740631 9.07109 0.580958C9.35469 0.421286 9.67467 0.337402 10.0001 0.337402C10.3256 0.337402 10.6456 0.421286 10.9292 0.580958C11.2128 0.740631 11.4504 0.970703 11.6192 1.24898L19.6391 14.6374C19.8044 14.9238 19.8919 15.2484 19.8928 15.5791C19.8938 15.9098 19.8081 16.2349 19.6443 16.5222C19.4806 16.8094 19.2445 17.0488 18.9595 17.2165C18.6745 17.3842 18.3506 17.4744 18.02 17.478H1.98031C1.64967 17.4744 1.32574 17.3842 1.04076 17.2165C0.755772 17.0488 0.519663 16.8094 0.355918 16.5222C0.192174 16.2349 0.106503 15.9098 0.107429 15.5791C0.108355 15.2484 0.195845 14.9238 0.361196 14.6374ZM10.0873 3.96509C10.7227 3.96509 11.2378 4.48019 11.2378 5.11561V9.98252C11.2378 10.6179 10.7227 11.133 10.0873 11.133C9.45184 11.133 8.93674 10.6179 8.93674 9.98252V5.11561C8.93674 4.48019 9.45185 3.96509 10.0873 3.96509ZM11.5458 14.2266C11.5458 15.0803 10.8537 15.7723 10 15.7723C9.14636 15.7723 8.45431 15.0803 8.45431 14.2266C8.45431 13.3729 9.14636 12.6808 10 12.6808C10.8537 12.6808 11.5458 13.3729 11.5458 14.2266Z" fill="#F87584"/>
</svg>
