<svg width="29" height="28" viewBox="0 0 29 28" fill="none" xmlns="http://www.w3.org/2000/svg">
  <path fill-rule="evenodd" clip-rule="evenodd" d="M1 0.251465C0.447715 0.251465 0 0.69918 0 1.25146C0 1.80375 0.447715 2.25146 1 2.25146H4.9417L5.9632 7.35518C5.96786 7.38574 5.9739 7.41584 5.98126 7.44542L7.97066 17.385L7.97083 17.3858C8.12554 18.1637 8.54883 18.8625 9.16666 19.3598C9.78202 19.8552 10.5513 20.1193 11.341 20.1066H22.8936C23.6832 20.1193 24.4525 19.8552 25.0679 19.3598C25.6859 18.8623 26.1093 18.1632 26.2639 17.385L26.2639 17.385L26.2653 17.3775L28.1699 7.39052C28.2257 7.09777 28.1481 6.79537 27.9581 6.56574C27.7681 6.33612 27.4856 6.20319 27.1876 6.20319H7.7723L6.74193 1.05521C6.64839 0.58785 6.23801 0.251465 5.76138 0.251465H1ZM9.93206 16.9939L8.1726 8.20319H25.9789L24.3015 16.9987C24.2378 17.3152 24.0653 17.5994 23.8137 17.8019C23.5613 18.0051 23.2455 18.113 22.9215 18.1068L22.9023 18.1066H11.3322L11.313 18.1068C10.9891 18.113 10.6732 18.0051 10.4208 17.8019C10.1684 17.5987 9.99547 17.3132 9.93234 16.9954L9.93206 16.9939ZM10.5225 25.3682C10.6935 25.3682 10.8322 25.2295 10.8322 25.0585C10.8322 24.8875 10.6935 24.7489 10.5225 24.7489C10.3515 24.7489 10.2128 24.8875 10.2128 25.0585C10.2128 25.2295 10.3515 25.3682 10.5225 25.3682ZM7.83215 25.0585C7.83215 23.5727 9.03666 22.3682 10.5225 22.3682C12.0083 22.3682 13.2128 23.5727 13.2128 25.0585C13.2128 26.5443 12.0083 27.7489 10.5225 27.7489C9.03666 27.7489 7.83215 26.5443 7.83215 25.0585ZM23.6161 25.3682C23.7871 25.3682 23.9258 25.2295 23.9258 25.0585C23.9258 24.8875 23.7871 24.7489 23.6161 24.7489C23.4451 24.7489 23.3065 24.8875 23.3065 25.0585C23.3065 25.2295 23.4451 25.3682 23.6161 25.3682ZM20.9258 25.0585C20.9258 23.5727 22.1303 22.3682 23.6161 22.3682C25.102 22.3682 26.3065 23.5727 26.3065 25.0585C26.3065 26.5443 25.102 27.7489 23.6161 27.7489C22.1303 27.7489 20.9258 26.5443 20.9258 25.0585Z" fill="white"/>
</svg>
