<svg width="24" height="24" viewBox="0 0 24 24" fill="none" xmlns="http://www.w3.org/2000/svg">
<path fill-rule="evenodd" clip-rule="evenodd" d="M11.5571 0.104604C11.8361 -0.0348681 12.1644 -0.0348681 12.4433 0.104604L23.4525 5.60919C23.7882 5.77703 24.0002 6.12012 24.0002 6.49541C24.0002 6.87071 23.7882 7.2138 23.4525 7.38164L12.4433 12.8862C12.1644 13.0257 11.8361 13.0257 11.5571 12.8862L0.547932 7.38164C0.212256 7.2138 0.000217054 6.87071 0.000217054 6.49541C0.000217054 6.12012 0.212256 5.77703 0.547932 5.60919L11.5571 0.104604ZM3.2066 6.49541L12.0002 10.8922L20.7938 6.49541L12.0002 2.0986L3.2066 6.49541ZM0.104821 17.0615C0.349545 16.572 0.944707 16.3736 1.43415 16.6184L12.0002 21.9014L22.5663 16.6184C23.0557 16.3736 23.6509 16.572 23.8956 17.0615C24.1403 17.5509 23.942 18.1461 23.4525 18.3908L12.4433 23.8954C12.1644 24.0349 11.8361 24.0349 11.5571 23.8954L0.547932 18.3908C0.0584853 18.1461 -0.139902 17.5509 0.104821 17.0615ZM1.43415 11.114C0.944707 10.8693 0.349545 11.0677 0.104821 11.5571C-0.139902 12.0466 0.0584855 12.6417 0.547932 12.8864L11.5571 18.391C11.8361 18.5305 12.1644 18.5305 12.4433 18.391L23.4525 12.8864C23.942 12.6417 24.1403 12.0466 23.8956 11.5571C23.6509 11.0677 23.0557 10.8693 22.5663 11.114L12.0002 16.397L1.43415 11.114Z" fill="#015CFF"/>
</svg>
