<svg width="14" height="17" viewBox="0 0 14 17" fill="none" xmlns="http://www.w3.org/2000/svg">
<path fill-rule="evenodd" clip-rule="evenodd" d="M0.908991 0.909601C1.33094 0.487656 1.90322 0.25061 2.49994 0.25061H7.74971C7.94863 0.25061 8.13939 0.329628 8.28004 0.47028L13.5298 5.72006C13.6705 5.86071 13.7495 6.05148 13.7495 6.25039V14.5C13.7495 15.0968 13.5124 15.669 13.0905 16.091C12.6686 16.5129 12.0963 16.75 11.4996 16.75H2.49994C1.90322 16.75 1.33094 16.5129 0.908991 16.091C0.487046 15.669 0.25 15.0968 0.25 14.5V2.50055C0.25 1.90383 0.487046 1.33155 0.908991 0.909601ZM2.49994 1.75061C2.30104 1.75061 2.11029 1.82962 1.96965 1.97026C1.82901 2.1109 1.75 2.30165 1.75 2.50055V14.5C1.75 14.6989 1.82901 14.8897 1.96965 15.0303C2.11029 15.171 2.30104 15.25 2.49994 15.25H11.4996C11.6984 15.25 11.8892 15.171 12.0298 15.0303C12.1705 14.8897 12.2495 14.6989 12.2495 14.5V6.56105L7.43905 1.75061H2.49994Z" fill="#6980A6"/>
<path fill-rule="evenodd" clip-rule="evenodd" d="M7.74971 0.25061C8.16393 0.25061 8.49975 0.585761 8.49975 0.999975V5.49975H12.9995C13.4137 5.49975 13.7495 5.83617 13.7495 6.25039C13.7495 6.6646 13.4137 6.99975 12.9995 6.99975H7.74975C7.33554 6.99975 6.99975 6.66397 6.99975 6.24975V0.999975C6.99975 0.585761 7.3355 0.25061 7.74971 0.25061Z" fill="#6980A6"/>
</svg>
