<svg width="30" height="18" viewBox="0 0 30 18" fill="none" xmlns="http://www.w3.org/2000/svg">
<path fill-rule="evenodd" clip-rule="evenodd" d="M21.2418 0.132477C20.5773 0.132477 20.0386 0.671176 20.0386 1.33569C20.0386 2.00021 20.5773 2.53891 21.2418 2.53891H25.6415L17.0305 11.5243L11.8831 6.15312C11.6562 5.91631 11.3424 5.78241 11.0144 5.78241C10.6864 5.78241 10.3727 5.91631 10.1457 6.15312L1.12162 15.5696C0.661837 16.0494 0.678045 16.8111 1.15782 17.2708C1.63759 17.7306 2.39926 17.7144 2.85904 17.2346L11.0144 8.72462L16.1618 14.0958C16.3887 14.3326 16.7025 14.4665 17.0305 14.4665C17.3585 14.4665 17.6723 14.3326 17.8992 14.0958L27.2578 4.33022V8.8689C27.2578 9.53341 27.7965 10.0721 28.4611 10.0721C29.1256 10.0721 29.6643 9.53341 29.6643 8.8689V1.33569C29.6643 1.15242 29.6233 0.97872 29.55 0.82325C29.5008 0.718536 29.4356 0.619553 29.3547 0.529969C29.3056 0.475569 29.2516 0.425673 29.1934 0.380976C29.123 0.326821 29.0481 0.28155 28.9701 0.245133C28.8155 0.172853 28.643 0.132477 28.4611 0.132477H21.2418Z" fill="#015CFF"/>
</svg>
