<svg width="23" height="24" viewBox="0 0 23 24" fill="none" xmlns="http://www.w3.org/2000/svg">
<path d="M6.23382 6.25559L6.5998 6.59804L6.23382 6.25559ZM5.37488 6.49686C5.20728 6.71717 5.25 7.03163 5.47031 7.19923C5.69062 7.36683 6.00508 7.32411 6.17268 7.1038L5.37488 6.49686ZM6.30097 15.0893C6.12641 14.8744 5.81075 14.8418 5.59591 15.0163C5.38106 15.1909 5.3484 15.5065 5.52296 15.7214L6.30097 15.0893ZM14.9551 1.69151C15.2136 1.79052 15.5034 1.66123 15.6024 1.40273C15.7014 1.14423 15.5721 0.854414 15.3136 0.755403L14.9551 1.69151ZM21.1852 7.25554L21.6527 7.0748C21.6497 7.06702 21.6465 7.05931 21.6431 7.05169L21.1852 7.25554ZM21.4723 6.66804C21.3597 6.41516 21.0634 6.30142 20.8105 6.41401C20.5576 6.52659 20.4439 6.82286 20.5565 7.07575L21.4723 6.66804ZM15.0304 20.3713C14.7728 20.4724 14.6458 20.7632 14.7469 21.0209C14.8481 21.2786 15.1389 21.4055 15.3966 21.3044L15.0304 20.3713ZM7.17969 21.2351C7.43562 21.3405 7.7286 21.2186 7.83407 20.9626C7.93954 20.7067 7.81757 20.4137 7.56164 20.3083L7.17969 21.2351ZM13.8158 11.015C13.8158 12.3635 12.7226 13.4568 11.374 13.4568V14.4592C13.2762 14.4592 14.8183 12.9172 14.8183 11.015H13.8158ZM11.374 13.4568C10.0255 13.4568 8.93222 12.3635 8.93222 11.015H7.9298C7.9298 12.9172 9.47184 14.4592 11.374 14.4592V13.4568ZM8.93222 11.015C8.93222 9.66638 10.0255 8.57314 11.374 8.57314V7.57071C9.47184 7.57071 7.9298 9.11275 7.9298 11.015H8.93222ZM11.374 8.57314C12.7226 8.57314 13.8158 9.66638 13.8158 11.015H14.8183C14.8183 9.11275 13.2762 7.57071 11.374 7.57071V8.57314ZM17.7885 11.015C17.7885 14.5861 14.8935 17.4811 11.3223 17.4811V18.4835C15.4471 18.4835 18.7909 15.1397 18.7909 11.015H17.7885ZM11.3223 4.54881C14.8935 4.54881 17.7885 7.4438 17.7885 11.015H18.7909C18.7909 6.89017 15.4471 3.54638 11.3223 3.54638V4.54881ZM6.5998 6.59804C7.78043 5.33628 9.45902 4.54881 11.3223 4.54881V3.54638C9.17022 3.54638 7.23008 4.45729 5.86784 5.91313L6.5998 6.59804ZM6.17268 7.1038C6.30646 6.92795 6.44905 6.75914 6.5998 6.59804L5.86784 5.91313C5.69388 6.09905 5.5293 6.29387 5.37488 6.49686L6.17268 7.1038ZM11.3223 17.4811C9.29585 17.4811 7.48735 16.5495 6.30097 15.0893L5.52296 15.7214C6.89152 17.4058 8.98125 18.4835 11.3223 18.4835V17.4811ZM5.97903 11.0149C5.97903 11.4763 5.60503 11.8503 5.14367 11.8503V12.8527C6.15865 12.8527 6.98146 12.0299 6.98146 11.0149H5.97903ZM5.14367 11.8503C4.68232 11.8503 4.30832 11.4763 4.30832 11.0149H3.30589C3.30589 12.0299 4.12869 12.8527 5.14367 12.8527V11.8503ZM4.30832 11.0149C4.30832 10.5536 4.68232 10.1796 5.14367 10.1796V9.17716C4.12869 9.17716 3.30589 9.99996 3.30589 11.0149H4.30832ZM5.14367 10.1796C5.60503 10.1796 5.97903 10.5536 5.97903 11.0149H6.98146C6.98146 9.99996 6.15865 9.17716 5.14367 9.17716V10.1796ZM1.36083 11.046C1.36083 5.51568 5.84404 1.03246 11.3744 1.03246V0.0300366C5.29042 0.0300366 0.358406 4.96205 0.358406 11.046H1.36083ZM11.3744 1.03246C12.637 1.03246 13.8438 1.2659 14.9551 1.69151L15.3136 0.755403C14.0897 0.286636 12.7614 0.0300366 11.3744 0.0300366V1.03246ZM20.7177 7.43628C21.1504 8.55549 21.3879 9.77241 21.3879 11.046H22.3903C22.3903 9.64684 22.1292 8.30748 21.6527 7.0748L20.7177 7.43628ZM20.5565 7.07575L20.7273 7.45939L21.6431 7.05169L21.4723 6.66804L20.5565 7.07575ZM21.3879 11.046C21.3879 15.2853 18.7534 18.9104 15.0304 20.3713L15.3966 21.3044C19.4904 19.6981 22.3903 15.7113 22.3903 11.046H21.3879ZM7.56164 20.3083C3.92157 18.8081 1.36083 15.2255 1.36083 11.046H0.358406C0.358406 15.6456 3.17723 19.5856 7.17969 21.2351L7.56164 20.3083ZM19.3176 3.5744C19.3176 4.03576 18.9436 4.40976 18.4823 4.40976V5.41219C19.4973 5.41219 20.3201 4.58938 20.3201 3.5744H19.3176ZM18.4823 4.40976C18.0209 4.40976 17.6469 4.03576 17.6469 3.5744H16.6445C16.6445 4.58938 17.4673 5.41219 18.4823 5.41219V4.40976ZM17.6469 3.5744C17.6469 3.11305 18.0209 2.73905 18.4823 2.73905V1.73662C17.4673 1.73662 16.6445 2.55943 16.6445 3.5744H17.6469ZM18.4823 2.73905C18.9436 2.73905 19.3176 3.11305 19.3176 3.5744H20.3201C20.3201 2.55943 19.4973 1.73662 18.4823 1.73662V2.73905ZM12.2094 21.4686C12.2094 21.93 11.8354 22.304 11.374 22.304V23.3064C12.389 23.3064 13.2118 22.4836 13.2118 21.4686H12.2094ZM11.374 22.304C10.9127 22.304 10.5387 21.93 10.5387 21.4686H9.53622C9.53622 22.4836 10.359 23.3064 11.374 23.3064V22.304ZM10.5387 21.4686C10.5387 21.0073 10.9127 20.6333 11.374 20.6333V19.6308C10.359 19.6308 9.53622 20.4536 9.53622 21.4686H10.5387ZM11.374 20.6333C11.8354 20.6333 12.2094 21.0073 12.2094 21.4686H13.2118C13.2118 20.4536 12.389 19.6308 11.374 19.6308V20.6333Z" fill="#6980A6"/>
</svg>
