<svg width="34" height="36" viewBox="0 0 34 36" fill="none" xmlns="http://www.w3.org/2000/svg">
<path d="M9.60953 9.56889L10.1572 10.0813V10.0813L9.60953 9.56889ZM8.32424 9.92993C8.07345 10.2596 8.13738 10.7301 8.46704 10.9809C8.7967 11.2317 9.26725 11.1678 9.51804 10.8381L8.32424 9.92993ZM9.71001 22.7873C9.44881 22.4658 8.97646 22.417 8.65498 22.6782C8.3335 22.9393 8.28462 23.4117 8.54582 23.7332L9.71001 22.7873ZM22.6597 2.73935C23.0465 2.88751 23.4802 2.69404 23.6284 2.30723C23.7765 1.92042 23.583 1.48675 23.1962 1.33859L22.6597 2.73935ZM31.9823 11.0652L32.6818 10.7947C32.6773 10.7831 32.6725 10.7716 32.6674 10.7602L31.9823 11.0652ZM32.4118 10.1861C32.2434 9.80767 31.8 9.63748 31.4216 9.80595C31.0432 9.97442 30.873 10.4177 31.0415 10.7962L32.4118 10.1861ZM22.7725 30.6911C22.3869 30.8424 22.197 31.2777 22.3483 31.6633C22.4996 32.0489 22.9348 32.2388 23.3204 32.0875L22.7725 30.6911ZM11.0249 31.9837C11.4079 32.1415 11.8463 31.959 12.0041 31.576C12.1619 31.1931 11.9794 30.7547 11.5964 30.5969L11.0249 31.9837ZM20.955 16.6907C20.955 18.7086 19.3192 20.3445 17.3012 20.3445V21.8445C20.1476 21.8445 22.455 19.5371 22.455 16.6907H20.955ZM17.3012 20.3445C15.2832 20.3445 13.6473 18.7086 13.6473 16.6907H12.1473C12.1473 19.5371 14.4548 21.8445 17.3012 21.8445V20.3445ZM13.6473 16.6907C13.6473 14.6727 15.2832 13.0368 17.3012 13.0368V11.5368C14.4548 11.5368 12.1473 13.8443 12.1473 16.6907H13.6473ZM17.3012 13.0368C19.3192 13.0368 20.955 14.6727 20.955 16.6907H22.455C22.455 13.8443 20.1476 11.5368 17.3012 11.5368V13.0368ZM26.8995 16.6907C26.8995 22.0344 22.5676 26.3664 17.2238 26.3664V27.8664C23.396 27.8664 28.3995 22.8628 28.3995 16.6907H26.8995ZM17.2238 7.01492C22.5676 7.01492 26.8995 11.3469 26.8995 16.6907H28.3995C28.3995 10.5185 23.396 5.51492 17.2238 5.51492V7.01492ZM10.1572 10.0813C11.9238 8.19327 14.4356 7.01492 17.2238 7.01492V5.51492C14.0035 5.51492 11.1003 6.87797 9.06189 9.05646L10.1572 10.0813ZM9.51804 10.8381C9.71823 10.575 9.9316 10.3224 10.1572 10.0813L9.06189 9.05646C8.80158 9.33465 8.55532 9.62618 8.32424 9.92993L9.51804 10.8381ZM17.2238 26.3664C14.1915 26.3664 11.4853 24.9724 9.71001 22.7873L8.54582 23.7332C10.5937 26.2537 13.7207 27.8664 17.2238 27.8664V26.3664ZM9.22827 16.6906C9.22827 17.381 8.66863 17.9406 7.97827 17.9406V19.4406C9.49705 19.4406 10.7283 18.2094 10.7283 16.6906H9.22827ZM7.97827 17.9406C7.28792 17.9406 6.72827 17.381 6.72827 16.6906H5.22827C5.22827 18.2094 6.45949 19.4406 7.97827 19.4406V17.9406ZM6.72827 16.6906C6.72827 16.0003 7.28792 15.4406 7.97827 15.4406V13.9406C6.45949 13.9406 5.22827 15.1719 5.22827 16.6906H6.72827ZM7.97827 15.4406C8.66863 15.4406 9.22827 16.0003 9.22827 16.6906H10.7283C10.7283 15.1719 9.49705 13.9406 7.97827 13.9406V15.4406ZM2.31775 16.7371C2.31775 8.46171 9.02629 1.75317 17.3017 1.75317V0.253174C8.19786 0.253174 0.817749 7.63329 0.817749 16.7371H2.31775ZM17.3017 1.75317C19.191 1.75317 20.9969 2.10248 22.6597 2.73935L23.1962 1.33859C21.3649 0.637141 19.3772 0.253174 17.3017 0.253174V1.75317ZM31.2827 11.3356C31.9302 13.0104 32.2856 14.8314 32.2856 16.7371H33.7856C33.7856 14.6435 33.3949 12.6393 32.6818 10.7947L31.2827 11.3356ZM31.0415 10.7962L31.2971 11.3702L32.6674 10.7602L32.4118 10.1861L31.0415 10.7962ZM32.2856 16.7371C32.2856 23.0806 28.3434 28.5052 22.7725 30.6911L23.3204 32.0875C29.4463 29.6838 33.7856 23.7181 33.7856 16.7371H32.2856ZM11.5964 30.5969C6.14956 28.3521 2.31775 22.9912 2.31775 16.7371H0.817749C0.817749 23.6198 5.03575 29.5155 11.0249 31.9837L11.5964 30.5969ZM29.1877 5.55686C29.1877 6.24721 28.6281 6.80686 27.9377 6.80686V8.30686C29.4565 8.30686 30.6877 7.07564 30.6877 5.55686H29.1877ZM27.9377 6.80686C27.2474 6.80686 26.6877 6.24721 26.6877 5.55686H25.1877C25.1877 7.07564 26.419 8.30686 27.9377 8.30686V6.80686ZM26.6877 5.55686C26.6877 4.8665 27.2474 4.30686 27.9377 4.30686V2.80686C26.419 2.80686 25.1877 4.03807 25.1877 5.55686H26.6877ZM27.9377 4.30686C28.6281 4.30686 29.1877 4.8665 29.1877 5.55686H30.6877C30.6877 4.03807 29.4565 2.80686 27.9377 2.80686V4.30686ZM18.5511 32.3332C18.5511 33.0236 17.9915 33.5832 17.3011 33.5832V35.0832C18.8199 35.0832 20.0511 33.852 20.0511 32.3332H18.5511ZM17.3011 33.5832C16.6108 33.5832 16.0511 33.0236 16.0511 32.3332H14.5511C14.5511 33.852 15.7824 35.0832 17.3011 35.0832V33.5832ZM16.0511 32.3332C16.0511 31.6429 16.6108 31.0832 17.3011 31.0832V29.5832C15.7824 29.5832 14.5511 30.8144 14.5511 32.3332H16.0511ZM17.3011 31.0832C17.9915 31.0832 18.5511 31.6429 18.5511 32.3332H20.0511C20.0511 30.8144 18.8199 29.5832 17.3011 29.5832V31.0832Z" fill="white"/>
</svg>
