<svg width="13" height="14" viewBox="0 0 13 14" fill="none" xmlns="http://www.w3.org/2000/svg">
<path fill-rule="evenodd" clip-rule="evenodd" d="M2.0014 7.47518C1.62617 7.47518 1.43218 7.72136 1.43218 7.90394V11.7379C1.43218 11.9205 1.62617 12.1667 2.0014 12.1667H10.9986C11.3738 12.1667 11.5678 11.9205 11.5678 11.7379V7.90394C11.5678 7.72136 11.3738 7.47518 10.9986 7.47518H2.0014ZM0 7.90394C0 6.87655 0.956919 6.14185 2.0014 6.14185H10.9986C12.0431 6.14185 13 6.87655 13 7.90394V11.7379C13 12.7653 12.0431 13.5 10.9986 13.5H2.0014C0.956919 13.5 0 12.7653 0 11.7379V7.90394Z" fill="white"/>
<path fill-rule="evenodd" clip-rule="evenodd" d="M6.49981 1.83334C5.81031 1.83334 5.16447 2.05878 4.70108 2.4389C4.24062 2.81661 4.00262 3.30946 4.00262 3.80254V6.55138C4.00262 6.91957 3.68201 7.21805 3.28653 7.21805C2.89104 7.21805 2.57043 6.91957 2.57043 6.55138V3.80254C2.57043 2.89746 3.00951 2.04942 3.75427 1.4385C4.4961 0.829969 5.48488 0.5 6.49981 0.5C7.51474 0.5 8.50352 0.829969 9.24535 1.4385C9.58944 1.72075 9.80058 2.0891 9.92579 2.42488C10.052 2.76338 10.108 3.11381 10.108 3.4103C10.108 3.77849 9.78741 4.07696 9.39192 4.07696C8.99643 4.07696 8.67583 3.77849 8.67583 3.4103C8.67583 3.25805 8.645 3.05574 8.57281 2.86215C8.49961 2.66585 8.40077 2.52276 8.29853 2.4389C7.83515 2.05878 7.18931 1.83334 6.49981 1.83334Z" fill="white"/>
</svg>
