<svg width="31" height="38" viewBox="0 0 31 38" fill="none" xmlns="http://www.w3.org/2000/svg">
<path fill-rule="evenodd" clip-rule="evenodd" d="M1.1014 1.11299C0.396185 1.82563 0 2.79218 0 3.8V34.2C0 35.2078 0.396185 36.1744 1.1014 36.887C1.80662 37.5996 2.76309 38 3.76042 38H20.2043H26.0833C28.2925 38 30.0833 36.2091 30.0833 34V28.017V11.8751V11.4L18.8021 0H3.76042C2.76309 0 1.80662 0.400356 1.1014 1.11299ZM21.375 5.97648L24.8619 9.50012H23.75C22.4383 9.50012 21.375 8.4368 21.375 7.12512V5.97648ZM19 7.12512V3.57648L17.811 2.375H3.76042C3.40105 2.375 3.05132 2.51903 2.78955 2.78356C2.52694 3.04893 2.375 3.41409 2.375 3.8V34.2C2.375 34.5859 2.52694 34.9511 2.78955 35.2164C3.05133 35.481 3.40105 35.625 3.76042 35.625H20.2043H26.0833C26.9808 35.625 27.7083 34.8975 27.7083 34V28.017V12.3765L27.2122 11.8751H23.75C21.1266 11.8751 19 9.74847 19 7.12512ZM11.07 21.375C11.07 20.945 10.7214 20.5963 10.2914 20.5963C9.86129 20.5963 9.51266 20.945 9.51266 21.375V23.4861C9.51266 23.9726 9.70591 24.4392 10.0499 24.7832C10.3939 25.1271 10.8604 25.3204 11.3469 25.3204H18.7358C19.2223 25.3204 19.6888 25.1271 20.0328 24.7832C20.3768 24.4392 20.57 23.9726 20.57 23.4861V21.375C20.57 20.945 20.2214 20.5963 19.7914 20.5963C19.3613 20.5963 19.0127 20.945 19.0127 21.375V23.4861C19.0127 23.5596 18.9835 23.63 18.9316 23.6819C18.8796 23.7338 18.8092 23.763 18.7358 23.763H11.3469C11.2735 23.763 11.2031 23.7338 11.1511 23.6819C11.0992 23.63 11.07 23.5596 11.07 23.4861V21.375ZM15.6013 14.5007C15.4597 14.3542 15.2612 14.2631 15.0414 14.2631C14.9592 14.2631 14.88 14.2759 14.8056 14.2995C14.6904 14.3359 14.5819 14.3998 14.4906 14.4912L11.8517 17.1301C11.5476 17.4342 11.5476 17.9272 11.8517 18.2313C12.1558 18.5354 12.6488 18.5354 12.9529 18.2313L14.2627 16.9216V21.3752C14.2627 21.8052 14.6113 22.1538 15.0414 22.1538C15.4714 22.1538 15.82 21.8052 15.82 21.3752V16.9219L17.1295 18.2313C17.4336 18.5354 17.9266 18.5354 18.2307 18.2313C18.5348 17.9272 18.5348 17.4342 18.2307 17.1301L15.6013 14.5007Z" fill="url(#paint0_linear)"/>
<defs>
<linearGradient id="paint0_linear" x1="1.10061" y1="19" x2="28.9827" y2="19" gradientUnits="userSpaceOnUse">
<stop stop-color="#015CFF"/>
<stop offset="1" stop-color="#0FD4FF"/>
</linearGradient>
</defs>
</svg>
