<svg width="32" height="32" viewBox="0 0 32 32" fill="none" xmlns="http://www.w3.org/2000/svg">
  <path fill-rule="evenodd" clip-rule="evenodd" d="M2 16C2 8.26801 8.26801 2 16 2C23.732 2 30 8.26801 30 16C30 23.732 23.732 30 16 30C8.26801 30 2 23.732 2 16ZM16 0C7.16344 0 0 7.16344 0 16C0 24.8366 7.16344 32 16 32C24.8366 32 32 24.8366 32 16C32 7.16344 24.8366 0 16 0ZM16.0016 9C14.897 9 14.0016 9.89543 14.0016 11C14.0016 12.1046 14.897 13 16.0016 13C17.1062 13 18.0016 12.1046 18.0016 11C18.0016 9.89543 17.1062 9 16.0016 9ZM12.0016 11C12.0016 8.79086 13.7924 7 16.0016 7C18.2107 7 20.0016 8.79086 20.0016 11C20.0016 13.2091 18.2107 15 16.0016 15C13.7924 15 12.0016 13.2091 12.0016 11ZM10.235 18.2782C11.03 17.4629 12.1137 17 13.2491 17H19.7491C20.8846 17 21.9683 17.4629 22.7632 18.2782C23.5574 19.0927 23.9991 20.1921 23.9991 21.3333V23H21.9991V21.3333C21.9991 20.7064 21.7561 20.1102 21.3312 19.6744C20.9072 19.2395 20.3376 19 19.7491 19H13.2491C12.6607 19 12.0911 19.2395 11.667 19.6744C11.2422 20.1102 10.9991 20.7064 10.9991 21.3333V23H8.99915V21.3333C8.99915 20.1921 9.44092 19.0927 10.235 18.2782Z" fill="white"/>
</svg>
