<svg width="52" height="64" viewBox="0 0 52 64" fill="none" xmlns="http://www.w3.org/2000/svg">
<path d="M31.3369 56.0673H8.19861C6.79526 56.0673 5.44939 55.5052 4.45708 54.5045C3.46476 53.5039 2.90729 52.1467 2.90729 50.7315V8.04526C2.90729 6.63012 3.46476 5.27294 4.45708 4.27229C5.44939 3.27163 6.79526 2.70947 8.19861 2.70947H29.3639L45.2379 18.7168V42.0496" stroke="#C7CDDB" stroke-width="4.99219" stroke-linecap="round" stroke-linejoin="round"/>
<path d="M29.3636 2.70947V18.7169H45.2376" stroke="#C7CDDB" stroke-width="4.99219" stroke-linecap="round" stroke-linejoin="round"/>
<path d="M34.6555 32.0566H13.4902" stroke="#C7CDDB" stroke-width="4.99219" stroke-linecap="round" stroke-linejoin="round"/>
<path d="M34.6555 42.7285H13.4902" stroke="#C7CDDB" stroke-width="4.99219" stroke-linecap="round" stroke-linejoin="round"/>
<path d="M18.7815 21.3848H16.1358H13.4902" stroke="#C7CDDB" stroke-width="4.99219" stroke-linecap="round" stroke-linejoin="round"/>
<path fill-rule="evenodd" clip-rule="evenodd" d="M43.6459 63.2139C48.0712 63.2139 51.6586 59.5963 51.6586 55.1338C51.6586 50.6713 48.0712 47.0537 43.6459 47.0537C39.2206 47.0537 35.6332 50.6713 35.6332 55.1338C35.6332 59.5963 39.2206 63.2139 43.6459 63.2139ZM43.6451 50.2819C44.2058 50.2819 44.6604 50.7365 44.6604 51.2972V54.1188H47.4508C48.0116 54.1188 48.4662 54.5734 48.4662 55.1342C48.4662 55.6949 48.0116 56.1495 47.4508 56.1495H44.6604V58.9709C44.6604 59.5317 44.2058 59.9863 43.6451 59.9863C43.0843 59.9863 42.6297 59.5317 42.6297 58.9709V56.1495H39.8411C39.2803 56.1495 38.8257 55.6949 38.8257 55.1342C38.8257 54.5734 39.2803 54.1188 39.8411 54.1188H42.6297V51.2972C42.6297 50.7365 43.0843 50.2819 43.6451 50.2819Z" fill="#C7CDDB"/>
</svg>
