<svg width="20" height="20" viewBox="0 0 20 20" fill="none" xmlns="http://www.w3.org/2000/svg">
  <path d="M0.104492 8.07555C0.104492 8.49362 0.443405 8.83253 0.861475 8.83253C1.27954 8.83253 1.61846 8.49362 1.61846 8.07555L1.61846 6.86269C1.61846 6.29632 1.87522 5.72862 2.37458 5.29253C2.87721 4.85359 3.57841 4.59279 4.32752 4.59279L14.79 4.59279C15.208 4.59279 15.547 4.25387 15.547 3.8358C15.547 3.41773 15.208 3.07882 14.79 3.07882L4.32752 3.07882C3.23813 3.07882 2.17612 3.45583 1.37873 4.15219C0.578071 4.8514 0.104492 5.82349 0.104492 6.86269V8.07555Z" fill="white"/>
  <path d="M15.3728 6.2921C15.0579 6.5671 15.0255 7.0453 15.3005 7.3602C15.5755 7.67509 16.0537 7.70744 16.3686 7.43244L19.3095 4.8642C19.9449 4.30925 19.9449 3.36152 19.3095 2.80658L16.3686 0.238338C16.0537 -0.036659 15.5755 -0.0043143 15.3005 0.310581C15.0255 0.625478 15.0579 1.10368 15.3728 1.37868L18.1859 3.83539L15.3728 6.2921Z" fill="white"/>
  <path d="M19.7861 11.7091C19.7861 11.291 19.4472 10.9521 19.0291 10.9521C18.611 10.9521 18.2721 11.291 18.2721 11.7091V12.9219C18.2721 13.4883 18.0153 14.056 17.516 14.4921C17.0133 14.931 16.3122 15.1918 15.563 15.1918H5.10058C4.68251 15.1918 4.3436 15.5307 4.3436 15.9488C4.3436 16.3669 4.68251 16.7058 5.10058 16.7058H15.563C16.6524 16.7058 17.7144 16.3288 18.5118 15.6324C19.3125 14.9332 19.7861 13.9611 19.7861 12.9219V11.7091Z" fill="white"/>
  <path d="M4.5178 13.4925C4.8327 13.2175 4.86504 12.7393 4.59004 12.4244C4.31504 12.1095 3.83684 12.0772 3.52195 12.3522L0.581088 14.9204C-0.0543742 15.4754 -0.054372 16.4231 0.581088 16.978L3.52195 19.5463C3.83684 19.8213 4.31504 19.7889 4.59004 19.474C4.86504 19.1591 4.8327 18.6809 4.5178 18.4059L1.70465 15.9492L4.5178 13.4925Z" fill="white"/>
</svg>
