<svg width="23" height="21" viewBox="0 0 23 21" fill="none" xmlns="http://www.w3.org/2000/svg">
<path d="M21.8671 18.0629L16.9575 10.4109L21.6541 2.91609C22.2186 2.01462 21.931 0.840612 21.0258 0.285055C20.1205 -0.270501 18.9171 0.0125179 18.3526 0.903505L13.0276 9.40457C12.6336 10.0335 12.6655 10.7882 13.017 11.3752C13.0383 11.4172 13.0489 11.4591 13.0809 11.4905L18.5976 20.0859C19.1727 20.9769 20.3655 21.239 21.2707 20.6834C22.176 20.1383 22.4422 18.9539 21.8671 18.0629Z" fill="white"/>
<path d="M9.25754 11.4701C9.26819 11.4597 9.26819 11.4387 9.27884 11.4282C9.33209 11.3339 9.37469 11.25 9.41729 11.1557C9.42794 11.1242 9.43859 11.1033 9.44924 11.0718C9.48119 10.988 9.50249 10.8936 9.52379 10.7993C9.53444 10.7678 9.53444 10.7364 9.53444 10.7049C9.54509 10.6106 9.55574 10.5267 9.54509 10.4324C9.54509 10.401 9.54509 10.3695 9.53444 10.3381C9.53444 10.2332 9.52379 10.1494 9.50249 10.055C9.49184 10.0236 9.48119 9.99216 9.47054 9.96071C9.44924 9.87685 9.41729 9.79299 9.38534 9.71962C9.36404 9.67769 9.34274 9.63576 9.33209 9.59383C9.31079 9.54142 9.28949 9.48901 9.25754 9.4366L3.75148 0.893605C3.17637 0.00261724 1.98357 -0.259438 1.07832 0.296119C0.173068 0.862158 -0.103832 2.04665 0.471269 2.93763L5.31703 10.4743L0.556469 18.0739C-0.00798182 18.9754 0.279569 20.1494 1.18482 20.705C2.10072 21.2605 3.29352 20.9775 3.85798 20.0865L9.19364 11.5645C9.20429 11.554 9.21494 11.533 9.21494 11.5226L9.25754 11.4701Z" fill="#015CFF"/>
<path d="M7.89399 0.295387C8.79925 -0.26017 10.0027 0.00188481 10.5671 0.892872L12.793 4.36248C13.3681 5.25347 13.0912 6.43796 12.186 6.99351C11.2807 7.55955 10.0772 7.28702 9.5128 6.39603L7.29759 2.9369C6.72249 2.04591 6.98874 0.861426 7.89399 0.295387Z" fill="#015CFF"/>
<path d="M10.0887 13.9748C10.994 13.4088 12.1974 13.6813 12.7619 14.5723L15.009 18.0734C15.5841 18.9644 15.3072 20.1489 14.402 20.7044C13.4967 21.2705 12.2933 20.9979 11.7288 20.1069L9.48169 16.6059C8.91723 15.7149 9.18349 14.5409 10.0887 13.9748Z" fill="white"/>
</svg>
