<svg  viewBox="0 0 130 37" fill="none" xmlns="http://www.w3.org/2000/svg">
  <path fill-rule="evenodd" clip-rule="evenodd" d="M21.638 18.7594C21.6361 18.7654 21.6342 18.7713 21.6303 18.7753L21.5992 18.815C21.5992 18.8229 21.5914 18.8388 21.5836 18.8467L17.6907 25.2976C17.2789 25.972 16.4086 26.1863 15.7403 25.7657C15.0798 25.3452 14.87 24.4565 15.2819 23.7741L18.7552 18.0215L15.2197 12.3165C14.8001 11.6421 15.0021 10.7455 15.6626 10.317C16.3231 9.89646 17.1934 10.0948 17.613 10.7693L21.6303 17.236C21.6536 17.2757 21.6691 17.3153 21.6847 17.355C21.6924 17.3868 21.708 17.4185 21.7235 17.4502C21.7468 17.5058 21.7701 17.5692 21.7857 17.6327L21.809 17.7041C21.8245 17.7756 21.8323 17.839 21.8323 17.9184C21.8401 17.9422 21.8401 17.966 21.8401 17.9898C21.8474 18.0576 21.8408 18.1183 21.8335 18.1854C21.8331 18.1889 21.8327 18.1925 21.8323 18.1961C21.8323 18.2199 21.8323 18.2437 21.8245 18.2675C21.809 18.3389 21.7934 18.4103 21.7701 18.4738C21.7663 18.4857 21.7624 18.4956 21.7585 18.5055C21.7546 18.5155 21.7507 18.5254 21.7468 18.5373C21.7157 18.6087 21.6847 18.6722 21.6458 18.7436C21.6419 18.7475 21.64 18.7535 21.638 18.7594ZM22.5857 10.7693C22.1739 10.0948 21.2959 9.89646 20.6354 10.317C19.9749 10.7455 19.7806 11.6421 20.2002 12.3165L21.8165 14.935C22.2283 15.6094 23.1064 15.8157 23.7668 15.3872C24.4273 14.9667 24.6294 14.0701 24.2098 13.3956L22.5857 10.7693Z" fill="#377FFF"/>
  <path fill-rule="evenodd" clip-rule="evenodd" d="M45.922 16.4765L42.1767 10.0732H38.478L44.3446 19.1029V25.9663H47.3673V19.1029L53.2339 10.0732H49.714L45.922 16.4765ZM57.4688 10.0732H54.4461V25.9663H57.4688V10.0732ZM70.9334 19.1029H63.9323V23.1813H71.7104V25.9663H60.9096V10.0732H71.3219V12.8107H63.9323V16.4527H70.9334V19.1029ZM77.4613 10.0732H74.4387V25.9663H83.9496V23.1813H77.4613V10.0732ZM94.4314 10.4779C95.4494 10.7477 96.3818 11.192 97.1977 11.8109C98.0136 12.4298 98.6896 13.255 99.2025 14.2548C99.7153 15.2625 99.9717 16.532 99.9717 18.0158C99.9717 19.3964 99.7153 20.6104 99.2025 21.6102C98.6896 22.61 98.0136 23.4431 97.1977 24.0858C96.3818 24.7206 95.4494 25.2046 94.4314 25.5061C93.4135 25.8156 92.3956 25.9663 91.3932 25.9663H85.8296V10.0732H91.3932C92.3956 10.0732 93.4135 10.2081 94.4314 10.4779ZM96.2342 20.5628C96.5761 19.8963 96.7548 19.0394 96.7548 18.0158C96.7548 16.9367 96.5761 16.0401 96.2264 15.3577C95.8845 14.6753 95.4338 14.1437 94.8899 13.7628C94.3382 13.382 93.7166 13.1201 93.0405 12.9773C92.349 12.8345 91.6496 12.7631 90.9581 12.7631H88.8523V23.2289H90.9581C91.6496 23.2289 92.349 23.1495 93.0328 22.9829C93.7166 22.8242 94.3382 22.5386 94.8899 22.1498C95.4338 21.761 95.8923 21.2293 96.2342 20.5628ZM109.421 17.5556L114.169 10.0732H110.672L107.657 15.2466L104.603 10.0732H100.951L105.792 17.4921L100.415 25.9663H104.067L107.556 19.9995L111.193 25.9663H115L109.421 17.5556ZM30.8308 23.7672L27.2487 17.9749L30.6754 12.3017C31.0873 11.6193 30.8775 10.7306 30.217 10.3101C29.5565 9.88952 28.6784 10.1038 28.2666 10.7782L24.3814 17.2132C24.0939 17.6893 24.1172 18.2606 24.3736 18.7049C24.3782 18.7142 24.382 18.7234 24.3858 18.7325L24.3858 18.7325C24.395 18.7545 24.4038 18.7753 24.4203 18.7922L28.4453 25.2986C28.8649 25.973 29.7352 26.1714 30.3957 25.7509C31.0562 25.3383 31.2504 24.4416 30.8308 23.7672ZM22.2366 20.6749C22.897 20.2465 23.7751 20.4528 24.1869 21.1272L25.8265 23.7774C26.2461 24.4518 26.0441 25.3484 25.3836 25.769C24.7231 26.1974 23.845 25.9911 23.4332 25.3167L21.7937 22.6665C21.3818 21.9921 21.5761 21.1034 22.2366 20.6749Z" fill="white"/>
</svg>
