<svg width="20" height="14" viewBox="0 0 20 14" fill="none" xmlns="http://www.w3.org/2000/svg">
  <path fill-rule="evenodd" clip-rule="evenodd" d="M0.404297 1C0.404297 0.585786 0.740083 0.25 1.1543 0.25H19.1543C19.5685 0.25 19.9043 0.585786 19.9043 1C19.9043 1.41421 19.5685 1.75 19.1543 1.75H1.1543C0.740083 1.75 0.404297 1.41421 0.404297 1ZM0.404297 7C0.404297 6.58579 0.740083 6.25 1.1543 6.25H14.1543C14.5685 6.25 14.9043 6.58579 14.9043 7C14.9043 7.41421 14.5685 7.75 14.1543 7.75H1.1543C0.740083 7.75 0.404297 7.41421 0.404297 7ZM1.1543 12.25C0.740083 12.25 0.404297 12.5858 0.404297 13C0.404297 13.4142 0.740083 13.75 1.1543 13.75H19.1543C19.5685 13.75 19.9043 13.4142 19.9043 13C19.9043 12.5858 19.5685 12.25 19.1543 12.25H1.1543Z" fill="white"/>
</svg>
